<?xml version="1.0" encoding="UTF-8" standalone="no"?>
<!-- Generator: Gravit.io -->
<svg xmlns="http://www.w3.org/2000/svg" xmlns:xlink="http://www.w3.org/1999/xlink" style="isolation:isolate" viewBox="0 0 880 320" width="880pt" height="320pt"><defs><clipPath id="_clipPath_yvdyQaiqGmX7BvN9rltcMIycMRCNm97c"><rect width="880" height="320"/></clipPath></defs><g clip-path="url(#_clipPath_yvdyQaiqGmX7BvN9rltcMIycMRCNm97c)"><g filter="url(#fcL6njJZm126LztepZtWLqCpUh3GTdag)"><g><g><path d=" M 281.337 163.574 C 280.43 150.634 277.68 137.609 272.069 125.858 C 267.235 115.732 260.191 106.761 251.248 99.95 C 242.372 93.191 231.749 88.802 220.719 87.189 C 214.423 86.268 208.033 86.217 201.714 86.947 C 198.648 87.3 195.614 87.829 192.6 88.467 C 188.516 88.878 184.44 89.472 180.495 90.589 C 175.38 92.038 170.36 93.506 165.069 94.176 C 154.796 95.477 144.138 95.068 133.876 93.884 C 131.489 93.609 129.092 93.274 126.705 92.873 C 126.244 92.672 125.759 92.527 125.278 92.392 C 124.413 92.147 123.519 91.996 122.63 91.864 C 122.45 91.838 122.27 91.827 122.089 91.808 L 121.94 91.762 C 114.73 89.674 107.433 87.808 99.962 86.947 C 93.644 86.217 87.253 86.268 80.958 87.189 C 69.928 88.802 59.304 93.191 50.428 99.95 C 41.485 106.761 34.441 115.732 29.608 125.858 C 23.997 137.609 21.247 150.634 20.339 163.574 C 19.39 177.121 20.473 190.811 23.084 204.124 C 25.579 216.842 29.583 229.216 34.837 241.058 C 39.712 252.047 45.775 262.542 53.514 271.774 C 61.72 281.566 71.625 289.437 82.548 296 C 88.651 299.665 95.059 302.898 101.839 305.115 C 108.252 307.212 115.745 309.055 122.37 306.909 C 123.845 306.431 125.229 305.74 126.678 305.195 C 127.933 304.724 129.13 304.59 130.387 304.761 C 132.724 305.946 134.915 307.448 137.334 308.471 C 140.545 309.829 144.076 310.162 147.531 309.934 C 148.626 309.861 153.05 309.861 154.146 309.934 C 157.601 310.162 161.131 309.829 164.343 308.471 C 166.762 307.448 168.952 305.946 171.289 304.761 C 172.546 304.59 173.744 304.724 175 305.195 C 176.448 305.74 177.832 306.431 179.307 306.909 C 185.931 309.055 193.425 307.212 199.837 305.115 C 206.617 302.898 213.025 299.665 219.129 296 C 230.051 289.437 239.956 281.566 248.164 271.774 C 255.902 262.542 261.965 252.047 266.84 241.058 C 272.094 229.216 276.098 216.842 278.592 204.124 C 281.204 190.811 282.288 177.121 281.337 163.574" fill="rgb(128,24,19)"/><path d=" M 274.83 213.349 C 271.686 225.469 267.195 237.341 261.454 248.472 C 256.018 259.01 249.228 268.86 240.862 277.29 C 231.691 286.53 220.593 294.068 208.86 299.668 C 202.332 302.786 195.301 305.232 188.08 306.026 C 184.504 306.421 181.098 306.1 177.768 304.685 C 176.759 304.257 175.753 303.773 174.708 303.421 C 176.772 302.919 178.799 303.012 180.889 303.177 C 180.306 302.879 179.718 302.593 179.093 302.392 C 177.385 301.849 175.363 302.019 173.639 302.412 C 172.168 302.749 170.726 303.291 169.307 303.802 C 168.702 304.02 168.1 304.245 167.498 304.473 C 166.055 305.29 164.616 306.12 163.079 306.749 C 161.213 307.515 159.253 307.904 157.268 308.048 C 156.974 308.129 156.684 308.22 156.389 308.293 C 153.528 309.009 145.319 308.751 144.233 308.409 C 142.521 308.257 140.787 308.259 139.135 307.748 C 134.959 306.458 131.85 302.987 127.618 301.861 C 125.849 301.39 124.117 301.494 122.429 301.897 C 121.544 302.24 120.717 302.723 119.91 303.245 C 122.315 303.045 124.618 302.849 126.969 303.421 C 125.923 303.773 124.917 304.257 123.908 304.685 C 120.579 306.1 117.173 306.421 113.597 306.026 C 106.375 305.232 99.345 302.786 92.816 299.668 C 81.084 294.068 69.986 286.53 60.816 277.29 C 52.448 268.86 45.658 259.01 40.223 248.472 C 34.481 237.341 29.99 225.469 26.847 213.349 C 23.482 200.373 21.604 186.968 21.544 173.557 C 21.484 160.284 23.211 146.899 27.641 134.348 C 31.481 123.47 37.597 113.525 46.055 105.626 C 54.009 98.195 63.823 92.852 74.38 90.201 C 87.36 86.943 100.572 88.124 113.452 91.287 C 116.478 92.031 119.488 92.845 122.491 93.688 C 124.068 93.95 125.647 94.192 127.223 94.426 C 129.358 94.743 131.492 95.037 133.628 95.304 C 133.192 95.17 132.756 95.042 132.32 94.908 C 137.06 95.641 141.842 96.063 146.636 96.205 C 151.786 96.357 156.98 96.308 162.114 95.847 C 163.715 95.643 165.312 95.402 166.903 95.125 C 171.08 94.4 175.199 93.41 179.347 92.554 C 181.011 91.992 182.729 91.595 184.456 91.279 C 186.475 90.91 188.514 90.649 190.551 90.408 C 191.889 90.25 193.226 90.078 194.563 89.911 C 205.416 87.861 216.438 87.474 227.297 90.201 C 237.854 92.852 247.668 98.195 255.623 105.626 C 264.079 113.525 270.195 123.47 274.035 134.348 C 278.466 146.899 280.193 160.284 280.133 173.557 C 280.072 186.968 278.194 200.373 274.83 213.349" fill="rgb(222,57,55)"/><path d=" M 176.36 106.581 C 173.462 107.856 170.263 108.382 167.123 108.632 C 163.837 108.894 160.492 109.013 157.2 108.838 C 153.207 108.626 149.253 108.226 145.352 107.306 C 141.756 106.457 138.238 105.204 134.837 103.767 C 131.567 102.385 127.664 101.453 124.983 99.026 C 124.626 98.704 123.76 99.394 124.102 99.783 C 126.262 102.233 129.132 103.699 132.003 105.147 C 135.444 106.882 139.046 108.346 142.775 109.333 C 146.776 110.392 151.004 111.069 155.146 111.194 C 158.733 111.303 162.392 110.924 165.939 110.411 C 169.591 109.884 173.453 109.126 176.562 107.023 C 176.842 106.833 176.712 106.426 176.36 106.581 Z " fill="rgb(128,24,19)"/><path d=" M 113.336 91.259 C 113.328 91.257 113.32 91.255 113.312 91.252 C 113.32 91.255 113.328 91.257 113.336 91.259 Z  M 74.38 90.201 C 79.761 88.851 85.18 88.263 90.601 88.263 C 85.181 88.263 79.76 88.851 74.38 90.201 Z  M 90.605 88.263 C 90.605 88.263 90.604 88.263 90.603 88.263 L 90.603 88.263 C 90.604 88.263 90.605 88.263 90.605 88.263 Z " fill="rgb(111,5,4)"/><path d=" M 113.56 306.023 C 113.556 306.022 113.552 306.022 113.548 306.021 C 113.552 306.022 113.556 306.022 113.56 306.023 Z  M 113.527 306.019 C 106.329 305.216 99.324 302.775 92.816 299.668 C 81.084 294.068 69.986 286.53 60.816 277.29 C 52.448 268.86 45.658 259.01 40.223 248.472 C 34.481 237.341 29.99 225.469 26.847 213.349 C 23.482 200.373 21.604 186.968 21.544 173.557 C 21.543 173.323 21.542 173.09 21.542 172.856 C 21.545 159.814 23.288 146.679 27.641 134.348 C 31.481 123.47 37.597 113.525 46.055 105.626 C 54.009 98.195 63.823 92.852 74.38 90.201 L 74.38 90.201 C 79.76 88.851 85.181 88.263 90.601 88.263 C 90.601 88.263 90.602 88.263 90.603 88.263 C 90.604 88.263 90.605 88.263 90.605 88.263 C 98.211 88.263 105.818 89.421 113.312 91.252 C 113.32 91.255 113.328 91.257 113.336 91.259 C 113.375 91.269 113.414 91.278 113.452 91.287 C 116.478 92.031 119.488 92.845 122.491 93.688 C 123.85 93.913 125.211 94.124 126.57 94.329 C 125.456 94.724 124.339 95.282 123.707 96.189 C 122.895 97.354 123.224 99.13 123.963 100.338 C 125 102.032 126.814 103.168 128.542 104.05 C 130.439 105.019 132.458 105.74 134.502 106.344 C 137.177 107.555 139.938 108.582 142.775 109.333 C 146.776 110.392 151.004 111.069 155.146 111.194 C 155.563 111.207 155.982 111.212 156.401 111.212 C 159.582 111.212 162.804 110.865 165.939 110.411 C 166.867 110.277 167.808 110.129 168.747 109.946 C 169.809 109.901 170.87 109.82 171.932 109.683 C 178.686 108.808 185.685 107.231 191.868 104.318 C 194.393 103.128 197.253 101.565 198.694 99.059 C 199.008 98.512 199.201 97.96 199.292 97.413 C 199.377 97.476 199.48 97.51 199.587 97.528 C 199.71 97.548 199.839 97.579 199.963 97.579 C 199.965 97.579 199.967 97.579 199.968 97.579 C 200.105 97.579 200.242 97.583 200.376 97.599 L 200.523 97.618 L 200.59 97.696 L 200.546 97.652 L 200.718 97.862 L 200.907 97.89 L 201.078 97.8 C 201.157 97.734 201.256 97.575 201.169 97.475 L 201.147 97.442 L 201.254 97.382 L 201.301 97.35 L 201.402 97.266 C 201.497 97.196 201.575 97.108 201.636 97.005 C 201.702 96.896 201.768 96.742 201.769 96.611 L 201.767 96.571 C 201.781 96.463 201.762 96.363 201.708 96.273 C 201.676 96.174 201.614 96.096 201.521 96.039 C 201.396 95.95 201.252 95.927 201.104 95.915 L 200.905 95.915 C 200.697 95.93 200.479 95.948 200.273 95.991 L 200.074 96.05 L 199.983 96.074 C 199.819 96.119 199.651 96.182 199.517 96.289 C 199.459 96.332 199.402 96.381 199.349 96.433 C 199.273 94.752 198.327 93.143 197.12 91.802 C 196.869 91.522 197.044 91.09 197.423 91.071 C 197.971 91.047 198.522 91.034 199.071 91.034 C 201.394 91.034 203.711 91.262 205.99 91.731 C 217.598 94.126 227.068 102.408 233.702 111.899 C 240.928 122.237 244.619 134.283 246.976 146.562 C 249.644 160.459 250.358 174.713 249.473 188.826 C 248.579 203.066 246.072 217.221 241.992 230.893 C 238.246 243.448 233.139 255.532 226.551 266.859 C 223.385 272.303 219.882 277.596 215.735 282.349 C 211.84 286.813 207.265 290.92 201.837 293.416 C 199.678 294.409 197.545 295.077 195.243 295.077 C 194.71 295.077 194.169 295.041 193.616 294.966 C 190.91 294.596 188.398 293.488 185.779 292.773 C 184.416 292.401 183.104 292.219 181.803 292.219 C 180.155 292.219 178.524 292.511 176.83 293.078 C 173.984 294.033 171.34 295.466 168.753 296.968 C 163.879 299.802 159.027 302.808 153.296 303.416 C 152.608 303.488 151.93 303.523 151.261 303.523 C 145.18 303.523 139.764 300.713 134.096 298.617 C 131.409 297.625 128.58 296.803 125.707 296.803 C 125.13 296.803 124.55 296.836 123.969 296.908 C 121.085 297.265 118.7 298.525 116.425 300.273 C 114.56 301.707 112.749 303.238 110.489 304.012 C 109.191 304.458 107.815 304.615 106.426 304.615 C 106.31 304.615 106.194 304.614 106.079 304.612 C 108.53 305.249 111.016 305.738 113.527 306.019 M 121.075 288.776 C 121.755 288.776 122.436 288.807 123.118 288.874 C 126.116 289.17 129.032 290.077 131.894 290.974 C 136.529 292.426 141.165 293.347 145.984 293.347 C 146.687 293.347 147.394 293.328 148.107 293.287 C 158.795 292.677 168.943 288.003 177.029 281.105 C 181.126 277.611 184.722 273.523 187.668 269.015 C 190.694 264.387 192.784 259.392 194.494 254.153 C 198.326 242.416 200.514 230.15 201.509 217.855 C 202.549 205.014 202.265 192.044 200.547 179.274 C 198.975 167.603 196.244 155.906 191.508 145.09 C 186.992 134.78 179.869 125.029 168.82 121.259 C 162.498 119.102 155.723 118.885 149.111 118.609 C 142.942 118.352 136.534 118.192 130.685 115.994 C 126.824 114.543 123.971 111.959 121.79 108.496 C 120.545 106.518 119.481 104.429 118.408 102.354 C 117.207 100.031 116.036 97.759 114.056 95.993 C 109.721 92.125 103.547 90.552 97.88 90.209 C 97.041 90.158 96.201 90.135 95.361 90.135 C 89.811 90.135 84.266 91.2 78.953 92.73 C 74.47 94.023 70.108 95.673 66.016 97.794 C 65.268 97.871 64.527 98.143 63.843 98.477 C 62.956 98.737 62.109 99.172 61.409 99.684 C 60.713 100.195 60.011 100.839 59.659 101.648 C 56.757 103.7 54.065 106.068 51.651 108.8 C 51.175 109.338 50.718 109.89 50.269 110.449 C 48.316 112.246 46.478 114.159 44.793 116.195 C 37.308 125.228 32.722 136.596 30.625 148.062 C 28.423 160.106 28.822 172.511 30.771 184.559 C 32.72 196.602 36.231 208.395 40.867 219.672 C 45.319 230.499 50.939 240.838 57.796 250.334 C 64.793 260.027 73.02 268.787 82.145 276.501 C 86.857 280.486 91.733 284.542 97.262 287.35 C 99.904 288.69 102.723 289.722 105.664 290.153 C 106.574 290.286 107.465 290.345 108.346 290.345 C 110.491 290.345 112.578 289.997 114.744 289.53 C 115.327 289.404 115.912 289.29 116.499 289.191 C 116.554 289.32 116.617 289.446 116.682 289.57 C 116.827 289.841 117.016 290.083 117.178 290.344 C 117.255 290.468 117.422 290.565 117.557 290.606 C 117.64 290.631 117.724 290.642 117.809 290.642 C 117.948 290.642 118.088 290.613 118.219 290.571 C 118.617 290.44 119.046 290.11 119.168 289.689 C 119.247 289.415 119.281 289.131 119.288 288.845 C 119.882 288.8 120.478 288.776 121.075 288.776 M 191.951 276.332 L 191.91 276.523 C 191.897 276.633 191.937 276.777 191.999 276.867 C 192.091 276.997 192.237 277.061 192.388 277.084 C 192.428 277.089 192.467 277.091 192.505 277.091 C 192.606 277.091 192.702 277.074 192.802 277.042 C 192.978 276.984 193.189 276.878 193.305 276.73 C 193.536 276.433 193.773 276.145 193.971 275.825 C 194.178 275.492 194.354 275.138 194.509 274.778 C 194.59 274.587 194.578 274.268 194.444 274.1 C 194.33 273.956 194.179 273.89 194.014 273.85 L 193.879 273.731 C 193.821 273.704 193.756 273.692 193.692 273.692 C 193.546 273.692 193.393 273.754 193.277 273.846 C 193.171 273.867 193.063 273.887 192.961 273.933 C 192.463 274.148 192 274.662 192.05 275.234 C 192.061 275.352 192.101 275.461 192.154 275.564 C 192.064 275.81 191.996 276.065 191.952 276.326 L 191.949 276.333 L 191.951 276.332 M 203.662 124.256 C 203.508 124.256 203.356 124.261 203.204 124.271 C 201.063 124.413 198.985 125.367 197.14 126.406 C 196.46 126.789 195.764 127.216 195.089 127.686 C 194.301 128.055 193.599 128.658 193.021 129.404 C 192.444 129.989 191.929 130.625 191.537 131.331 C 191.037 132.228 190.68 133.332 191.02 134.349 C 191.1 134.587 191.213 134.799 191.342 134.993 C 191.386 135.423 191.474 135.836 191.613 136.223 C 192.44 138.517 194.79 140.135 197.099 140.653 C 197.993 140.853 198.899 140.946 199.805 140.946 C 201.567 140.946 203.328 140.597 204.991 140.012 C 207.447 139.151 209.768 137.648 211.309 135.523 C 213.211 132.901 213.15 129.684 210.819 127.373 C 209.058 125.625 206.226 124.256 203.662 124.256 M 215.66 115.879 C 215.417 115.879 215.174 115.906 214.934 115.954 L 214.677 116.022 C 214.563 116.053 214.449 116.08 214.335 116.12 C 213.647 116.367 212.773 117.449 213.326 118.193 C 213.68 118.67 214.161 119.071 214.699 119.334 C 215.349 120.237 216.188 121.04 217.128 121.62 C 217.684 121.962 218.296 122.248 218.957 122.276 C 218.976 122.277 218.993 122.277 219.011 122.277 C 219.838 122.277 220.682 121.477 220.547 120.635 C 220.394 119.668 219.839 118.746 219.229 117.998 C 218.535 117.146 217.651 116.343 216.578 116.016 C 216.272 115.921 215.966 115.879 215.66 115.879 Z  M 181.519 121.006 L 181.563 121.077 L 181.782 121.21 C 181.843 121.229 181.911 121.236 181.98 121.236 C 182.117 121.236 182.26 121.204 182.372 121.15 C 182.573 121.055 182.77 120.912 182.882 120.715 C 182.973 120.554 183.042 120.365 182.991 120.178 L 182.947 119.928 L 182.918 119.815 L 183.101 119.781 C 183.277 119.724 183.455 119.625 183.579 119.486 C 183.67 119.381 183.748 119.265 183.798 119.134 C 183.864 118.96 183.838 118.785 183.75 118.627 C 183.668 118.479 183.552 118.313 183.399 118.241 C 183.225 118.159 183.052 118.083 182.871 118.02 C 182.61 117.928 182.334 117.896 182.07 117.819 C 181.997 117.798 181.925 117.789 181.852 117.789 C 181.733 117.789 181.615 117.813 181.503 117.849 C 181.298 117.915 181.089 118.033 180.944 118.195 C 180.698 118.472 180.538 118.855 180.744 119.2 L 180.792 119.294 C 180.899 119.539 180.988 119.793 181.077 120.044 C 181.128 120.191 181.18 120.337 181.236 120.481 C 181.282 120.602 181.326 120.724 181.392 120.834 L 181.503 121.017 L 181.519 121.006 M 190.061 111.652 C 190.006 111.652 189.951 111.658 189.896 111.67 C 189.76 111.7 189.636 111.756 189.523 111.836 C 189.409 111.915 189.314 112.014 189.239 112.13 L 189.19 112.215 L 189.054 112.484 C 189.023 112.589 189.015 112.633 189.013 112.716 L 189.011 112.769 L 189.009 112.868 L 189.062 113.135 L 189.229 113.344 L 189.495 113.437 C 189.542 113.448 189.59 113.453 189.637 113.453 C 189.693 113.453 189.749 113.446 189.807 113.431 L 190.025 113.359 C 190.177 113.291 190.311 113.198 190.426 113.078 L 190.569 112.896 C 190.644 112.778 190.688 112.649 190.701 112.509 L 190.698 112.412 L 190.696 112.362 L 190.68 112.138 L 190.64 112.05 L 190.599 111.963 L 190.586 111.948 L 190.558 111.916 L 190.506 111.853 C 190.441 111.765 190.355 111.707 190.25 111.677 C 190.187 111.66 190.123 111.652 190.061 111.652 M 218.741 105.138 C 218.642 105.138 218.548 105.158 218.457 105.193 C 218.344 105.224 218.239 105.274 218.144 105.345 C 218.016 105.435 217.91 105.545 217.826 105.676 L 217.656 105.911 L 217.544 106.143 L 217.495 106.377 L 217.515 106.601 L 217.605 106.8 L 217.762 106.954 L 217.965 107.048 L 218.202 107.082 C 218.214 107.082 218.226 107.082 218.239 107.082 C 218.361 107.082 218.479 107.059 218.591 107.014 L 218.853 106.898 L 219.095 106.728 L 219.292 106.522 L 219.435 106.295 L 219.515 106.062 L 219.529 105.833 L 219.474 105.622 C 219.439 105.516 219.372 105.431 219.272 105.37 L 219.122 105.242 C 219.015 105.174 218.898 105.139 218.77 105.139 C 218.76 105.138 218.75 105.138 218.741 105.138 M 133.628 95.304 C 131.492 95.037 129.358 94.743 127.223 94.426 C 127.208 94.424 127.193 94.422 127.178 94.42 C 127.193 94.422 127.208 94.424 127.223 94.426 C 129.358 94.743 131.492 95.037 133.628 95.304 L 133.628 95.304 Z " fill="rgb(193,13,12)"/><path d=" M 156.401 111.212 C 155.982 111.212 155.563 111.207 155.146 111.194 C 151.004 111.069 146.776 110.392 142.775 109.333 C 139.938 108.582 137.177 107.555 134.502 106.344 C 134.946 106.474 135.392 106.6 135.838 106.722 C 141.022 108.133 146.369 108.962 151.705 109.535 C 153.394 109.716 155.09 109.889 156.786 109.981 C 157.247 110.006 157.711 110.016 158.175 110.016 C 159.166 110.016 160.163 109.97 161.151 109.926 C 161.727 109.94 162.302 109.951 162.878 109.96 C 163.963 109.977 165.047 109.996 166.127 109.996 C 167.001 109.996 167.874 109.983 168.747 109.946 C 167.808 110.129 166.867 110.277 165.939 110.411 C 162.804 110.865 159.582 111.212 156.401 111.212" fill="rgb(111,5,4)"/><path d=" M 113.648 306.033 C 113.632 306.031 113.615 306.028 113.597 306.026 C 113.585 306.025 113.573 306.024 113.56 306.023 C 113.573 306.024 113.585 306.025 113.597 306.026 C 113.615 306.028 113.632 306.031 113.648 306.033 L 113.648 306.033 Z  M 113.548 306.021 C 113.541 306.021 113.534 306.02 113.527 306.019 C 113.533 306.02 113.541 306.021 113.548 306.021 Z " fill="rgb(90,4,3)"/><path d=" M 150.151 308.749 C 150.149 308.749 150.148 308.749 150.148 308.749 C 150.148 308.749 150.149 308.749 150.151 308.749 L 150.151 308.749 Z  M 150.153 308.749 C 152.505 308.749 154.958 308.632 156.311 308.312 C 154.958 308.632 152.506 308.749 150.153 308.749 Z  M 144.271 308.419 C 144.269 308.418 144.267 308.418 144.265 308.417 C 144.267 308.418 144.269 308.418 144.271 308.419 Z  M 144.261 308.416 C 144.258 308.415 144.254 308.414 144.251 308.413 C 144.254 308.414 144.258 308.415 144.261 308.416 Z  M 144.24 308.41 C 144.238 308.41 144.235 308.409 144.233 308.409 C 142.521 308.257 140.787 308.259 139.135 307.748 C 134.959 306.458 131.85 302.987 127.618 301.861 L 127.618 301.861 L 127.618 301.861 C 131.85 302.987 134.959 306.458 139.135 307.748 C 140.787 308.259 142.521 308.257 144.233 308.409 C 144.235 308.409 144.238 308.41 144.24 308.41 Z  M 156.348 308.303 C 156.349 308.303 156.351 308.303 156.352 308.302 C 156.351 308.303 156.349 308.303 156.348 308.303 Z  M 156.379 308.295 C 156.383 308.295 156.386 308.294 156.389 308.293 C 156.684 308.22 156.974 308.129 157.268 308.048 C 159.253 307.904 161.213 307.515 163.079 306.749 C 164.616 306.12 166.055 305.29 167.498 304.473 C 168.1 304.245 168.702 304.02 169.307 303.802 C 170.726 303.291 172.168 302.749 173.639 302.412 C 173.66 302.408 173.68 302.403 173.702 302.399 C 173.68 302.403 173.66 302.408 173.639 302.412 C 172.168 302.749 170.726 303.291 169.307 303.802 C 168.702 304.02 168.1 304.245 167.498 304.473 C 166.055 305.29 164.616 306.12 163.079 306.749 C 161.213 307.515 159.253 307.904 157.268 308.048 C 156.974 308.129 156.684 308.22 156.389 308.293 C 156.386 308.294 156.383 308.295 156.379 308.295 Z  M 185.346 306.183 C 185.345 306.183 185.344 306.183 185.342 306.183 C 185.344 306.183 185.345 306.183 185.346 306.183 L 185.346 306.183 Z  M 116.331 306.183 C 116.33 306.183 116.33 306.183 116.329 306.183 C 116.33 306.183 116.33 306.183 116.331 306.183 L 116.331 306.183 Z  M 185.347 306.183 C 186.21 306.183 187.083 306.133 187.966 306.039 C 187.083 306.133 186.211 306.183 185.347 306.183 Z  M 116.334 306.183 C 118.865 306.181 121.32 305.756 123.734 304.758 C 121.32 305.756 118.866 306.181 116.334 306.183 Z  M 187.978 306.038 C 187.995 306.036 188.012 306.034 188.028 306.033 C 188.012 306.034 187.995 306.036 187.978 306.038 Z  M 113.648 306.033 C 113.632 306.031 113.615 306.028 113.597 306.026 C 113.585 306.025 113.573 306.024 113.56 306.023 L 113.56 306.023 C 113.573 306.024 113.585 306.025 113.597 306.026 C 113.615 306.028 113.632 306.031 113.648 306.033 Z  M 177.908 304.745 C 177.861 304.725 177.815 304.706 177.768 304.685 C 176.759 304.257 175.753 303.773 174.708 303.421 L 174.708 303.421 C 175.753 303.773 176.759 304.257 177.768 304.685 C 177.815 304.706 177.861 304.725 177.908 304.745 Z  M 174.708 303.421 C 174.723 303.416 174.737 303.413 174.752 303.41 C 174.737 303.413 174.723 303.416 174.708 303.421 Z  M 126.935 303.412 C 126.913 303.407 126.89 303.401 126.867 303.396 C 126.89 303.401 126.913 303.407 126.935 303.412 Z  M 174.778 303.403 C 175.908 303.136 177.027 303.045 178.151 303.045 C 177.027 303.045 175.908 303.136 174.778 303.403 Z  M 119.986 303.24 C 120.006 303.237 120.026 303.235 120.047 303.234 C 120.026 303.235 120.006 303.237 119.986 303.24 Z  M 120.07 303.232 C 120.075 303.232 120.079 303.231 120.084 303.231 C 120.079 303.231 120.075 303.232 120.07 303.232 Z  M 120.124 303.228 C 121.268 303.133 122.389 303.043 123.505 303.043 C 122.389 303.043 121.268 303.133 120.124 303.228 Z  M 180.889 303.177 C 180.877 303.176 180.867 303.175 180.855 303.174 C 180.867 303.175 180.877 303.176 180.889 303.177 Z  M 178.155 303.045 C 178.155 303.045 178.154 303.045 178.153 303.045 L 178.153 303.045 C 178.154 303.045 178.155 303.045 178.155 303.045 Z  M 123.509 303.043 C 123.508 303.043 123.508 303.043 123.507 303.043 L 123.507 303.043 C 123.508 303.043 123.508 303.043 123.509 303.043 Z  M 173.714 302.395 C 174.64 302.188 175.649 302.047 176.647 302.047 C 175.649 302.047 174.64 302.188 173.714 302.395 Z  M 176.649 302.047 L 176.649 302.047 L 176.649 302.047 L 176.649 302.047 Z  M 122.546 301.871 C 123.419 301.669 124.304 301.549 125.199 301.549 C 124.304 301.549 123.419 301.669 122.546 301.871 Z  M 127.583 301.852 C 127.58 301.851 127.578 301.851 127.576 301.85 C 127.578 301.851 127.58 301.851 127.583 301.852 Z  M 125.204 301.549 C 125.203 301.549 125.202 301.549 125.202 301.549 L 125.202 301.549 C 125.202 301.549 125.203 301.549 125.204 301.549 Z  M 194.563 89.911 C 200.043 88.875 205.566 88.264 211.089 88.264 C 205.566 88.265 200.042 88.875 194.563 89.911 Z  M 211.094 88.264 C 211.094 88.264 211.093 88.264 211.092 88.264 L 211.092 88.264 C 211.093 88.264 211.094 88.264 211.094 88.264 Z " fill="rgb(78,1,1)"/><path d=" M 150.151 308.749 C 150.149 308.749 150.148 308.749 150.148 308.749 C 147.467 308.749 144.917 308.597 144.271 308.419 C 144.269 308.418 144.267 308.418 144.265 308.417 C 144.263 308.417 144.262 308.417 144.261 308.416 C 144.258 308.415 144.254 308.414 144.251 308.413 C 144.247 308.412 144.244 308.411 144.24 308.41 C 144.238 308.41 144.235 308.409 144.233 308.409 C 142.521 308.257 140.787 308.259 139.135 307.748 C 134.959 306.458 131.85 302.987 127.618 301.861 L 127.618 301.861 C 127.606 301.857 127.594 301.855 127.583 301.852 C 127.58 301.851 127.578 301.851 127.576 301.85 C 126.777 301.641 125.987 301.549 125.204 301.549 C 125.203 301.549 125.202 301.549 125.202 301.549 L 125.202 301.549 L 125.202 301.549 C 125.201 301.549 125.2 301.549 125.199 301.549 C 124.304 301.549 123.419 301.669 122.546 301.871 C 122.507 301.879 122.468 301.889 122.429 301.897 L 122.429 301.897 C 121.544 302.24 120.717 302.723 119.91 303.245 L 119.91 303.245 L 119.91 303.245 L 119.91 303.245 L 119.91 303.245 C 119.935 303.243 119.961 303.242 119.986 303.24 C 120.006 303.237 120.026 303.235 120.047 303.234 C 120.054 303.233 120.062 303.233 120.07 303.232 C 120.075 303.232 120.079 303.231 120.084 303.231 C 120.097 303.23 120.111 303.229 120.124 303.228 C 121.268 303.133 122.389 303.043 123.505 303.043 C 123.506 303.043 123.506 303.043 123.507 303.043 C 123.508 303.043 123.508 303.043 123.509 303.043 C 124.628 303.043 125.743 303.134 126.867 303.396 C 126.89 303.401 126.913 303.407 126.935 303.412 C 126.947 303.415 126.958 303.417 126.969 303.421 C 125.923 303.773 124.917 304.257 123.908 304.685 L 123.908 304.685 C 123.85 304.71 123.792 304.735 123.734 304.758 C 121.32 305.756 118.865 306.181 116.334 306.183 C 116.333 306.183 116.332 306.183 116.331 306.183 C 116.33 306.183 116.33 306.183 116.329 306.183 C 115.446 306.183 114.552 306.13 113.648 306.033 C 113.632 306.031 113.615 306.028 113.597 306.026 C 113.585 306.025 113.573 306.024 113.56 306.023 C 113.556 306.022 113.552 306.022 113.548 306.021 C 113.541 306.021 113.533 306.02 113.527 306.019 C 111.016 305.738 108.53 305.249 106.079 304.612 C 106.194 304.614 106.31 304.615 106.426 304.615 C 107.815 304.615 109.191 304.458 110.489 304.012 C 112.749 303.238 114.56 301.707 116.425 300.273 C 118.7 298.525 121.085 297.265 123.969 296.908 C 124.55 296.836 125.13 296.803 125.707 296.803 C 128.58 296.803 131.409 297.625 134.096 298.617 C 139.764 300.713 145.18 303.523 151.261 303.523 C 151.93 303.523 152.608 303.488 153.296 303.416 C 159.027 302.808 163.879 299.802 168.753 296.968 C 171.34 295.466 173.984 294.033 176.83 293.078 C 178.524 292.511 180.155 292.219 181.803 292.219 C 183.104 292.219 184.416 292.401 185.779 292.773 C 188.398 293.488 190.91 294.596 193.616 294.966 C 194.169 295.041 194.71 295.077 195.243 295.077 C 197.545 295.077 199.678 294.409 201.837 293.416 C 207.265 290.92 211.84 286.813 215.735 282.349 C 219.882 277.596 223.385 272.303 226.551 266.859 C 233.139 255.532 238.246 243.448 241.992 230.893 C 246.072 217.221 248.579 203.066 249.473 188.826 C 250.358 174.713 249.644 160.459 246.976 146.562 C 244.619 134.283 240.928 122.237 233.702 111.899 C 227.068 102.408 217.598 94.126 205.99 91.731 C 203.711 91.262 201.394 91.034 199.071 91.034 C 198.522 91.034 197.971 91.047 197.423 91.071 C 197.044 91.09 196.869 91.522 197.12 91.802 C 198.327 93.143 199.273 94.752 199.349 96.433 C 199.25 96.534 199.166 96.65 199.128 96.784 C 199.077 96.957 199.074 97.127 199.176 97.287 C 199.208 97.338 199.248 97.38 199.292 97.413 C 199.201 97.96 199.008 98.512 198.694 99.059 C 197.253 101.565 194.393 103.128 191.868 104.318 C 185.685 107.231 178.686 108.808 171.932 109.683 C 170.87 109.82 169.809 109.901 168.747 109.946 C 170.621 109.583 172.486 109.088 174.216 108.316 C 175.967 107.887 177.686 107.345 179.348 106.654 C 182.183 105.475 185.16 103.786 186.922 101.183 C 187.73 99.989 188.159 98.579 187.418 97.303 C 186.627 95.942 185.046 95.128 183.652 94.532 C 181.827 93.752 179.882 93.253 177.938 92.852 C 174.316 93.624 170.708 94.458 167.056 95.098 C 171.182 94.375 175.25 93.399 179.347 92.554 C 181.011 91.992 182.729 91.595 184.456 91.279 C 186.475 90.91 188.514 90.649 190.551 90.408 C 191.889 90.25 193.226 90.078 194.563 89.911 L 194.563 89.911 C 200.042 88.875 205.566 88.265 211.089 88.264 C 211.09 88.264 211.091 88.264 211.092 88.264 C 211.093 88.264 211.094 88.264 211.094 88.264 C 216.508 88.264 221.923 88.852 227.297 90.201 C 237.854 92.852 247.668 98.195 255.623 105.626 C 264.079 113.525 270.195 123.47 274.035 134.348 C 278.388 146.679 280.132 159.814 280.135 172.856 C 280.135 173.09 280.134 173.323 280.133 173.557 C 280.072 186.968 278.194 200.373 274.83 213.349 C 271.686 225.469 267.195 237.341 261.454 248.472 C 256.018 259.01 249.228 268.86 240.862 277.29 C 231.691 286.53 220.593 294.068 208.86 299.668 C 202.332 302.786 195.301 305.232 188.08 306.026 L 188.08 306.026 C 188.062 306.028 188.045 306.031 188.028 306.033 C 188.012 306.034 187.995 306.036 187.978 306.038 C 187.975 306.038 187.971 306.038 187.966 306.039 C 187.083 306.133 186.21 306.183 185.347 306.183 L 185.346 306.183 C 185.345 306.183 185.344 306.183 185.342 306.183 C 182.799 306.181 180.333 305.751 177.908 304.745 C 177.861 304.725 177.815 304.706 177.768 304.685 C 176.759 304.257 175.753 303.773 174.708 303.421 L 174.708 303.421 C 174.723 303.416 174.737 303.413 174.752 303.41 C 174.761 303.408 174.769 303.405 174.778 303.403 C 175.908 303.136 177.027 303.045 178.151 303.045 C 178.152 303.045 178.153 303.045 178.153 303.045 C 178.154 303.045 178.155 303.045 178.155 303.045 C 179.049 303.045 179.946 303.103 180.855 303.174 C 180.867 303.175 180.877 303.176 180.889 303.177 L 180.889 303.177 L 180.889 303.177 L 180.889 303.177 L 180.889 303.177 L 180.889 303.177 L 180.889 303.177 C 180.306 302.879 179.718 302.593 179.093 302.392 L 179.093 302.392 C 178.323 302.148 177.49 302.047 176.649 302.047 L 176.649 302.047 L 176.649 302.047 L 176.649 302.047 C 176.648 302.047 176.647 302.047 176.647 302.047 C 175.649 302.047 174.64 302.188 173.714 302.395 C 173.71 302.397 173.705 302.398 173.702 302.399 C 173.68 302.403 173.66 302.408 173.639 302.412 C 172.168 302.749 170.726 303.291 169.307 303.802 C 168.702 304.02 168.1 304.245 167.498 304.473 C 166.055 305.29 164.616 306.12 163.079 306.749 C 161.213 307.515 159.253 307.904 157.268 308.048 C 156.974 308.129 156.684 308.22 156.389 308.293 C 156.386 308.294 156.383 308.295 156.379 308.295 C 156.37 308.297 156.361 308.3 156.352 308.302 C 156.351 308.303 156.349 308.303 156.348 308.303 C 156.336 308.306 156.324 308.31 156.311 308.312 C 154.958 308.632 152.505 308.749 150.153 308.749 C 150.152 308.749 150.152 308.749 150.151 308.749 M 256.527 241.315 C 255.651 241.315 254.829 242.875 255.994 242.875 C 256.87 242.875 257.692 241.315 256.527 241.315 Z  M 259.323 205.612 C 258.967 205.612 258.608 205.858 258.424 206.141 C 256.852 208.558 256.723 212.074 258.586 214.377 C 258.757 214.588 258.991 214.675 259.238 214.675 C 259.71 214.675 260.228 214.357 260.442 213.972 C 261.671 211.743 261.924 209.112 260.67 206.833 C 260.525 206.568 260.198 206.481 259.896 206.481 C 259.861 206.481 259.826 206.483 259.793 206.485 C 259.95 206.168 259.923 205.762 259.531 205.642 C 259.463 205.622 259.393 205.612 259.323 205.612 M 267.854 196.418 C 267.792 196.418 267.728 196.426 267.664 196.442 C 267.411 196.504 267.159 196.631 266.984 196.829 L 266.829 197.029 C 266.745 197.158 266.696 197.3 266.682 197.454 C 266.695 197.643 266.707 197.834 266.72 198.025 L 266.738 198.305 C 266.746 198.425 266.753 198.494 266.78 198.597 L 266.817 198.74 L 266.89 198.898 L 267.094 199.057 L 267.268 199.108 C 267.313 199.118 267.358 199.123 267.403 199.123 C 267.457 199.123 267.511 199.116 267.566 199.102 C 267.714 199.065 267.853 199 267.98 198.917 C 268.079 198.854 268.161 198.773 268.227 198.677 C 268.298 198.598 268.35 198.508 268.383 198.405 L 268.417 198.259 C 268.44 198.155 268.478 198.035 268.486 197.934 L 268.504 197.646 C 268.516 197.451 268.529 197.255 268.541 197.059 C 268.554 196.858 268.466 196.653 268.299 196.536 C 268.21 196.474 268.113 196.439 268.006 196.434 C 267.955 196.423 267.905 196.418 267.854 196.418 M 242.053 108.578 C 241.835 108.578 241.618 108.662 241.441 108.786 C 241.239 108.928 240.97 109.222 240.992 109.496 C 241.021 109.852 241.05 110.174 241.157 110.512 C 241.25 110.811 241.348 111.107 241.455 111.401 C 241.684 112.02 242.015 112.626 242.363 113.189 C 243.028 114.263 243.927 115.255 245.058 115.844 C 245.25 115.943 245.455 115.989 245.659 115.989 C 246.316 115.99 246.972 115.519 247.196 114.886 C 247.645 113.62 247.168 112.205 246.621 111.052 C 246.082 109.918 245.247 108.802 244.051 108.322 C 243.923 108.27 243.787 108.247 243.649 108.247 C 243.255 108.247 242.837 108.438 242.5 108.712 L 242.262 108.606 C 242.193 108.587 242.123 108.578 242.053 108.578" fill="rgb(136,2,2)"/><path d=" M 166.127 109.996 C 165.047 109.996 163.963 109.977 162.878 109.96 C 162.302 109.951 161.727 109.94 161.151 109.926 C 161.388 109.915 161.624 109.904 161.86 109.895 C 163.826 109.812 165.79 109.67 167.745 109.443 C 169.912 109.192 172.086 108.838 174.216 108.316 C 172.486 109.088 170.621 109.583 168.747 109.946 C 167.874 109.983 167.001 109.996 166.127 109.996" fill="rgb(78,1,1)"/><path d=" M 146.419 96.198 C 146.413 96.198 146.407 96.197 146.4 96.197 C 146.407 96.197 146.413 96.198 146.419 96.198 Z " fill="rgb(90,4,3)"/><path d=" M 146.38 96.196 C 143.786 96.114 141.196 95.95 138.616 95.699 C 138.622 95.696 138.63 95.694 138.636 95.691 C 141.21 95.942 143.792 96.114 146.38 96.196" fill="rgb(90,4,3)"/><path d=" M 166.976 95.112 C 166.984 95.111 166.99 95.11 166.998 95.109 C 166.99 95.11 166.984 95.111 166.976 95.112 Z " fill="rgb(136,2,2)"/><path d=" M 127.178 94.42 C 126.975 94.389 126.773 94.359 126.57 94.329 C 126.573 94.328 126.575 94.327 126.579 94.325 C 126.778 94.356 126.978 94.389 127.178 94.42" fill="rgb(88,4,3)"/><path d=" M 134.502 106.344 C 132.458 105.74 130.439 105.019 128.542 104.05 C 126.814 103.168 125 102.032 123.963 100.338 C 123.224 99.13 122.895 97.354 123.707 96.189 C 124.339 95.282 125.456 94.724 126.57 94.329 C 126.773 94.359 126.975 94.389 127.178 94.42 C 127.193 94.422 127.208 94.424 127.223 94.426 C 129.358 94.743 131.492 95.037 133.628 95.304 L 133.628 95.304 L 133.628 95.304 L 133.628 95.304 L 133.628 95.304 C 133.192 95.17 132.756 95.042 132.32 94.908 C 134.411 95.231 136.51 95.494 138.616 95.699 C 137.671 96.058 136.751 96.466 135.878 96.955 C 133.782 98.129 132.08 99.995 133.736 102.318 C 134.149 102.899 134.629 103.425 135.16 103.903 C 135.052 103.858 134.945 103.814 134.837 103.767 C 131.567 102.385 127.664 101.453 124.983 99.026 C 124.918 98.968 124.838 98.943 124.75 98.943 C 124.354 98.943 123.821 99.464 124.102 99.783 C 126.262 102.233 129.132 103.699 132.003 105.147 C 132.827 105.562 133.66 105.962 134.502 106.344" fill="rgb(133,2,2)"/><path d=" M 158.175 110.016 C 157.711 110.016 157.247 110.006 156.786 109.981 C 155.09 109.889 153.394 109.716 151.705 109.535 C 146.369 108.962 141.022 108.133 135.838 106.722 C 135.392 106.6 134.946 106.474 134.502 106.344 C 133.66 105.962 132.827 105.562 132.003 105.147 C 129.132 103.699 126.262 102.233 124.102 99.783 C 123.821 99.464 124.354 98.943 124.75 98.943 C 124.838 98.943 124.918 98.968 124.983 99.026 C 127.664 101.453 131.567 102.385 134.837 103.767 C 134.945 103.814 135.052 103.858 135.16 103.903 C 138.027 106.484 142.383 107.65 145.942 108.405 C 150.931 109.463 156.056 109.803 161.151 109.926 C 160.163 109.97 159.166 110.016 158.175 110.016" fill="rgb(77,1,1)"/><path d=" M 146.636 96.205 C 146.564 96.203 146.492 96.201 146.419 96.198 C 146.492 96.201 146.564 96.203 146.636 96.205 Z  M 146.4 96.197 C 146.393 96.197 146.386 96.196 146.38 96.196 C 146.386 96.196 146.393 96.197 146.4 96.197 Z " fill="rgb(133,2,2)"/><path d=" M 166.903 95.125 C 166.928 95.12 166.951 95.116 166.976 95.112 C 166.951 95.116 166.928 95.12 166.903 95.125 Z " fill="rgb(88,4,3)"/><path d=" M 166.998 95.109 C 167.017 95.105 167.037 95.101 167.056 95.098 C 167.037 95.101 167.017 95.105 166.998 95.109 Z " fill="rgb(88,4,3)"/><path d=" M 151.653 96.282 L 151.652 96.282 L 151.653 96.282 L 151.653 96.282 Z  M 151.656 96.282 C 152.888 96.282 154.119 96.267 155.349 96.234 L 155.349 96.234 C 154.119 96.267 152.888 96.282 151.656 96.282 Z  M 160.34 95.99 L 160.34 95.99 C 160.851 95.954 161.361 95.913 161.87 95.869 C 161.361 95.913 160.851 95.954 160.34 95.99 Z " fill="rgb(54,0,0)"/><path d=" M 160.427 108.92 C 159.452 108.92 158.477 108.9 157.508 108.853 C 158.738 107.394 159.068 105.092 159.363 103.328 C 159.769 100.901 160.037 98.436 160.34 95.99 C 160.851 95.954 161.361 95.913 161.87 95.869 C 161.952 95.861 162.032 95.853 162.114 95.847 C 163.715 95.643 165.312 95.402 166.903 95.125 L 166.903 95.125 C 166.928 95.12 166.951 95.116 166.976 95.112 C 166.984 95.111 166.99 95.11 166.998 95.109 C 167.017 95.105 167.037 95.101 167.056 95.098 C 170.708 94.458 174.316 93.624 177.938 92.852 C 179.882 93.253 181.827 93.752 183.652 94.532 C 185.046 95.128 186.627 95.942 187.418 97.303 C 188.159 98.579 187.73 99.989 186.922 101.183 C 185.16 103.786 182.183 105.475 179.348 106.654 C 177.686 107.345 175.967 107.887 174.216 108.316 C 175.032 107.951 175.819 107.525 176.562 107.023 C 176.799 106.862 176.742 106.546 176.507 106.546 C 176.464 106.546 176.414 106.557 176.36 106.581 C 173.462 107.856 170.263 108.382 167.123 108.632 C 164.906 108.809 162.663 108.92 160.427 108.92 M 173.825 103.77 C 173.731 103.77 173.638 103.779 173.551 103.797 C 173.29 103.85 173.071 103.987 172.851 104.126 C 172.64 104.259 172.459 104.424 172.296 104.61 C 172.144 104.784 172.007 104.999 171.994 105.238 C 171.984 105.428 172.066 105.658 172.237 105.763 L 172.342 105.796 L 172.388 105.903 C 172.498 106.048 172.656 106.167 172.839 106.205 C 172.93 106.224 173.024 106.235 173.118 106.235 C 173.191 106.235 173.263 106.228 173.337 106.213 C 173.577 106.164 173.794 106.041 173.978 105.881 L 174.081 105.774 C 174.252 105.663 174.407 105.536 174.535 105.372 L 174.636 105.224 L 174.784 105.202 C 175.034 105.159 175.275 104.939 175.327 104.692 C 175.372 104.472 175.222 104.27 174.988 104.27 C 174.985 104.27 174.981 104.27 174.976 104.27 L 174.771 104.27 C 174.674 104.059 174.492 103.906 174.267 103.836 C 174.128 103.793 173.976 103.77 173.825 103.77 M 153.553 108.582 C 150.796 108.334 148.061 107.945 145.352 107.306 C 141.869 106.484 138.46 105.283 135.16 103.903 C 134.629 103.425 134.149 102.899 133.736 102.318 C 132.08 99.995 133.782 98.129 135.878 96.955 C 136.751 96.466 137.671 96.058 138.616 95.699 C 141.196 95.95 143.786 96.114 146.38 96.196 C 146.386 96.196 146.393 96.197 146.4 96.197 C 146.407 96.197 146.413 96.198 146.419 96.198 C 146.492 96.201 146.564 96.203 146.636 96.205 L 146.636 96.205 C 148.305 96.254 149.978 96.282 151.652 96.282 L 151.653 96.282 L 151.653 96.282 L 151.653 96.282 C 151.654 96.282 151.655 96.282 151.656 96.282 C 152.888 96.282 154.119 96.267 155.349 96.234 C 155.315 96.838 155.271 97.44 155.213 98.04 C 154.873 101.59 153.91 105.038 153.553 108.582" fill="rgb(94,0,0)"/><path d=" M 161.151 109.926 C 156.056 109.803 150.931 109.463 145.942 108.405 C 142.383 107.65 138.027 106.484 135.16 103.903 C 138.46 105.283 141.869 106.484 145.352 107.306 C 148.061 107.945 150.796 108.334 153.553 108.582 C 153.553 108.583 153.552 108.583 153.552 108.584 C 154.004 108.665 154.459 108.738 154.915 108.797 L 154.915 108.797 C 155.212 108.838 155.509 108.875 155.807 108.903 C 155.808 108.902 155.808 108.9 155.809 108.897 C 156.324 108.945 156.841 108.971 157.356 108.971 C 157.372 108.971 157.388 108.971 157.404 108.971 L 157.404 108.971 C 157.44 108.932 157.475 108.893 157.508 108.853 C 158.477 108.9 159.452 108.92 160.427 108.92 C 162.663 108.92 164.906 108.809 167.123 108.632 C 170.263 108.382 173.462 107.856 176.36 106.581 C 176.414 106.557 176.464 106.546 176.507 106.546 C 176.742 106.546 176.799 106.862 176.562 107.023 C 175.819 107.525 175.032 107.951 174.216 108.316 C 172.086 108.838 169.912 109.192 167.745 109.443 C 165.79 109.67 163.826 109.812 161.86 109.895 C 161.624 109.904 161.388 109.915 161.151 109.926" fill="rgb(54,0,0)"/><path d=" M 155.213 98.04 C 154.872 101.591 153.91 105.039 153.552 108.584 C 154.826 108.811 156.121 108.975 157.404 108.971 C 158.72 107.521 159.059 105.141 159.363 103.328 C 159.812 100.643 160.093 97.914 160.438 95.212 C 161.526 86.706 160.672 78.048 158.887 69.697 C 157.095 61.318 154.361 53.155 151.306 45.161 C 148.544 37.931 144.993 31.046 140.324 24.857 C 137.849 21.576 135.137 18.433 132.167 15.59 C 129.465 13.004 126.278 10.37 122.411 10.065 C 122.318 10.044 122.226 10.02 122.12 10.012 C 120.712 9.888 119.377 10.807 118.429 11.755 C 117.395 12.789 116.419 14.037 115.683 15.3 C 115.587 15.463 115.678 15.557 115.802 15.578 C 115.466 16.005 115.139 16.44 114.823 16.879 C 113.579 18.608 112.467 20.449 111.612 22.404 C 110.993 23.818 110.386 25.469 110.584 27.039 C 110.748 28.333 111.706 29.242 113.027 29.286 C 113.468 29.3 113.885 29.212 114.284 29.069 C 116.531 29.358 118.783 29.496 121.019 30.011 C 123.869 30.669 126.612 31.67 129.09 33.236 C 134.586 36.707 139.086 41.702 142.577 47.145 C 146.203 52.794 148.754 59.196 150.82 65.56 C 152.994 72.26 154.47 79.213 155.082 86.234 C 155.423 90.131 155.587 94.139 155.213 98.04" fill="rgb(90,55,11)"/><path d=" M 112.004 26.525 C 111.809 25.259 112.313 23.883 112.774 22.729 C 113.42 21.106 114.288 19.571 115.239 18.109 C 116.324 16.438 117.537 14.83 118.917 13.391 C 119.613 12.665 120.42 11.79 121.354 11.26 L 121.366 11.258 C 123.182 11.172 121.961 14.419 121.663 15.254 C 120.538 18.409 119.12 21.596 117.339 24.43 C 116.575 25.645 115.444 27.537 113.932 27.918 C 112.936 28.169 112.15 27.473 112.004 26.525" fill="rgb(174,110,50)"/><path d=" M 156.547 87.989 C 156.78 91.606 156.896 95.33 156.431 98.933 C 156.006 102.227 155.107 105.476 154.915 108.797 C 155.212 108.838 155.509 108.875 155.807 108.903 C 155.919 108.546 156.256 108.285 156.597 108.186 C 157.153 107.45 157.37 106.249 157.558 105.458 C 157.917 103.939 158.12 102.381 158.307 100.834 C 158.713 97.465 159.245 94.106 159.399 90.712 C 159.775 82.417 158.495 74.127 156.463 66.102 C 154.484 58.286 151.898 50.508 148.766 43.075 C 145.865 36.187 142.05 29.709 137.365 23.883 C 135.179 21.164 132.842 18.499 130.302 16.104 C 128.325 14.24 126.08 12.363 123.591 11.136 C 123.97 12.322 123.417 14.14 123.089 15.104 C 121.791 18.932 120.046 22.974 117.605 26.203 C 117.191 26.751 116.703 27.344 116.149 27.863 C 118.406 27.795 120.792 28.314 122.847 28.842 C 126.077 29.671 129.015 30.991 131.71 32.955 C 142.737 40.991 148.793 54.146 152.639 66.857 C 154.717 73.731 156.086 80.817 156.547 87.989" fill="rgb(135,84,20)"/><path d=" M 155.613 79.712 C 154.918 75.368 153.913 71.072 152.639 66.857 C 148.793 54.146 142.737 40.991 131.71 32.955 C 129.015 30.991 126.077 29.671 122.847 28.842 C 120.915 28.347 118.691 27.857 116.557 27.857 C 116.42 27.857 116.284 27.86 116.149 27.863 L 116.149 27.863 C 116.284 27.86 116.42 27.857 116.557 27.857 C 118.691 27.857 120.915 28.347 122.847 28.842 C 126.077 29.671 129.015 30.991 131.71 32.955 C 142.737 40.991 148.793 54.146 152.639 66.857 C 153.904 71.044 154.908 75.31 155.602 79.625 C 155.606 79.654 155.61 79.683 155.613 79.712 M 117.971 25.707 C 117.971 25.706 117.972 25.704 117.973 25.702 C 117.972 25.704 117.971 25.706 117.971 25.707 Z  M 117.988 25.682 C 118.787 24.564 119.506 23.358 120.159 22.105 C 120.159 22.108 120.159 22.11 120.159 22.113 C 119.507 23.363 118.786 24.566 117.988 25.682" fill="rgb(177,121,30)"/><path d=" M 155.602 79.625 C 154.908 75.31 153.904 71.044 152.639 66.857 C 148.793 54.146 142.737 40.991 131.71 32.955 C 129.015 30.991 126.077 29.671 122.847 28.842 C 120.915 28.347 118.691 27.857 116.557 27.857 C 116.42 27.857 116.284 27.86 116.149 27.863 C 116.703 27.344 117.191 26.751 117.605 26.203 C 117.729 26.04 117.851 25.874 117.971 25.707 C 117.971 25.706 117.972 25.704 117.973 25.702 C 117.978 25.696 117.983 25.69 117.988 25.682 C 118.786 24.566 119.507 23.363 120.159 22.113 C 120.169 22.849 120.294 23.579 120.625 24.26 C 121.362 25.78 122.993 26.551 124.365 27.387 C 127.676 29.41 131.064 31.351 134.098 33.785 C 137.137 36.224 139.618 39.169 141.855 42.343 C 146.115 48.386 149.346 55.132 151.68 62.138 C 153.571 67.813 154.881 73.685 155.602 79.625" fill="rgb(199,140,38)"/><path d=" M 62.585 104.566 C 61.785 104.566 60.956 104.373 60.319 103.942 C 59.599 103.453 59.287 102.67 59.584 101.835 C 59.607 101.773 59.632 101.709 59.659 101.648 C 61.683 100.216 63.811 98.937 66.016 97.794 C 66.155 97.78 66.295 97.772 66.434 97.772 C 66.553 97.772 66.671 97.778 66.789 97.788 C 67.981 97.905 69.102 98.779 69.093 100.064 C 69.082 101.336 67.981 102.328 67.017 102.992 C 65.974 103.709 64.749 104.232 63.507 104.478 C 63.214 104.536 62.902 104.566 62.585 104.566" fill="rgb(236,147,146)"/><path d=" M 59.659 101.648 C 60.011 100.839 60.713 100.195 61.409 99.684 C 62.109 99.172 62.956 98.737 63.843 98.477 C 64.527 98.143 65.268 97.871 66.016 97.794 C 63.811 98.937 61.683 100.216 59.659 101.648 Z " fill="rgb(225,130,130)"/><path d=" M 113.25 119.382 C 113.186 119.382 113.121 119.376 113.057 119.36 C 112.916 119.324 112.806 119.222 112.748 119.094 L 112.699 118.85 L 112.736 118.671 C 112.98 118.088 113.305 117.537 113.68 117.029 C 113.814 116.847 113.983 116.702 114.211 116.657 L 114.283 116.657 L 114.416 116.593 C 114.516 116.552 114.621 116.533 114.731 116.533 C 114.742 116.533 114.752 116.533 114.762 116.533 C 114.9 116.543 115.035 116.574 115.153 116.647 L 115.333 116.873 L 115.382 117.061 C 115.397 117.238 115.348 117.424 115.248 117.576 L 115.199 117.647 L 115.189 117.719 C 115.178 117.843 115.145 117.967 115.117 118.09 C 115.086 118.234 115.012 118.369 114.921 118.495 L 114.936 118.577 C 114.982 118.784 114.807 118.967 114.635 119.049 C 114.583 119.074 114.523 119.087 114.464 119.087 C 114.372 119.087 114.281 119.056 114.225 118.985 L 114.034 119.014 L 114.004 119.042 C 113.837 119.186 113.66 119.328 113.433 119.366 C 113.373 119.377 113.311 119.382 113.25 119.382" fill="rgb(236,147,146)"/><path d=" M 129.025 132.588 L 128.81 132.514 L 128.772 132.493 L 128.742 132.488 L 128.592 132.419 L 128.587 132.417 L 128.564 132.404 L 128.518 132.378 L 128.426 132.327 L 128.411 132.317 L 128.24 132.241 L 128.08 132.088 L 128.063 132.065 L 128.055 132.058 L 127.978 131.889 L 127.963 131.702 L 128.003 131.505 L 128.097 131.307 L 128.241 131.123 L 128.432 130.96 L 128.649 130.837 L 128.873 130.764 L 129.094 130.741 L 129.091 130.742 L 129.121 130.738 C 129.161 130.734 129.192 130.732 129.196 130.732 C 129.201 130.732 129.173 130.735 129.09 130.744 L 129.089 130.744 L 129.291 130.772 L 129.292 130.773 L 129.296 130.774 L 129.311 130.78 L 129.322 130.786 L 129.327 130.788 L 129.504 130.871 L 129.531 130.893 L 129.602 130.961 L 129.707 131.112 L 129.746 131.196 L 129.748 131.206 L 129.753 131.224 L 129.755 131.252 L 129.823 131.361 L 129.891 131.514 L 129.921 131.561 C 129.979 131.646 130.002 131.74 129.995 131.841 L 129.962 131.997 L 129.831 132.226 L 129.698 132.364 L 129.451 132.525 L 129.275 132.583 L 129.025 132.588" fill="rgb(236,147,146)"/><line x1="129.094" y1="130.741" x2="129.121" y2="130.738"/><path d=" M 181.98 121.236 C 181.911 121.236 181.843 121.229 181.782 121.21 L 181.563 121.077 L 181.519 121.006 L 181.503 121.017 L 181.392 120.834 C 181.326 120.724 181.282 120.602 181.236 120.481 C 181.18 120.337 181.128 120.191 181.077 120.044 C 180.988 119.793 180.899 119.539 180.792 119.294 L 180.744 119.2 C 180.538 118.855 180.698 118.472 180.944 118.195 C 181.089 118.033 181.298 117.915 181.503 117.849 C 181.615 117.813 181.733 117.789 181.852 117.789 C 181.925 117.789 181.997 117.798 182.07 117.819 C 182.334 117.896 182.61 117.928 182.871 118.02 C 183.052 118.083 183.225 118.159 183.399 118.241 C 183.552 118.313 183.668 118.479 183.75 118.627 C 183.838 118.785 183.864 118.96 183.798 119.134 C 183.748 119.265 183.67 119.381 183.579 119.486 C 183.455 119.625 183.277 119.724 183.101 119.781 L 182.918 119.815 L 182.947 119.928 L 182.991 120.178 C 183.042 120.365 182.973 120.554 182.882 120.715 C 182.77 120.912 182.573 121.055 182.372 121.15 C 182.26 121.204 182.117 121.236 181.98 121.236" fill="rgb(225,130,130)"/><path d=" M 189.637 113.453 C 189.59 113.453 189.542 113.448 189.495 113.437 L 189.229 113.344 L 189.062 113.135 L 189.009 112.868 L 189.011 112.769 L 189.013 112.716 C 189.015 112.633 189.023 112.589 189.054 112.484 L 189.19 112.215 L 189.239 112.13 C 189.314 112.014 189.409 111.915 189.523 111.836 C 189.636 111.756 189.76 111.7 189.896 111.67 C 189.951 111.658 190.006 111.652 190.061 111.652 C 190.123 111.652 190.187 111.66 190.25 111.677 C 190.355 111.707 190.441 111.765 190.506 111.853 L 190.558 111.916 L 190.586 111.948 L 190.599 111.963 L 190.64 112.05 L 190.68 112.138 L 190.696 112.362 L 190.698 112.412 L 190.701 112.509 C 190.688 112.649 190.644 112.778 190.569 112.896 L 190.426 113.078 C 190.311 113.198 190.177 113.291 190.025 113.359 L 189.807 113.431 C 189.749 113.446 189.693 113.453 189.637 113.453" fill="rgb(225,130,130)"/><path d=" M 42.525 126.793 C 42.293 126.793 42.015 126.622 41.976 126.383 C 41.892 125.868 41.903 125.339 41.966 124.824 C 42.091 123.79 42.38 122.68 42.992 121.821 C 43.304 121.382 43.716 120.987 44.229 120.798 C 44.397 120.736 44.548 120.71 44.705 120.71 C 44.804 120.71 44.906 120.721 45.016 120.74 L 45.11 120.754 L 45.307 120.784 C 45.412 120.804 45.512 120.835 45.611 120.875 C 46.033 121.038 45.618 121.538 45.278 121.538 C 45.274 121.538 45.271 121.538 45.267 121.538 C 45.291 121.542 45.314 121.547 45.337 121.552 C 45.508 121.595 45.749 121.784 45.766 121.978 C 45.857 123.023 45.752 124.039 45.286 124.99 C 44.764 126.057 43.728 126.702 42.559 126.792 C 42.548 126.793 42.537 126.793 42.525 126.793 M 44.781 123.299 L 44.77 123.313 L 44.762 123.33 L 44.779 123.318 L 44.781 123.299 M 44.536 121.641 L 44.48 121.675 L 44.437 121.706 L 44.418 121.727 L 44.616 121.626 C 44.771 121.562 44.933 121.523 45.096 121.523 C 45.13 121.523 45.164 121.524 45.198 121.529 C 45.099 121.505 45.004 121.489 44.903 121.487 L 44.84 121.487 L 44.737 121.529 L 44.726 121.533 L 44.663 121.57 L 44.489 121.662 L 44.536 121.641" fill="rgb(236,147,146)"/><path d=" M 44.762 123.33 L 44.77 123.313 L 44.781 123.299 L 44.779 123.318 L 44.762 123.33" fill="rgb(236,147,146)"/><path d=" M 219.011 122.277 C 218.993 122.277 218.976 122.277 218.957 122.276 C 218.296 122.248 217.684 121.962 217.128 121.62 C 216.188 121.04 215.349 120.237 214.699 119.334 C 214.161 119.071 213.68 118.67 213.326 118.193 C 212.773 117.449 213.647 116.367 214.335 116.12 C 214.449 116.08 214.563 116.053 214.677 116.022 L 214.934 115.954 C 215.174 115.906 215.417 115.879 215.66 115.879 C 215.966 115.879 216.272 115.921 216.578 116.016 C 217.651 116.343 218.535 117.146 219.229 117.998 C 219.839 118.746 220.394 119.668 220.547 120.635 C 220.682 121.477 219.838 122.277 219.011 122.277 Z " fill="rgb(225,130,130)"/><path d=" M 218.239 107.082 C 218.226 107.082 218.214 107.082 218.202 107.082 L 217.965 107.048 L 217.762 106.954 L 217.605 106.8 L 217.515 106.601 L 217.495 106.377 L 217.544 106.143 L 217.656 105.911 L 217.826 105.676 C 217.91 105.545 218.016 105.435 218.144 105.345 C 218.239 105.274 218.344 105.224 218.457 105.193 C 218.548 105.158 218.642 105.138 218.741 105.138 C 218.75 105.138 218.76 105.138 218.77 105.139 C 218.898 105.139 219.015 105.174 219.122 105.242 L 219.272 105.37 C 219.372 105.431 219.439 105.516 219.474 105.622 L 219.529 105.833 L 219.515 106.062 L 219.435 106.295 L 219.292 106.522 L 219.095 106.728 L 218.853 106.898 L 218.591 107.014 C 218.479 107.059 218.361 107.082 218.239 107.082" fill="rgb(225,130,130)"/><path d=" M 245.659 115.989 C 245.455 115.989 245.25 115.943 245.058 115.844 C 243.927 115.255 243.028 114.263 242.363 113.189 C 242.015 112.626 241.684 112.02 241.455 111.401 C 241.348 111.107 241.25 110.811 241.157 110.512 C 241.05 110.174 241.021 109.852 240.992 109.496 C 240.97 109.222 241.239 108.928 241.441 108.786 C 241.618 108.662 241.835 108.578 242.053 108.578 C 242.123 108.578 242.193 108.587 242.262 108.606 L 242.5 108.712 C 242.837 108.438 243.255 108.247 243.649 108.247 C 243.787 108.247 243.923 108.27 244.051 108.322 C 245.247 108.802 246.082 109.918 246.621 111.052 C 247.168 112.205 247.645 113.62 247.196 114.886 C 246.972 115.519 246.316 115.99 245.659 115.989" fill="rgb(204,126,126)"/><path d=" M 200.907 97.89 L 200.718 97.862 L 200.546 97.652 L 200.59 97.696 L 200.523 97.618 L 200.376 97.599 C 200.242 97.583 200.105 97.579 199.968 97.579 C 199.967 97.579 199.965 97.579 199.963 97.579 C 199.839 97.579 199.71 97.548 199.587 97.528 C 199.48 97.51 199.377 97.476 199.292 97.413 C 199.346 97.085 199.364 96.758 199.349 96.433 C 199.402 96.381 199.459 96.332 199.517 96.289 C 199.651 96.182 199.819 96.119 199.983 96.074 L 200.074 96.05 L 200.273 95.991 C 200.479 95.948 200.697 95.93 200.905 95.915 L 201.104 95.915 C 201.252 95.927 201.396 95.95 201.521 96.039 C 201.614 96.096 201.676 96.174 201.708 96.273 C 201.762 96.363 201.781 96.463 201.767 96.571 L 201.769 96.611 C 201.768 96.742 201.702 96.896 201.636 97.005 C 201.575 97.108 201.497 97.196 201.402 97.266 L 201.301 97.35 L 201.254 97.382 L 201.147 97.442 L 201.169 97.475 C 201.256 97.575 201.157 97.734 201.078 97.8 L 200.907 97.89" fill="rgb(225,130,130)"/><path d=" M 199.292 97.413 C 199.248 97.38 199.208 97.338 199.176 97.287 C 199.074 97.127 199.077 96.957 199.128 96.784 C 199.166 96.65 199.25 96.534 199.349 96.433 C 199.364 96.758 199.346 97.085 199.292 97.413" fill="rgb(204,126,126)"/><path d=" M 173.118 106.235 C 173.024 106.235 172.93 106.224 172.839 106.205 C 172.656 106.167 172.498 106.048 172.388 105.903 L 172.342 105.796 L 172.237 105.763 C 172.066 105.658 171.984 105.428 171.994 105.238 C 172.007 104.999 172.144 104.784 172.296 104.61 C 172.459 104.424 172.64 104.259 172.851 104.126 C 173.071 103.987 173.29 103.85 173.551 103.797 C 173.638 103.779 173.731 103.77 173.825 103.77 C 173.976 103.77 174.128 103.793 174.267 103.836 C 174.492 103.906 174.674 104.059 174.771 104.27 L 174.976 104.27 C 174.981 104.27 174.985 104.27 174.988 104.27 C 175.222 104.27 175.372 104.472 175.327 104.692 C 175.275 104.939 175.034 105.159 174.784 105.202 L 174.636 105.224 L 174.535 105.372 C 174.407 105.536 174.252 105.663 174.081 105.774 L 173.978 105.881 C 173.794 106.041 173.577 106.164 173.337 106.213 C 173.263 106.228 173.191 106.235 173.118 106.235" fill="rgb(189,126,126)"/><path d=" M 40.797 201.652 C 40.635 201.652 40.485 201.613 40.38 201.51 C 39.5 200.663 39.072 199.566 38.944 198.361 C 38.878 197.748 38.872 197.138 38.904 196.521 C 38.919 196.232 38.928 195.93 38.955 195.632 L 38.924 195.498 C 38.797 194.717 39.595 193.966 40.363 193.966 C 40.55 193.966 40.735 194.01 40.904 194.109 C 41.024 194.18 41.141 194.257 41.253 194.34 C 41.253 194.342 41.254 194.344 41.254 194.347 C 41.755 196.103 42.318 197.845 42.948 199.562 C 42.706 200.262 42.262 200.888 41.613 201.38 C 41.434 201.517 41.095 201.652 40.797 201.652 Z " fill="rgb(193,13,12)"/><path d=" M 46.507 209.635 C 46.174 209.635 45.913 209.466 45.962 209.076 L 45.984 208.894 C 46.03 208.534 46.355 208.155 46.732 208.012 C 46.845 208.221 46.959 208.43 47.075 208.638 C 47.188 208.842 47.302 209.044 47.418 209.247 C 47.176 209.493 46.812 209.635 46.507 209.635" fill="rgb(193,13,12)"/><path d=" M 56.657 243.434 C 56.646 243.434 56.634 243.433 56.623 243.433 C 56.459 243.429 56.242 243.386 56.108 243.282 C 55.487 242.808 55.059 242.201 54.747 241.492 C 54.612 241.186 54.517 240.872 54.477 240.54 C 54.413 239.998 54.354 239.334 54.807 238.931 C 55.04 238.724 55.313 238.558 55.625 238.558 C 55.667 238.558 55.71 238.561 55.753 238.567 L 55.852 238.599 L 55.853 238.582 L 56.012 238.66 C 56.12 238.635 56.229 238.61 56.342 238.61 C 56.35 238.61 56.358 238.61 56.367 238.61 C 56.556 238.616 56.803 238.666 56.957 238.784 C 57.974 239.552 58.428 240.855 58.19 242.102 C 58.139 242.368 58.067 242.564 57.902 242.778 C 57.759 242.962 57.59 243.102 57.386 243.217 C 57.164 243.344 56.916 243.434 56.657 243.434" fill="rgb(193,13,12)"/><line x1="116.307" y1="287.183" x2="116.309" y2="287.169"/><path d=" M 116.499 289.191 C 116.421 289.01 116.356 288.823 116.313 288.632 C 116.247 288.338 116.222 288.028 116.237 287.727 C 116.23 287.606 116.238 287.485 116.271 287.37 L 116.306 287.196 L 116.309 287.169 C 116.336 286.991 116.376 286.813 116.431 286.64 C 116.508 286.397 116.769 286.216 117.016 286.191 L 117.31 286.263 L 117.436 286.205 C 117.649 286.122 117.864 286.068 118.084 286.068 C 118.188 286.068 118.293 286.08 118.399 286.107 C 118.686 286.178 118.88 286.406 118.971 286.675 C 119.118 287.109 119.207 287.562 119.25 288.018 C 119.276 288.29 119.294 288.567 119.288 288.845 C 118.354 288.914 117.425 289.033 116.499 289.191" fill="rgb(193,13,12)"/><path d=" M 117.809 290.642 C 117.724 290.642 117.64 290.631 117.557 290.606 C 117.422 290.565 117.255 290.468 117.178 290.344 C 117.016 290.083 116.827 289.841 116.682 289.57 C 116.617 289.446 116.554 289.32 116.499 289.191 C 117.425 289.033 118.354 288.914 119.288 288.845 C 119.281 289.131 119.247 289.415 119.168 289.689 C 119.046 290.11 118.617 290.44 118.219 290.571 C 118.088 290.613 117.948 290.642 117.809 290.642" fill="rgb(168,3,3)"/><path d=" M 192.505 277.091 C 192.467 277.091 192.428 277.089 192.388 277.084 C 192.237 277.061 192.091 276.997 191.999 276.867 C 191.937 276.777 191.897 276.633 191.91 276.523 L 191.951 276.332 L 191.949 276.333 L 191.952 276.326 C 191.996 276.065 192.064 275.81 192.154 275.564 C 192.101 275.461 192.061 275.352 192.05 275.234 C 192 274.662 192.463 274.148 192.961 273.933 C 193.063 273.887 193.171 273.867 193.277 273.846 C 193.393 273.754 193.546 273.692 193.692 273.692 C 193.756 273.692 193.821 273.704 193.879 273.731 L 194.014 273.85 C 194.179 273.89 194.33 273.956 194.444 274.1 C 194.578 274.268 194.59 274.587 194.509 274.778 C 194.354 275.138 194.178 275.492 193.971 275.825 C 193.773 276.145 193.536 276.433 193.305 276.73 C 193.189 276.878 192.978 276.984 192.802 277.042 C 192.702 277.074 192.606 277.091 192.505 277.091" fill="rgb(168,3,3)"/><path d=" M 259.238 214.675 C 258.991 214.675 258.757 214.588 258.586 214.377 C 256.723 212.074 256.852 208.558 258.424 206.141 C 258.608 205.858 258.967 205.612 259.323 205.612 C 259.393 205.612 259.463 205.622 259.531 205.642 C 259.923 205.762 259.95 206.168 259.793 206.485 C 259.826 206.483 259.861 206.481 259.896 206.481 C 260.198 206.481 260.525 206.568 260.67 206.833 C 261.924 209.112 261.671 211.743 260.442 213.972 C 260.228 214.357 259.71 214.675 259.238 214.675" fill="rgb(118,0,0)"/><path d=" M 267.403 199.123 C 267.358 199.123 267.313 199.118 267.268 199.108 L 267.094 199.057 L 266.89 198.898 L 266.817 198.74 L 266.78 198.597 C 266.753 198.494 266.746 198.425 266.738 198.305 L 266.72 198.025 C 266.707 197.834 266.695 197.643 266.682 197.454 C 266.696 197.3 266.745 197.158 266.829 197.029 L 266.984 196.829 C 267.159 196.631 267.411 196.504 267.664 196.442 C 267.728 196.426 267.792 196.418 267.854 196.418 C 267.905 196.418 267.955 196.423 268.006 196.434 C 268.113 196.439 268.21 196.474 268.299 196.536 C 268.466 196.653 268.554 196.858 268.541 197.059 C 268.529 197.255 268.516 197.451 268.504 197.646 L 268.486 197.934 C 268.478 198.035 268.44 198.155 268.417 198.259 L 268.383 198.405 C 268.35 198.508 268.298 198.598 268.227 198.677 C 268.161 198.773 268.079 198.854 267.98 198.917 C 267.853 199 267.714 199.065 267.566 199.102 C 267.511 199.116 267.457 199.123 267.403 199.123" fill="rgb(118,0,0)"/><path d=" M 255.994 242.875 C 254.829 242.875 255.651 241.315 256.527 241.315 C 257.692 241.315 256.87 242.875 255.994 242.875 Z " fill="rgb(118,0,0)"/><path d=" M 55.069 216.816 C 54.623 216.816 54.169 216.728 53.721 216.543 C 52.157 215.893 50.953 214.476 49.955 213.157 C 49.018 211.917 48.188 210.597 47.418 209.247 C 47.602 209.059 47.715 208.811 47.676 208.52 L 47.655 208.367 L 47.652 208.35 C 47.61 208.05 47.436 207.936 47.215 207.936 C 47.165 207.936 47.114 207.941 47.061 207.952 C 47.054 207.952 47.048 207.952 47.042 207.952 C 46.938 207.952 46.833 207.974 46.732 208.012 C 45.267 205.294 44.012 202.463 42.948 199.562 C 43.188 198.868 43.229 198.1 43.073 197.318 C 42.846 196.181 42.198 195.043 41.253 194.34 C 38.308 184.003 37.411 173.064 38.011 162.354 C 38.555 152.666 40.26 142.797 44.073 133.831 C 47.004 126.94 50.952 120.432 55.765 114.672 C 59.015 111.446 62.474 108.44 66.234 105.749 C 72.812 101.04 80.131 96.713 88.029 94.695 C 90.137 94.156 92.367 93.776 94.579 93.776 C 95.967 93.776 97.348 93.926 98.686 94.278 C 101.265 94.961 103.008 96.916 104.073 99.284 C 105.308 102.03 105.775 105.107 106.172 108.068 C 106.593 111.212 106.865 114.379 107.453 117.498 C 107.717 118.901 108.047 120.3 108.543 121.641 C 109.123 123.208 109.972 124.673 110.883 126.068 C 112.848 129.076 115.393 131.719 118.548 133.481 C 122.293 135.571 126.485 136.24 130.707 136.24 C 133.11 136.24 135.523 136.024 137.87 135.729 C 141.457 135.279 145.018 134.641 148.594 134.105 C 151.73 133.636 154.942 133.149 158.121 133.149 C 158.145 133.149 158.169 133.149 158.194 133.149 C 160.259 133.153 162.335 133.455 164.363 133.829 C 166.965 134.309 169.546 134.965 172.031 135.877 C 175.499 137.147 181.51 139.84 180.546 144.522 C 180.338 145.537 179.845 146.449 179.256 147.291 C 175.427 144.762 172.481 140.887 168.203 139.065 C 166.335 138.268 164.377 138.001 162.387 138.001 C 161.769 138.001 161.147 138.027 160.524 138.071 C 157.364 138.293 154.242 138.926 151.171 139.693 C 144.866 141.271 138.699 143.389 132.342 144.767 C 129.363 145.413 126.295 145.939 123.236 145.939 C 123.076 145.939 122.917 145.937 122.757 145.935 C 120.297 145.891 118.232 144.943 116.266 143.534 C 114.464 142.243 112.676 140.819 110.488 140.244 C 109.612 140.014 108.699 139.895 107.788 139.895 C 107.232 139.895 106.677 139.939 106.131 140.031 C 103.416 140.485 101.175 142.232 99.461 144.307 C 95.318 149.319 93.329 155.746 90.169 161.353 C 88.813 163.757 87.196 166.274 84.827 167.795 C 83.723 168.504 82.149 169.069 80.668 169.069 C 79.552 169.069 78.489 168.749 77.72 167.927 C 76.832 166.976 76.577 165.569 76.496 164.317 C 76.387 162.644 76.564 160.953 76.804 159.297 C 77.309 155.811 78.206 152.377 78.561 148.869 C 78.682 147.676 78.787 146.344 78.397 145.185 C 77.968 143.914 77.039 142.568 75.831 142.568 C 75.443 142.568 75.026 142.706 74.587 143.031 C 73.693 143.693 73.024 144.654 72.38 145.546 C 71.513 146.748 70.634 147.951 69.826 149.193 C 68.18 151.724 66.844 154.442 65.674 157.221 C 60.606 169.264 58.105 182.384 57.501 195.407 C 57.212 201.651 59.504 207.802 58.286 214.039 C 58.191 214.526 58.066 215.023 57.901 215.503 C 57.137 216.326 56.128 216.816 55.069 216.816 M 54.571 139.895 C 53.66 139.927 52.801 140.378 52.21 141.066 C 51.281 142.145 50.95 143.572 50.742 144.946 C 50.573 146.06 50.495 147.203 50.61 148.325 C 50.641 148.62 50.938 148.866 51.179 148.978 C 51.375 149.07 51.563 149.101 51.76 149.101 C 51.886 149.101 52.015 149.088 52.151 149.07 C 53.786 148.848 54.952 147.737 55.61 146.334 L 55.793 146.265 C 56.273 146.061 56.7 145.617 56.805 145.102 C 56.852 144.877 56.801 144.611 56.67 144.405 C 57.151 143.364 57.418 142.093 56.817 141.138 C 56.77 140.88 56.705 140.625 56.609 140.376 C 56.424 139.897 56.039 139.708 55.586 139.708 C 55.487 139.708 55.384 139.717 55.28 139.734 C 55.046 139.773 54.824 139.83 54.61 139.899 L 54.571 139.895 M 101.928 127.806 C 101.576 127.806 101.177 127.999 100.961 128.231 C 100.497 128.729 100.102 129.281 99.813 129.881 C 99.211 130.209 98.798 130.795 98.669 131.538 C 98.507 132.468 98.818 133.496 99.356 134.256 C 99.475 134.423 99.637 134.487 99.812 134.487 C 100.112 134.487 100.444 134.297 100.638 134.121 C 101.455 133.38 102.046 132.416 102.404 131.376 C 102.744 130.39 102.878 129.271 102.565 128.259 C 102.463 127.93 102.211 127.806 101.928 127.806 M 76.162 108.291 C 75.417 108.291 74.665 108.419 73.973 108.624 C 72.201 109.15 70.533 110.033 68.964 111.097 C 64.462 111.441 60.984 117.135 59.581 120.9 C 59.412 121.355 59.241 121.887 59.083 122.469 C 58.717 123.535 58.496 124.647 58.464 125.793 C 58.109 129.352 58.836 133.046 62.816 133.046 C 62.917 133.046 63.019 133.044 63.124 133.04 C 66.89 132.868 70.408 130.104 73.022 127.622 C 74.882 125.857 76.578 123.894 78.043 121.787 C 79.479 119.723 80.749 117.399 81.136 114.885 C 81.451 112.845 80.841 110.662 79.231 109.303 C 78.367 108.574 77.271 108.291 76.162 108.291 Z  M 55.008 120.23 C 54.234 120.23 53.51 121.606 54.537 121.606 C 55.311 121.606 56.037 120.23 55.008 120.23 Z  M 91.406 109.252 C 91.116 109.252 90.79 109.373 90.592 109.487 C 89.977 109.844 89.475 110.339 89.091 110.913 C 88.979 110.941 88.868 110.964 88.757 111.011 C 88.131 111.284 87.644 111.82 87.336 112.42 C 86.731 113.602 86.489 115.128 86.897 116.413 C 86.983 116.686 87.21 116.814 87.487 116.827 C 87.547 116.83 87.607 116.831 87.666 116.831 C 91.028 116.832 92.585 112.52 92.005 109.703 C 91.936 109.364 91.687 109.252 91.406 109.252 M 73.784 103.489 C 73.648 103.489 73.538 103.504 73.405 103.552 L 73.224 103.639 L 73.074 103.754 L 72.888 104.031 L 72.862 104.18 L 72.887 104.327 L 72.963 104.455 L 73.085 104.556 L 73.09 104.558 L 73.114 104.568 L 73.159 104.598 L 73.231 104.653 L 73.252 104.668 L 73.439 104.754 L 73.509 104.776 L 73.531 104.785 L 73.723 104.815 L 73.828 104.81 L 73.933 104.804 L 73.977 104.798 L 74.081 104.784 C 74.208 104.763 74.326 104.72 74.435 104.654 L 74.63 104.484 L 74.751 104.286 L 74.752 104.008 L 74.721 103.939 L 74.708 103.909 L 74.624 103.767 L 74.561 103.715 L 74.493 103.658 L 74.472 103.649 L 74.238 103.545 C 74.231 103.544 74.228 103.543 74.228 103.542 C 74.231 103.543 74.232 103.543 74.232 103.543 C 74.233 103.543 74.232 103.543 74.231 103.543 C 74.23 103.542 74.23 103.542 74.229 103.542 C 74.228 103.542 74.228 103.542 74.228 103.542 C 74.219 103.542 74.196 103.539 74.139 103.529 L 74.037 103.512 L 74.02 103.51 L 73.985 103.505 L 73.814 103.49 C 73.804 103.49 73.794 103.489 73.784 103.489 Z  M 96.451 101.584 L 96.451 101.584 L 96.405 101.577 C 96.441 101.581 96.478 101.583 96.515 101.583 C 96.577 101.583 96.64 101.577 96.703 101.564 C 96.835 101.538 96.955 101.489 97.067 101.417 C 97.191 101.357 97.3 101.275 97.394 101.17 C 97.511 101.049 97.598 100.91 97.655 100.753 L 97.659 100.73 L 97.855 100.592 C 97.933 100.492 97.969 100.337 97.849 100.251 L 97.718 100.142 L 97.597 99.964 C 97.492 99.852 97.381 99.78 97.231 99.734 L 97.028 99.698 L 96.798 99.731 L 96.685 99.755 C 96.505 99.802 96.389 99.852 96.23 99.952 L 96.189 99.989 L 96.185 99.989 L 96.181 99.994 L 95.962 100.208 L 95.9 100.268 C 95.817 100.36 95.757 100.464 95.719 100.583 C 95.662 100.779 95.64 101.013 95.776 101.186 L 95.829 101.259 L 95.856 101.301 L 95.862 101.31 L 96.012 101.459 L 96.206 101.55 L 96.35 101.57 C 96.365 101.572 96.379 101.574 96.393 101.576 L 96.437 101.582 L 96.451 101.584" fill="rgb(251,101,98)"/><path d=" M 73.723 104.815 L 73.531 104.785 L 73.509 104.776 L 73.439 104.754 L 73.252 104.668 L 73.231 104.653 L 73.159 104.598 L 73.114 104.568 L 73.09 104.558 L 73.085 104.556 L 72.963 104.455 L 72.887 104.327 L 72.862 104.18 L 72.888 104.031 L 73.074 103.754 L 73.224 103.639 L 73.405 103.552 C 73.538 103.504 73.648 103.489 73.784 103.489 C 73.794 103.489 73.804 103.49 73.814 103.49 L 73.985 103.505 L 74.02 103.51 L 74.037 103.512 L 74.139 103.529 C 74.196 103.539 74.219 103.542 74.228 103.542 C 74.228 103.543 74.231 103.544 74.238 103.545 L 74.472 103.649 L 74.493 103.658 L 74.561 103.715 L 74.624 103.767 L 74.708 103.909 L 74.721 103.939 L 74.752 104.008 L 74.751 104.286 L 74.63 104.484 L 74.435 104.654 C 74.326 104.72 74.208 104.763 74.081 104.784 L 73.977 104.798 L 73.933 104.804 L 73.828 104.81 L 73.723 104.815 Z  M 74.232 103.543 C 74.232 103.543 74.231 103.543 74.228 103.542 C 74.228 103.542 74.228 103.542 74.229 103.542 C 74.23 103.542 74.23 103.542 74.231 103.543 C 74.232 103.543 74.233 103.543 74.232 103.543 Z " fill="rgb(253,171,170)"/><path d=" M 87.666 116.831 C 87.607 116.831 87.547 116.83 87.487 116.827 C 87.21 116.814 86.983 116.686 86.897 116.413 C 86.489 115.128 86.731 113.602 87.336 112.42 C 87.644 111.82 88.131 111.284 88.757 111.011 C 88.868 110.964 88.979 110.941 89.091 110.913 C 89.475 110.339 89.977 109.844 90.592 109.487 C 90.79 109.373 91.116 109.252 91.406 109.252 C 91.687 109.252 91.936 109.364 92.005 109.703 C 92.585 112.52 91.028 116.832 87.666 116.831" fill="rgb(253,171,170)"/><path d=" M 99.812 134.487 C 99.637 134.487 99.475 134.423 99.356 134.256 C 98.818 133.496 98.507 132.468 98.669 131.538 C 98.798 130.795 99.211 130.209 99.813 129.881 C 100.102 129.281 100.497 128.729 100.961 128.231 C 101.177 127.999 101.576 127.806 101.928 127.806 C 102.211 127.806 102.463 127.93 102.565 128.259 C 102.878 129.271 102.744 130.39 102.404 131.376 C 102.046 132.416 101.455 133.38 100.638 134.121 C 100.444 134.297 100.112 134.487 99.812 134.487" fill="rgb(253,171,170)"/><path d=" M 54.537 121.606 C 53.51 121.606 54.234 120.23 55.008 120.23 C 56.037 120.23 55.311 121.606 54.537 121.606 Z " fill="rgb(253,171,170)"/><path d=" M 96.451 101.584 L 96.437 101.582 L 96.393 101.576 C 96.379 101.574 96.365 101.572 96.35 101.57 L 96.206 101.55 L 96.012 101.459 L 95.862 101.31 L 95.856 101.301 L 95.829 101.259 L 95.776 101.186 C 95.64 101.013 95.662 100.779 95.719 100.583 C 95.757 100.464 95.817 100.36 95.9 100.268 L 95.962 100.208 L 96.181 99.994 L 96.185 99.989 L 96.189 99.989 L 96.23 99.952 C 96.389 99.852 96.505 99.802 96.685 99.755 L 96.798 99.731 L 97.028 99.698 L 97.231 99.734 C 97.381 99.78 97.492 99.852 97.597 99.964 L 97.718 100.142 L 97.849 100.251 C 97.969 100.337 97.933 100.492 97.855 100.592 L 97.659 100.73 L 97.655 100.753 C 97.598 100.91 97.511 101.049 97.394 101.17 C 97.3 101.275 97.191 101.357 97.067 101.417 C 96.955 101.489 96.835 101.538 96.703 101.564 C 96.64 101.577 96.577 101.583 96.515 101.583 C 96.478 101.583 96.441 101.581 96.405 101.577 L 96.451 101.584" fill="rgb(253,171,170)"/><path d=" M 42.948 199.562 C 42.318 197.845 41.755 196.103 41.254 194.347 C 41.254 194.344 41.253 194.342 41.253 194.34 C 42.198 195.043 42.846 196.181 43.073 197.318 C 43.229 198.1 43.188 198.868 42.948 199.562" fill="rgb(247,67,64)"/><path d=" M 47.418 209.247 C 47.302 209.044 47.188 208.842 47.075 208.638 C 46.959 208.43 46.845 208.221 46.732 208.012 C 46.833 207.974 46.938 207.952 47.042 207.952 C 47.048 207.952 47.054 207.952 47.061 207.952 C 47.114 207.941 47.165 207.936 47.215 207.936 C 47.436 207.936 47.61 208.05 47.652 208.35 L 47.655 208.367 L 47.676 208.52 C 47.715 208.811 47.602 209.059 47.418 209.247" fill="rgb(247,67,64)"/><path d=" M 199.805 140.946 C 198.899 140.946 197.993 140.853 197.099 140.653 C 194.79 140.135 192.44 138.517 191.613 136.223 C 191.474 135.836 191.386 135.423 191.342 134.993 C 191.213 134.799 191.1 134.587 191.02 134.349 C 190.68 133.332 191.037 132.228 191.537 131.331 C 191.929 130.625 192.444 129.989 193.021 129.404 C 193.599 128.658 194.301 128.055 195.089 127.686 C 195.764 127.216 196.46 126.789 197.14 126.406 C 198.985 125.367 201.063 124.413 203.204 124.271 C 203.356 124.261 203.508 124.256 203.662 124.256 C 206.226 124.256 209.058 125.625 210.819 127.373 C 213.15 129.684 213.211 132.901 211.309 135.523 C 209.768 137.648 207.447 139.151 204.991 140.012 C 203.328 140.597 201.567 140.946 199.805 140.946" fill="rgb(247,67,64)"/><path d=" M 62.816 133.046 C 58.836 133.046 58.109 129.352 58.464 125.793 C 58.496 124.647 58.717 123.535 59.083 122.469 C 59.241 121.887 59.412 121.355 59.581 120.9 C 60.984 117.135 64.462 111.441 68.964 111.097 C 70.533 110.033 72.201 109.15 73.973 108.624 C 74.665 108.419 75.417 108.291 76.162 108.291 C 77.271 108.291 78.367 108.574 79.231 109.303 C 80.841 110.662 81.451 112.845 81.136 114.885 C 80.749 117.399 79.479 119.723 78.043 121.787 C 76.578 123.894 74.882 125.857 73.022 127.622 C 70.408 130.104 66.89 132.868 63.124 133.04 C 63.019 133.044 62.917 133.046 62.816 133.046" fill="rgb(254,205,205)"/><path d=" M 51.76 149.101 C 51.563 149.101 51.375 149.07 51.179 148.978 C 50.938 148.866 50.641 148.62 50.61 148.325 C 50.495 147.203 50.573 146.06 50.742 144.946 C 50.95 143.572 51.281 142.145 52.21 141.066 C 52.801 140.378 53.66 139.927 54.571 139.895 L 54.61 139.899 C 54.824 139.83 55.046 139.773 55.28 139.734 C 55.384 139.717 55.487 139.708 55.586 139.708 C 56.039 139.708 56.424 139.897 56.609 140.376 C 56.705 140.625 56.77 140.88 56.817 141.138 C 57.418 142.093 57.151 143.364 56.67 144.405 C 56.801 144.611 56.852 144.877 56.805 145.102 C 56.7 145.617 56.273 146.061 55.793 146.265 L 55.61 146.334 C 54.952 147.737 53.786 148.848 52.151 149.07 C 52.015 149.088 51.886 149.101 51.76 149.101" fill="rgb(254,205,205)"/><path d=" M 157.356 108.971 C 156.842 108.971 156.325 108.944 155.809 108.897 C 155.922 108.544 156.257 108.284 156.597 108.186 C 157.153 107.45 157.37 106.249 157.558 105.458 C 157.917 103.939 158.12 102.381 158.307 100.834 C 158.713 97.465 159.245 94.106 159.399 90.712 C 159.775 82.417 158.495 74.127 156.463 66.102 C 154.484 58.286 151.898 50.508 148.766 43.075 C 145.865 36.187 142.05 29.709 137.365 23.883 C 135.179 21.164 132.842 18.499 130.302 16.104 C 128.325 14.24 126.08 12.363 123.591 11.136 C 123.97 12.322 123.417 14.14 123.089 15.104 C 122.587 16.586 122.018 18.098 121.368 19.584 C 120.81 20.256 120.33 20.999 119.898 21.66 C 118.668 23.543 117.433 25.99 115.351 27.083 C 116.175 26.321 116.836 25.229 117.339 24.43 C 119.12 21.596 120.538 18.409 121.663 15.254 C 121.957 14.43 123.15 11.256 121.436 11.256 C 121.413 11.256 121.39 11.257 121.366 11.258 L 121.354 11.26 C 120.42 11.79 119.613 12.665 118.917 13.391 C 118.806 13.508 118.695 13.625 118.586 13.744 C 117.532 13.811 116.416 14.658 115.663 15.358 L 115.683 15.3 C 116.419 14.037 117.395 12.789 118.429 11.755 C 119.319 10.866 120.549 10 121.862 10 C 121.947 10 122.034 10.004 122.12 10.012 C 122.226 10.02 122.318 10.044 122.411 10.065 C 126.278 10.37 129.465 13.004 132.167 15.59 C 135.137 18.433 137.849 21.576 140.324 24.857 C 144.993 31.046 148.544 37.931 151.306 45.161 C 154.361 53.155 157.095 61.318 158.887 69.697 C 160.129 75.504 160.919 81.459 160.92 87.408 C 160.921 90.015 160.769 92.62 160.438 95.212 C 160.093 97.914 159.812 100.643 159.363 103.328 C 159.059 105.141 158.72 107.521 157.404 108.971 L 157.404 108.971 C 157.388 108.971 157.372 108.971 157.356 108.971" fill="rgb(57,31,5)"/><path d=" M 114.449 27.421 C 115.879 25.458 117.448 23.604 118.733 21.53 C 119.495 20.304 120.229 18.986 120.59 17.577 C 120.861 16.525 120.897 15.328 120.161 14.45 C 119.732 13.939 119.234 13.74 118.717 13.74 C 118.673 13.74 118.63 13.741 118.586 13.744 C 118.695 13.625 118.806 13.508 118.917 13.391 C 119.613 12.665 120.42 11.79 121.354 11.26 L 121.366 11.258 C 121.39 11.257 121.413 11.256 121.436 11.256 C 123.15 11.256 121.957 14.43 121.663 15.254 C 120.538 18.409 119.12 21.596 117.339 24.43 C 116.836 25.229 116.175 26.321 115.351 27.083 C 115.262 27.13 115.17 27.175 115.078 27.217 C 114.875 27.309 114.662 27.368 114.449 27.421" fill="rgb(111,62,23)"/><path d=" M 155.809 108.897 C 155.693 108.887 155.576 108.875 155.46 108.863 C 155.656 108.015 155.849 107.165 156.03 106.315 C 157.131 101.126 157.86 95.866 157.891 90.556 C 157.921 85.149 157.242 79.804 156.239 74.499 C 155.27 69.375 154.046 64.299 152.565 59.299 C 151.08 54.282 149.336 49.339 147.312 44.513 C 145.668 40.593 143.856 36.775 141.612 33.157 C 139.324 29.469 136.674 25.958 133.539 22.946 C 132.069 21.532 130.482 20.226 128.77 19.114 C 127.644 18.383 126.368 17.511 124.97 17.511 C 124.929 17.511 124.887 17.511 124.846 17.513 C 123.4 17.567 122.281 18.481 121.368 19.584 C 122.018 18.098 122.587 16.586 123.089 15.104 C 123.417 14.14 123.97 12.322 123.591 11.136 C 126.08 12.363 128.325 14.24 130.302 16.104 C 132.842 18.499 135.179 21.164 137.365 23.883 C 142.05 29.709 145.865 36.187 148.766 43.075 C 151.898 50.508 154.484 58.286 156.463 66.102 C 158.495 74.127 159.775 82.417 159.399 90.712 C 159.245 94.106 158.713 97.465 158.307 100.834 C 158.12 102.381 157.917 103.939 157.558 105.458 C 157.37 106.249 157.153 107.45 156.597 108.186 C 156.257 108.284 155.922 108.544 155.809 108.897" fill="rgb(86,47,9)"/></g></g></g><defs><filter id="fcL6njJZm126LztepZtWLqCpUh3GTdag" x="-200%" y="-200%" width="400%" height="400%" filterUnits="objectBoundingBox" color-interpolation-filters="sRGB"><feGaussianBlur xmlns="http://www.w3.org/2000/svg" in="SourceGraphic" stdDeviation="4.293609062839028"/><feOffset xmlns="http://www.w3.org/2000/svg" dx="10" dy="10" result="pf_100_offsetBlur"/><feFlood xmlns="http://www.w3.org/2000/svg" flood-color="#FFFFFF" flood-opacity="1"/><feComposite xmlns="http://www.w3.org/2000/svg" in2="pf_100_offsetBlur" operator="in" result="pf_100_dropShadow"/><feBlend xmlns="http://www.w3.org/2000/svg" in="SourceGraphic" in2="pf_100_dropShadow" mode="normal"/></filter></defs><g clip-path="url(#_clipPath_hs5Kjc8X26mexCMlnt8zhUnt6XgTHyOW)"><text transform="matrix(1,0,0,1,318,194.879)" style="font-family:'Fjalla One';font-weight:400;font-size:100px;font-style:normal;fill:#880202;stroke:#FFFFFF;stroke-width:3;">appleJuice</text></g><defs><clipPath id="_clipPath_hs5Kjc8X26mexCMlnt8zhUnt6XgTHyOW"><rect x="0" y="0" width="663.462" height="150" transform="matrix(1,0,0,1,309,85)"/></clipPath></defs><g clip-path="url(#_clipPath_rooDnOYdUZLZ9kCckRfbIN3cI9F2wPqf)"><text transform="matrix(1,0,0,1,397,253.439)" style="font-family:'Fjalla One';font-weight:400;font-size:50px;font-style:normal;fill:#fb6562;stroke:#FFFFFF;stroke-width:3;">phpGUI</text></g><defs><clipPath id="_clipPath_rooDnOYdUZLZ9kCckRfbIN3cI9F2wPqf"><rect x="0" y="0" width="589.51" height="101" transform="matrix(1,0,0,1,388,194)"/></clipPath></defs><g clip-path="url(#_clipPath_bgEtShe1Hl6u8qC3pZBNRgsoUYJEGBgT)"><text transform="matrix(0.94,-0.342,0.342,0.94,552.285,253.882)" style="font-family:'Fjalla One';font-weight:400;font-size:50px;font-style:normal;fill:#fb6562;stroke:#FFFFFF;stroke-width:3;">FLUX</text></g><defs><clipPath id="_clipPath_bgEtShe1Hl6u8qC3pZBNRgsoUYJEGBgT"><rect x="0" y="0" width="156.767" height="129.198" transform="matrix(0.94,-0.342,0.342,0.94,523.498,201.105)"/></clipPath></defs></g></svg>