<?xml version="1.0" ?><svg enable-background="new 0 0 504 504" id="Layer_1" version="1.1" viewBox="0 0 504 504" xml:space="preserve" xmlns="http://www.w3.org/2000/svg" xmlns:xlink="http://www.w3.org/1999/xlink"><path d="M456.6,261c-9.2,58.5-27.1,75.6-58.8,114.9c-31.7,33.3-77.3,88.9-141.9,85.8c-58.5-9.2-75.6-27.1-114.9-58.8  c-33.3-31.7-88.9-77.3-85.8-141.9c9.2-58.5,27.1-75.6,58.8-114.9c31.7-33.3,77.3-88.9,141.9-85.8c58.5,9.2,75.6,27.1,114.9,58.8  C404.1,150.8,459.6,196.4,456.6,261z" fill="#3765AF"/><path d="M215.4,197.7c11.1,0,21.4,4.1,31.6,6.2c8.2,1.6,14.8,0,22.6-2.5c10.7-3.3,21-6.2,32.5-4.1  c12.7,2.1,22.6,9.9,30.4,19.7c-13.6,11.5-23.4,25.5-22.2,44.4c1.2,16,11.9,34.1,28,38.6c-4.1,13.2-11.1,25.9-19.3,37  c-6.2,8.2-15.2,17.7-26.3,18.1c-12.3,0.8-23.4-7.4-35.8-7.8c-12.7-0.8-23.4,8.2-35.8,8.2c-10.7,0-19.3-7.4-25.9-15.2  c-10.3-12.3-18.1-27.5-23.4-42.7c-9-26.3-10.3-59.6,7.8-82.2C189.5,203.5,201,197.7,215.4,197.7 M291.4,150.1  c3.3,11.1-3.3,25.5-9.9,34.1c-8.2,10.3-17.7,14.8-30.4,15.6c0-12.3,3.3-22.6,9.5-31.6C266.7,159.5,277,153.3,291.4,150.1" fill="#FFFFFF" id="text1535_13_"/></svg>