<?xml version="1.0" encoding="UTF-8" standalone="no"?>
<!-- Created with Inkscape (http://www.inkscape.org/) -->

<svg
   version="1.1"
   id="svg2"
   width="333.66666"
   height="382.51999"
   viewBox="0 0 333.66666 382.51999"
   sodipodi:docname="nr53_se53_221123.eps"
   xmlns:inkscape="http://www.inkscape.org/namespaces/inkscape"
   xmlns:sodipodi="http://sodipodi.sourceforge.net/DTD/sodipodi-0.dtd"
   xmlns="http://www.w3.org/2000/svg"
   xmlns:svg="http://www.w3.org/2000/svg">
  <defs
     id="defs6" />
  <sodipodi:namedview
     id="namedview4"
     pagecolor="#ffffff"
     bordercolor="#000000"
     borderopacity="0.25"
     inkscape:showpageshadow="2"
     inkscape:pageopacity="0.0"
     inkscape:pagecheckerboard="0"
     inkscape:deskcolor="#d1d1d1" />
  <g
     id="g8"
     inkscape:groupmode="layer"
     inkscape:label="ink_ext_XXXXXX"
     transform="matrix(1.3333333,0,0,-1.3333333,0,382.52)">
    <g
       id="g10"
       transform="scale(0.1)">
      <path
         d="m 2461.77,1401.33 c -8.41,120.03 -33.92,240.85 -85.97,349.86 -44.84,93.93 -110.18,177.15 -193.14,240.33 -82.34,62.7 -180.88,103.41 -283.2,118.37 -58.4,8.55 -117.68,9.02 -176.29,2.25 -28.44,-3.28 -56.59,-8.18 -84.55,-14.1 -37.88,-3.81 -75.69,-9.32 -112.29,-19.69 -47.44,-13.44 -94.01,-27.05 -143.09,-33.27 -95.3,-12.07 -194.16,-8.27 -289.36,2.71 -22.14,2.55 -44.37,5.66 -66.52,9.38 -4.27,1.86 -8.77,3.21 -13.23,4.46 -8.03,2.27 -16.325,3.67 -24.564,4.9 -1.671,0.24 -3.343,0.34 -5.019,0.52 l -1.387,0.42 c -66.883,19.37 -134.57,36.68 -203.871,44.67 -58.609,6.77 -117.891,6.3 -176.289,-2.25 C 500.688,2094.93 402.137,2054.22 319.801,1991.52 236.84,1928.34 171.5,1845.12 126.664,1751.19 74.6172,1642.18 49.1055,1521.36 40.6875,1401.33 31.8789,1275.66 41.9219,1148.67 66.1484,1025.17 89.293,907.199 126.434,792.41 175.168,682.559 220.395,580.629 276.633,483.27 348.422,397.629 424.547,306.801 516.43,233.789 617.754,172.91 c 56.613,-34 116.051,-63.988 178.941,-84.5584 59.489,-19.4532 129.004,-36.543 190.457,-16.6407 13.678,4.4375 26.518,10.8399 39.958,15.8985 11.64,4.3711 22.75,5.6094 34.41,4.0312 21.68,-11 42,-24.9297 64.44,-34.4218 29.79,-12.5977 62.54,-15.6797 94.59,-13.5704 10.16,0.6797 51.2,0.6797 61.36,0 32.05,-2.1093 64.8,0.9727 94.59,13.5704 22.44,9.4921 42.76,23.4218 64.44,34.4218 11.66,1.5782 22.77,0.3399 34.42,-4.0312 13.43,-5.0586 26.27,-11.461 39.95,-15.8985 61.45,-19.9023 130.97,-2.8125 190.45,16.6407 62.89,20.5704 122.33,50.5584 178.95,84.5584 101.32,60.879 193.2,133.891 269.34,224.719 71.78,85.641 128.02,183 173.24,284.93 48.74,109.851 85.88,224.64 109.02,342.611 24.23,123.5 34.28,250.49 25.46,376.16"
         style="fill:#801813;fill-opacity:1;fill-rule:nonzero;stroke:none"
         id="path12" />
      <path
         d="M 2401.41,939.602 C 2372.25,827.172 2330.59,717.039 2277.33,613.789 2226.91,516.039 2163.92,424.66 2086.31,346.461 2001.24,260.75 1898.29,190.828 1789.46,138.879 1728.9,109.961 1663.68,87.2695 1596.69,79.8984 c -33.17,-3.6601 -64.76,-0.6796 -95.65,12.4414 -9.36,3.9688 -18.69,8.4612 -28.39,11.7302 19.15,4.649 37.95,3.789 57.34,2.262 -5.41,2.758 -10.86,5.418 -16.66,7.277 -15.85,5.039 -34.6,3.461 -50.59,-0.187 -13.65,-3.121 -27.03,-8.152 -40.19,-12.891 -5.61,-2.0193 -11.2,-4.1091 -16.78,-6.2224 -13.39,-7.5781 -26.73,-15.2773 -40.99,-21.1172 -17.31,-7.1016 -35.49,-10.7109 -53.91,-12.0508 -2.72,-0.75 -5.41,-1.5898 -8.15,-2.2695 -26.54,-6.6406 -102.69,-4.25 -112.76,-1.0703 -15.88,1.4101 -31.97,1.3906 -47.29,6.1289 -38.74,11.9687 -67.58,44.1603 -106.84,54.6093 -16.41,4.371 -32.47,3.402 -48.135,-0.34 -8.211,-3.179 -15.875,-7.66 -23.367,-12.5 22.309,1.852 43.672,3.672 65.482,-1.629 -9.7,-3.269 -19.03,-7.7614 -28.39,-11.7302 C 970.535,79.2188 938.941,76.2383 905.773,79.8984 838.777,87.2695 773.563,109.961 713,138.879 604.168,190.828 501.223,260.75 416.156,346.461 338.535,424.66 275.551,516.039 225.129,613.789 171.867,717.039 130.211,827.172 101.051,939.602 69.8359,1059.97 52.418,1184.32 51.8594,1308.72 c -0.5586,123.12 15.4609,247.29 56.5626,363.71 35.617,100.91 92.355,193.16 170.805,266.44 73.789,68.93 164.828,118.49 262.753,143.08 120.407,30.23 242.969,19.27 362.446,-10.07 28.066,-6.9 55.992,-14.45 83.847,-22.27 14.627,-2.43 29.277,-4.68 43.897,-6.85 19.8,-2.94 39.6,-5.67 59.41,-8.14 -4.04,1.24 -8.09,2.43 -12.13,3.67 43.97,-6.8 88.33,-10.71 132.8,-12.03 47.77,-1.41 95.95,-0.96 143.58,3.32 14.85,1.89 29.66,4.13 44.42,6.7 38.75,6.72 76.96,15.91 115.43,23.85 15.44,5.21 31.38,8.89 47.4,11.82 18.73,3.43 37.64,5.85 56.54,8.08 12.41,1.47 24.81,3.06 37.21,4.61 100.68,19.02 202.92,22.61 303.65,-2.69 97.93,-24.59 188.97,-74.15 262.76,-143.08 78.44,-73.28 135.18,-165.53 170.8,-266.44 41.1,-116.42 57.12,-240.59 56.56,-363.71 -0.56,-124.4 -17.98,-248.75 -49.19,-369.118"
         style="fill:#de3937;fill-opacity:1;fill-rule:nonzero;stroke:none"
         id="path14" />
      <path
         d="m 1487.98,1930.01 c -26.89,-11.83 -56.56,-16.71 -85.69,-19.03 -30.48,-2.43 -61.51,-3.53 -92.05,-1.91 -37.04,1.97 -73.72,5.68 -109.9,14.21 -33.36,7.88 -65.99,19.5 -97.54,32.83 -30.34,12.82 -66.54,21.47 -91.41,43.98 -3.31,2.99 -11.35,-3.41 -8.17,-7.02 20.03,-22.73 46.66,-36.33 73.29,-49.76 31.92,-16.09 65.33,-29.67 99.92,-38.83 37.12,-9.82 76.34,-16.1 114.76,-17.26 33.27,-1.01 67.22,2.5 100.12,7.26 33.88,4.89 69.7,11.92 98.54,31.43 2.6,1.76 1.39,5.54 -1.87,4.1"
         style="fill:#801813;fill-opacity:1;fill-rule:nonzero;stroke:none"
         id="path16" />
      <path
         d="m 903.352,2072.14 c -0.079,0.02 -0.149,0.04 -0.227,0.06 0.078,-0.02 0.148,-0.04 0.227,-0.06 m -361.372,9.81 c 49.915,12.53 100.188,17.98 150.469,17.98 -50.273,0 -100.562,-5.45 -150.469,-17.98 m 150.512,17.98 c -0.004,0 -0.015,0 -0.023,0 v 0 c 0.008,0 0.019,0 0.023,0"
         style="fill:#6f0504;fill-opacity:1;fill-rule:nonzero;stroke:none"
         id="path18" />
      <path
         d="m 905.43,79.9297 c -0.043,0.0117 -0.078,0.0117 -0.117,0.0195 0.039,-0.0078 0.074,-0.0078 0.117,-0.0195 m -0.313,0.0391 C 838.352,87.418 773.367,110.059 713,138.879 604.168,190.828 501.223,260.75 416.156,346.461 338.535,424.66 275.551,516.039 225.129,613.789 171.867,717.039 130.211,827.172 101.051,939.602 69.8359,1059.97 52.418,1184.32 51.8594,1308.72 c -0.0117,2.17 -0.0156,4.33 -0.0156,6.5 0.0273,120.98 16.1992,242.83 56.5782,357.21 35.617,100.91 92.355,193.16 170.805,266.44 73.789,68.93 164.828,118.49 262.753,143.08 v 0 c 49.907,12.53 100.196,17.98 150.469,17.98 0.008,0 0.012,0 0.02,0 0.008,0 0.019,0 0.023,0 70.555,0 141.121,-10.74 210.633,-27.73 0.078,-0.02 0.148,-0.04 0.227,-0.06 0.359,-0.09 0.718,-0.18 1.074,-0.26 28.066,-6.9 55.992,-14.45 83.847,-22.27 12.607,-2.09 25.227,-4.05 37.837,-5.95 -10.33,-3.66 -20.69,-8.84 -26.555,-17.25 -7.539,-10.81 -4.485,-27.28 2.375,-38.49 9.62,-15.71 26.44,-26.25 42.47,-34.43 17.6,-8.99 36.33,-15.68 55.29,-21.28 24.81,-11.24 50.43,-20.76 76.74,-27.73 37.12,-9.82 76.34,-16.1 114.76,-17.26 3.87,-0.12 7.75,-0.17 11.64,-0.17 29.51,0 59.4,3.22 88.48,7.43 8.61,1.24 17.34,2.62 26.05,4.31 9.85,0.42 19.69,1.17 29.54,2.44 62.65,8.12 127.58,22.75 184.93,49.77 23.43,11.04 49.96,25.54 63.32,48.78 2.92,5.08 4.71,10.2 5.55,15.27 0.79,-0.58 1.74,-0.9 2.74,-1.06 1.14,-0.19 2.33,-0.48 3.48,-0.48 0.02,0 0.04,0 0.05,0 1.27,0 2.54,-0.03 3.79,-0.18 l 1.36,-0.18 0.62,-0.72 -0.41,0.41 1.6,-1.95 1.75,-0.26 1.59,0.83 c 0.73,0.62 1.65,2.09 0.84,3.02 l -0.2,0.3 0.99,0.56 0.44,0.3 0.93,0.78 c 0.88,0.65 1.61,1.46 2.17,2.42 0.62,1.01 1.23,2.44 1.24,3.65 l -0.02,0.37 c 0.13,1.01 -0.05,1.93 -0.55,2.77 -0.3,0.92 -0.87,1.64 -1.73,2.17 -1.16,0.82 -2.5,1.04 -3.87,1.15 h -1.85 c -1.93,-0.14 -3.95,-0.31 -5.86,-0.71 l -1.85,-0.54 -0.84,-0.23 c -1.52,-0.41 -3.08,-1 -4.32,-1.99 -0.54,-0.4 -1.07,-0.85 -1.56,-1.34 -0.71,15.6 -9.48,30.52 -20.68,42.96 -2.33,2.6 -0.7,6.61 2.81,6.78 5.09,0.23 10.2,0.35 15.29,0.35 21.55,0 43.04,-2.12 64.18,-6.47 107.68,-22.22 195.53,-99.04 257.07,-187.08 67.03,-95.9 101.27,-207.64 123.13,-321.55 24.75,-128.91 31.37,-261.13 23.16,-392.05 -8.29,-132.09 -31.55,-263.4 -69.39,-390.228 -34.75,-116.461 -82.13,-228.551 -143.24,-333.622 -29.37,-50.5 -61.86,-99.601 -100.33,-143.691 -36.13,-41.41 -78.57,-79.508 -128.92,-102.66 -20.03,-9.219 -39.82,-15.41 -61.17,-15.41 -4.94,0 -9.96,0.332 -15.09,1.031 -25.1,3.43 -48.41,13.711 -72.7,20.34 -12.64,3.449 -24.81,5.14 -36.88,5.14 -15.29,0 -30.42,-2.71 -46.13,-7.968 -26.4,-8.864 -50.93,-22.153 -74.93,-36.09 -45.21,-26.281 -90.22,-54.172 -143.38,-59.813 -6.38,-0.668 -12.67,-0.988 -18.88,-0.988 -56.41,0 -106.65,26.07 -159.23,45.508 -24.92,9.199 -51.16,16.832 -77.81,16.832 -5.36,0 -10.74,-0.313 -16.13,-0.981 -26.753,-3.312 -48.878,-15 -69.98,-31.21 -17.301,-13.301 -34.098,-27.508 -55.059,-34.688 -12.043,-4.1328 -24.804,-5.5937 -37.687,-5.5937 -1.078,0 -2.152,0.0117 -3.227,0.0312 22.743,-5.9101 45.797,-10.4492 69.09,-13.0507 m 70.024,159.9492 c 6.304,0 12.625,-0.289 18.949,-0.906 27.81,-2.75 54.86,-11.16 81.41,-19.481 42.99,-13.472 86,-22.019 130.7,-22.019 6.52,0 13.08,0.179 19.69,0.558 99.15,5.66 193.28,49.02 268.29,113.008 38.01,32.41 71.36,70.332 98.69,112.152 28.07,42.93 47.46,89.258 63.32,137.86 35.55,108.879 55.85,222.66 65.08,336.711 9.64,119.119 7.01,239.429 -8.93,357.889 -14.58,108.26 -39.91,216.77 -83.85,317.1 -41.89,95.64 -107.96,186.09 -210.46,221.06 -58.64,20.01 -121.49,22.02 -182.82,24.58 -57.23,2.39 -116.67,3.87 -170.93,24.26 -35.81,13.46 -62.28,37.43 -82.507,69.55 -11.55,18.35 -21.425,37.73 -31.375,56.98 -11.144,21.55 -22.007,42.62 -40.375,59.01 -40.207,35.88 -97.476,50.47 -150.046,53.65 -7.786,0.47 -15.579,0.69 -23.372,0.69 -51.484,0 -102.921,-9.88 -152.203,-24.08 -41.586,-11.99 -82.047,-27.3 -120.007,-46.97 -6.938,-0.72 -13.813,-3.24 -20.153,-6.34 -8.23,-2.41 -16.086,-6.44 -22.582,-11.19 -6.453,-4.74 -12.965,-10.72 -16.238,-18.22 -26.918,-19.04 -51.891,-41 -74.281,-66.35 -4.414,-4.99 -8.657,-10.11 -12.817,-15.29 -18.121,-16.67 -35.168,-34.42 -50.801,-53.3 -69.433,-83.8 -111.968,-189.25 -131.421,-295.61 -20.43,-111.72 -16.731,-226.8 1.351,-338.56 18.078,-111.71 50.649,-221.109 93.652,-325.711 41.301,-100.437 93.434,-196.347 157.036,-284.437 64.906,-89.91 141.226,-171.172 225.867,-242.731 43.711,-36.961 88.945,-74.59 140.238,-100.633 24.508,-12.429 50.656,-22.007 77.934,-26.007 8.445,-1.231 16.707,-1.782 24.879,-1.782 19.902,0 39.257,3.231 59.355,7.563 5.406,1.168 10.832,2.226 16.277,3.148 0.512,-1.199 1.09,-2.371 1.7,-3.519 1.343,-2.512 3.093,-4.762 4.601,-7.18 0.711,-1.152 2.262,-2.051 3.516,-2.43 0.762,-0.23 1.547,-0.332 2.332,-0.332 1.289,0 2.586,0.27 3.801,0.661 3.699,1.21 7.675,4.269 8.808,8.179 0.735,2.539 1.043,5.18 1.11,7.832 5.515,0.418 11.043,0.637 16.582,0.637 m 657.459,115.434 -0.38,-1.774 c -0.12,-1.019 0.25,-2.359 0.83,-3.187 0.85,-1.211 2.21,-1.801 3.61,-2.012 0.37,-0.047 0.73,-0.07 1.08,-0.07 0.94,0 1.83,0.16 2.76,0.461 1.63,0.531 3.59,1.519 4.66,2.89 2.15,2.75 4.34,5.43 6.18,8.391 1.92,3.097 3.55,6.379 4.99,9.719 0.75,1.769 0.64,4.73 -0.6,6.289 -1.06,1.332 -2.46,1.941 -3.99,2.312 l -1.25,1.109 c -0.54,0.25 -1.14,0.36 -1.74,0.36 -1.35,0 -2.77,-0.578 -3.85,-1.43 -0.98,-0.191 -1.98,-0.379 -2.93,-0.801 -4.62,-2 -8.91,-6.769 -8.45,-12.07 0.1,-1.098 0.47,-2.109 0.97,-3.059 -0.84,-2.289 -1.47,-4.652 -1.88,-7.07 l -0.03,-0.07 0.02,0.012 m 108.64,1410.698 c -1.43,0 -2.84,-0.05 -4.25,-0.14 -19.86,-1.32 -39.14,-10.17 -56.25,-19.8 -6.31,-3.56 -12.77,-7.52 -19.03,-11.88 -7.31,-3.42 -13.82,-9.01 -19.18,-15.93 -5.35,-5.43 -10.13,-11.33 -13.77,-17.88 -4.64,-8.32 -7.95,-18.56 -4.79,-28 0.74,-2.2 1.79,-4.17 2.98,-5.97 0.41,-3.99 1.23,-7.82 2.52,-11.41 7.67,-21.28 29.47,-36.29 50.89,-41.09 8.29,-1.86 16.69,-2.72 25.1,-2.72 16.34,0 32.68,3.24 48.11,8.66 22.78,7.99 44.31,21.93 58.6,41.64 17.65,24.33 17.08,54.17 -4.54,75.61 -16.34,16.21 -42.61,28.91 -66.39,28.91 m 111.29,77.71 c -2.25,0 -4.5,-0.25 -6.73,-0.7 l -2.38,-0.63 c -1.06,-0.29 -2.12,-0.54 -3.18,-0.91 -6.38,-2.29 -14.49,-12.33 -9.36,-19.23 3.29,-4.42 7.75,-8.14 12.74,-10.58 6.03,-8.38 13.81,-15.83 22.53,-21.21 5.16,-3.17 10.84,-5.82 16.97,-6.08 0.17,-0.01 0.33,-0.01 0.5,-0.01 7.67,0 15.5,7.42 14.25,15.23 -1.42,8.97 -6.57,17.52 -12.23,24.46 -6.44,7.9 -14.64,15.35 -24.59,18.39 -2.84,0.88 -5.68,1.27 -8.52,1.27 m -316.7,-47.56 0.41,-0.66 2.03,-1.23 c 0.57,-0.18 1.2,-0.25 1.84,-0.25 1.27,0 2.6,0.3 3.64,0.8 1.86,0.88 3.69,2.21 4.73,4.04 0.84,1.49 1.48,3.24 1.01,4.98 l -0.41,2.32 -0.27,1.05 1.7,0.31 c 1.63,0.53 3.28,1.45 4.43,2.74 0.85,0.97 1.57,2.05 2.03,3.26 0.62,1.62 0.37,3.24 -0.44,4.71 -0.76,1.37 -1.84,2.91 -3.26,3.58 -1.61,0.76 -3.22,1.46 -4.9,2.05 -2.42,0.85 -4.98,1.15 -7.43,1.86 -0.67,0.2 -1.34,0.28 -2.02,0.28 -1.1,0 -2.2,-0.22 -3.24,-0.56 -1.9,-0.61 -3.84,-1.7 -5.18,-3.21 -2.28,-2.57 -3.77,-6.12 -1.86,-9.32 l 0.45,-0.87 c 0.99,-2.27 1.82,-4.63 2.64,-6.96 0.48,-1.36 0.96,-2.72 1.48,-4.05 0.42,-1.12 0.83,-2.26 1.44,-3.28 l 1.03,-1.69 0.15,0.1 m 79.24,86.77 c -0.51,0 -1.02,-0.06 -1.53,-0.17 -1.26,-0.28 -2.41,-0.8 -3.46,-1.54 -1.06,-0.73 -1.94,-1.65 -2.63,-2.73 l -0.46,-0.78 -1.26,-2.5 c -0.29,-0.97 -0.36,-1.38 -0.38,-2.15 l -0.02,-0.49 -0.02,-0.92 0.49,-2.48 1.55,-1.94 2.47,-0.86 c 0.44,-0.1 0.88,-0.15 1.32,-0.15 0.52,0 1.04,0.07 1.57,0.21 l 2.03,0.66 c 1.41,0.63 2.65,1.5 3.72,2.61 l 1.32,1.69 c 0.7,1.09 1.11,2.29 1.23,3.59 l -0.03,0.9 -0.02,0.46 -0.15,2.08 -0.37,0.82 -0.38,0.8 -0.12,0.14 -0.26,0.3 -0.48,0.58 c -0.6,0.82 -1.4,1.36 -2.38,1.64 -0.58,0.15 -1.17,0.23 -1.75,0.23 m 266.04,60.42 c -0.91,0 -1.79,-0.18 -2.63,-0.51 -1.05,-0.28 -2.02,-0.75 -2.9,-1.41 -1.19,-0.83 -2.17,-1.85 -2.95,-3.07 l -1.58,-2.18 -1.04,-2.15 -0.45,-2.17 0.18,-2.08 0.84,-1.84 1.45,-1.43 1.89,-0.87 2.19,-0.32 c 0.12,0 0.23,0 0.35,0 1.13,0 2.22,0.21 3.26,0.63 l 2.43,1.08 2.25,1.57 1.83,1.92 1.32,2.1 0.74,2.16 0.13,2.13 -0.51,1.95 c -0.32,0.99 -0.94,1.78 -1.87,2.34 l -1.39,1.19 c -0.99,0.63 -2.08,0.95 -3.27,0.95 -0.09,0.01 -0.18,0.01 -0.27,0.01 m -789.53,91.23 c -19.81,2.47 -39.61,5.2 -59.41,8.14 -0.14,0.02 -0.28,0.04 -0.42,0.06 0.14,-0.02 0.28,-0.04 0.42,-0.06 19.8,-2.94 39.6,-5.67 59.41,-8.14 v 0"
         style="fill:#c10d0c;fill-opacity:1;fill-rule:nonzero;stroke:none"
         id="path20" />
      <path
         d="m 1302.83,1887.05 c -3.89,0 -7.77,0.05 -11.64,0.17 -38.42,1.16 -77.64,7.44 -114.76,17.26 -26.31,6.97 -51.93,16.49 -76.74,27.73 4.12,-1.21 8.26,-2.38 12.39,-3.51 48.09,-13.09 97.69,-20.78 147.19,-26.09 15.67,-1.68 31.4,-3.29 47.13,-4.14 4.28,-0.23 8.58,-0.33 12.89,-0.33 9.19,0 18.44,0.43 27.6,0.84 5.35,-0.13 10.68,-0.23 16.02,-0.32 10.07,-0.15 20.12,-0.33 30.14,-0.33 8.11,0 16.21,0.12 24.31,0.46 -8.71,-1.69 -17.44,-3.07 -26.05,-4.31 -29.08,-4.21 -58.97,-7.43 -88.48,-7.43"
         style="fill:#6f0504;fill-opacity:1;fill-rule:nonzero;stroke:none"
         id="path22" />
      <path
         d="m 906.246,79.8398 c -0.156,0.0196 -0.312,0.0391 -0.473,0.0586 -0.113,0.0118 -0.23,0.0196 -0.343,0.0313 0.113,-0.0117 0.23,-0.0195 0.343,-0.0313 0.161,-0.0195 0.317,-0.039 0.473,-0.0586 v 0 m -0.933,0.1094 c -0.067,0 -0.129,0.0117 -0.196,0.0196 0.063,-0.0079 0.133,-0.0196 0.196,-0.0196"
         style="fill:#5a0403;fill-opacity:1;fill-rule:nonzero;stroke:none"
         id="path24" />
      <path
         d="m 1244.85,54.6406 c -0.01,0 -0.02,0 -0.02,0 0,0 0.01,0 0.02,0 v 0 m 0.02,0 c 21.82,0 44.58,1.0899 57.13,4.0586 -12.55,-2.9687 -35.3,-4.0586 -57.13,-4.0586 m -54.56,3.0586 c -0.02,0.0117 -0.04,0.0117 -0.06,0.0196 0.02,-0.0079 0.04,-0.0079 0.06,-0.0196 m -0.09,0.0313 c -0.03,0.0078 -0.07,0.0195 -0.1,0.0312 0.03,-0.0117 0.07,-0.0234 0.1,-0.0312 m -0.2,0.0586 c -0.02,0 -0.04,0.0117 -0.06,0.0117 -15.88,1.4101 -31.97,1.3906 -47.29,6.1289 -38.74,11.9687 -67.58,44.1603 -106.84,54.6093 v 0 0 c 39.26,-10.449 68.1,-42.6406 106.84,-54.6093 15.32,-4.7383 31.41,-4.7188 47.29,-6.1289 0.02,0 0.04,-0.0117 0.06,-0.0117 m 112.32,0.9922 c 0.01,0 0.03,0 0.04,0.0078 -0.01,-0.0078 -0.03,-0.0078 -0.04,-0.0078 m 0.29,0.0703 c 0.03,0 0.06,0.0078 0.09,0.0195 2.74,0.6797 5.43,1.5195 8.15,2.2695 18.42,1.3399 36.6,4.9492 53.91,12.0508 14.26,5.8399 27.6,13.5391 40.99,21.1172 5.58,2.1133 11.17,4.2031 16.78,6.2224 13.16,4.739 26.54,9.77 40.19,12.891 0.19,0.039 0.38,0.09 0.58,0.129 -0.2,-0.039 -0.39,-0.09 -0.58,-0.129 -13.65,-3.121 -27.03,-8.152 -40.19,-12.891 -5.61,-2.0193 -11.2,-4.1091 -16.78,-6.2224 -13.39,-7.5781 -26.73,-15.2773 -40.99,-21.1172 -17.31,-7.1016 -35.49,-10.7109 -53.91,-12.0508 -2.72,-0.75 -5.41,-1.5898 -8.15,-2.2695 -0.03,-0.0117 -0.06,-0.0195 -0.09,-0.0195 m 268.7,19.5976 c -0.01,0 -0.02,0 -0.03,0 0.01,0 0.02,0 0.03,0 v 0 m -640.201,0 c -0.004,0 -0.008,0 -0.012,0 0.004,0 0.008,0 0.012,0 v 0 m 640.211,0 c 8.01,0 16.11,0.461 24.3,1.3321 -8.19,-0.8711 -16.28,-1.3321 -24.3,-1.3321 m -640.18,0 c 23.481,0.0117 46.254,3.961 68.645,13.211 -22.391,-9.25 -45.16,-13.1993 -68.645,-13.211 m 664.59,1.3399 c 0.16,0.0195 0.31,0.0429 0.46,0.0507 -0.15,-0.0078 -0.3,-0.0312 -0.46,-0.0507 m -689.504,0.0507 c -0.156,0.0196 -0.312,0.0391 -0.473,0.0586 -0.113,0.0118 -0.23,0.0196 -0.343,0.0313 v 0 c 0.113,-0.0117 0.23,-0.0195 0.343,-0.0313 0.161,-0.0195 0.317,-0.039 0.473,-0.0586 m 596.094,11.9493 c -0.44,0.1797 -0.87,0.3593 -1.3,0.5507 -9.36,3.9688 -18.69,8.4612 -28.39,11.7302 v 0 c 9.7,-3.269 19.03,-7.7614 28.39,-11.7302 0.43,-0.1914 0.86,-0.371 1.3,-0.5507 m -29.69,12.2809 c 0.14,0.039 0.27,0.071 0.41,0.102 -0.14,-0.031 -0.27,-0.063 -0.41,-0.102 m -443.15,0.078 c -0.21,0.051 -0.42,0.102 -0.63,0.153 0.21,-0.051 0.42,-0.102 0.63,-0.153 m 443.8,0.082 c 10.48,2.481 20.86,3.321 31.29,3.321 -10.43,0 -20.81,-0.84 -31.29,-3.321 m -508.265,1.52 c 0.188,0.02 0.375,0.039 0.563,0.051 -0.188,-0.012 -0.375,-0.031 -0.563,-0.051 m 0.781,0.07 c 0.043,0 0.086,0.008 0.133,0.008 -0.047,0 -0.09,-0.008 -0.133,-0.008 m 0.5,0.039 c 10.61,0.879 21.008,1.711 31.36,1.711 -10.352,0 -20.75,-0.832 -31.36,-1.711 m 563.674,0.473 c -0.11,0.008 -0.21,0.02 -0.32,0.027 0.11,-0.007 0.21,-0.019 0.32,-0.027 m -25.36,1.219 c 0,0 -0.01,0 -0.02,0 v 0 c 0.01,0 0.02,0 0.02,0 m -506.911,0.019 c -0.008,0 -0.016,0 -0.024,0 v 0 c 0.008,0 0.016,0 0.024,0 m 465.711,6.012 c 8.59,1.918 17.95,3.227 27.21,3.227 -9.26,0 -18.62,-1.309 -27.21,-3.227 m 27.23,3.227 v 0 0 0 m -501.879,1.64 c 8.102,1.871 16.309,2.981 24.609,2.981 -8.3,0 -16.507,-1.11 -24.609,-2.981 m 46.729,0.172 c -0.03,0.008 -0.05,0.008 -0.07,0.02 0.02,-0.012 0.04,-0.012 0.07,-0.02 m -22.07,2.809 c -0.01,0 -0.02,0 -0.02,0 v 0 c 0,0 0.01,0 0.02,0 m 643.39,1963.21 c 50.84,9.61 102.07,15.28 153.3,15.28 -51.23,-0.01 -102.47,-5.67 -153.3,-15.28 m 153.35,15.28 c 0,0 -0.01,0 -0.02,0 v 0 c 0.01,0 0.02,0 0.02,0"
         style="fill:#4e0101;fill-opacity:1;fill-rule:nonzero;stroke:none"
         id="path26" />
      <path
         d="m 1244.85,54.6406 c -0.01,0 -0.02,0 -0.02,0 -24.87,0 -48.53,1.4102 -54.52,3.0586 -0.02,0.0117 -0.04,0.0117 -0.06,0.0196 -0.01,0 -0.02,0 -0.03,0.0117 -0.03,0.0078 -0.07,0.0195 -0.1,0.0312 -0.03,0.0078 -0.06,0.0196 -0.1,0.0274 -0.02,0 -0.04,0.0117 -0.06,0.0117 -15.88,1.4101 -31.97,1.3906 -47.29,6.1289 -38.74,11.9687 -67.58,44.1603 -106.84,54.6093 v 0 c -0.11,0.031 -0.22,0.051 -0.32,0.082 -0.03,0.008 -0.05,0.008 -0.07,0.02 -7.41,1.937 -14.74,2.789 -22,2.789 -0.01,0 -0.02,0 -0.02,0 v 0 0 c -0.01,0 -0.02,0 -0.03,0 -8.3,0 -16.507,-1.11 -24.609,-2.981 -0.359,-0.078 -0.722,-0.168 -1.086,-0.25 v 0 c -8.211,-3.179 -15.875,-7.66 -23.367,-12.5 v 0 0 0 0 c 0.238,0.02 0.473,0.031 0.707,0.051 0.188,0.02 0.375,0.039 0.563,0.051 0.07,0.008 0.144,0.008 0.218,0.019 0.043,0 0.086,0.008 0.133,0.008 0.121,0.012 0.246,0.024 0.367,0.031 10.61,0.879 21.008,1.711 31.36,1.711 0.008,0 0.012,0 0.019,0 0.008,0 0.016,0 0.024,0 10.381,0 20.721,-0.84 31.151,-3.269 0.21,-0.051 0.42,-0.102 0.63,-0.153 0.11,-0.027 0.21,-0.046 0.31,-0.078 -9.7,-3.269 -19.03,-7.7614 -28.39,-11.7302 v 0 c -0.54,-0.2304 -1.08,-0.4609 -1.615,-0.6796 -22.391,-9.25 -45.164,-13.1993 -68.645,-13.211 -0.008,0 -0.019,0 -0.031,0 -0.004,0 -0.008,0 -0.012,0 -8.199,0 -16.484,0.4922 -24.871,1.3906 -0.156,0.0196 -0.312,0.0391 -0.473,0.0586 -0.113,0.0118 -0.23,0.0196 -0.343,0.0313 -0.043,0.0117 -0.078,0.0117 -0.117,0.0195 -0.063,0 -0.133,0.0117 -0.196,0.0196 -23.293,2.6015 -46.347,7.1406 -69.09,13.0507 1.075,-0.0195 2.149,-0.0312 3.227,-0.0312 12.883,0 25.644,1.4609 37.687,5.5937 20.961,7.18 37.758,21.387 55.059,34.688 21.102,16.21 43.227,27.898 69.98,31.21 5.39,0.668 10.77,0.981 16.13,0.981 26.65,0 52.89,-7.633 77.81,-16.832 52.58,-19.438 102.82,-45.508 159.23,-45.508 6.21,0 12.5,0.32 18.88,0.988 53.16,5.641 98.17,33.532 143.38,59.813 24,13.937 48.53,27.226 74.93,36.09 15.71,5.258 30.84,7.968 46.13,7.968 12.07,0 24.24,-1.691 36.88,-5.14 24.29,-6.629 47.6,-16.91 72.7,-20.34 5.13,-0.699 10.15,-1.031 15.09,-1.031 21.35,0 41.14,6.191 61.17,15.41 50.35,23.152 92.79,61.25 128.92,102.66 38.47,44.09 70.96,93.191 100.33,143.691 61.11,105.071 108.49,217.161 143.24,333.622 37.84,126.828 61.1,258.138 69.39,390.228 8.21,130.92 1.59,263.14 -23.16,392.05 -21.86,113.91 -56.1,225.65 -123.13,321.55 -61.54,88.04 -149.39,164.86 -257.07,187.08 -21.14,4.35 -42.63,6.47 -64.18,6.47 -5.09,0 -10.2,-0.12 -15.29,-0.35 -3.51,-0.17 -5.14,-4.18 -2.81,-6.78 11.2,-12.44 19.97,-27.36 20.68,-42.96 -0.92,-0.93 -1.7,-2.01 -2.05,-3.25 -0.47,-1.61 -0.5,-3.18 0.44,-4.67 0.3,-0.47 0.67,-0.86 1.08,-1.17 -0.84,-5.07 -2.63,-10.19 -5.55,-15.27 -13.36,-23.24 -39.89,-37.74 -63.32,-48.78 -57.35,-27.02 -122.28,-41.65 -184.93,-49.77 -9.85,-1.27 -19.69,-2.02 -29.54,-2.44 17.38,3.37 34.68,7.96 50.73,15.12 16.24,3.98 32.19,9.01 47.6,15.42 26.3,10.94 53.92,26.61 70.26,50.75 7.5,11.08 11.48,24.16 4.6,35.99 -7.33,12.63 -22,20.18 -34.93,25.71 -16.93,7.23 -34.97,11.86 -53.01,15.58 -33.59,-7.16 -67.06,-14.9 -100.94,-20.83 38.27,6.7 76.01,15.76 114.01,23.6 15.44,5.21 31.38,8.89 47.4,11.82 18.73,3.43 37.64,5.85 56.54,8.08 12.41,1.47 24.81,3.06 37.21,4.61 v 0 c 50.83,9.61 102.07,15.27 153.3,15.28 0.01,0 0.02,0 0.03,0 0.01,0 0.02,0 0.02,0 50.22,0 100.45,-5.45 150.3,-17.97 97.93,-24.59 188.97,-74.15 262.76,-143.08 78.44,-73.28 135.18,-165.53 170.8,-266.44 40.38,-114.38 56.55,-236.23 56.58,-357.21 0,-2.17 -0.01,-4.33 -0.02,-6.5 -0.56,-124.4 -17.98,-248.75 -49.19,-369.118 C 2372.25,827.172 2330.59,717.039 2277.33,613.789 2226.91,516.039 2163.92,424.66 2086.31,346.461 2001.24,260.75 1898.29,190.828 1789.46,138.879 1728.9,109.961 1663.68,87.2695 1596.69,79.8984 v 0 c -0.16,-0.0195 -0.32,-0.039 -0.48,-0.0586 -0.15,-0.0078 -0.3,-0.0312 -0.46,-0.0507 -0.03,0 -0.07,0 -0.11,-0.0078 -8.19,-0.8711 -16.29,-1.3321 -24.3,-1.3321 h -0.01 c -0.01,0 -0.02,0 -0.03,0 -23.59,0.0117 -46.47,4 -68.96,13.3399 -0.44,0.1797 -0.87,0.3593 -1.3,0.5507 -9.36,3.9688 -18.69,8.4612 -28.39,11.7302 v 0 c 0.14,0.039 0.27,0.071 0.41,0.102 0.08,0.019 0.16,0.039 0.24,0.058 10.48,2.481 20.86,3.321 31.29,3.321 0.01,0 0.02,0 0.02,0 0.01,0 0.02,0 0.02,0 8.29,0 16.61,-0.531 25.04,-1.192 0.11,-0.007 0.21,-0.019 0.32,-0.027 v 0 0 0 0 0 0 c -5.41,2.758 -10.86,5.418 -16.66,7.277 v 0 c -7.14,2.27 -14.87,3.2 -22.67,3.2 v 0 0 0 c -0.01,0 -0.02,0 -0.02,0 -9.26,0 -18.62,-1.309 -27.21,-3.227 -0.04,-0.012 -0.08,-0.023 -0.11,-0.031 -0.2,-0.039 -0.39,-0.09 -0.58,-0.129 -13.65,-3.121 -27.03,-8.152 -40.19,-12.891 -5.61,-2.0193 -11.2,-4.1091 -16.78,-6.2224 -13.39,-7.5781 -26.73,-15.2773 -40.99,-21.1172 -17.31,-7.1016 -35.49,-10.7109 -53.91,-12.0508 -2.72,-0.75 -5.41,-1.5898 -8.15,-2.2695 -0.03,-0.0117 -0.06,-0.0195 -0.09,-0.0195 -0.09,-0.0196 -0.17,-0.043 -0.25,-0.0625 -0.01,-0.0078 -0.03,-0.0078 -0.04,-0.0078 -0.11,-0.0313 -0.22,-0.0625 -0.34,-0.0821 -12.55,-2.9687 -35.31,-4.0586 -57.13,-4.0586 -0.01,0 -0.01,0 -0.02,0 M 2231.63,680.18 c -8.13,0 -15.75,-14.469 -4.95,-14.469 8.13,0 15.75,14.469 4.95,14.469 m 25.93,331.19 c -3.3,0 -6.63,-2.28 -8.34,-4.91 -14.58,-22.421 -15.77,-55.038 1.51,-76.401 1.58,-1.95 3.75,-2.758 6.05,-2.758 4.37,0 9.18,2.949 11.16,6.519 11.4,20.68 13.75,45.078 2.12,66.22 -1.35,2.46 -4.38,3.27 -7.18,3.27 -0.33,0 -0.65,-0.02 -0.96,-0.04 1.46,2.94 1.21,6.71 -2.43,7.82 -0.63,0.19 -1.28,0.28 -1.93,0.28 m 79.14,85.29 c -0.58,0 -1.17,-0.08 -1.76,-0.23 -2.35,-0.57 -4.69,-1.75 -6.31,-3.59 l -1.44,-1.85 c -0.78,-1.2 -1.23,-2.52 -1.36,-3.94 0.12,-1.76 0.23,-3.53 0.35,-5.3 l 0.17,-2.6 c 0.07,-1.11 0.14,-1.75 0.39,-2.71 l 0.34,-1.32 0.68,-1.47 1.89,-1.47 1.61,-0.48 c 0.42,-0.09 0.84,-0.14 1.26,-0.14 0.5,0 1,0.07 1.51,0.2 1.37,0.34 2.66,0.94 3.84,1.71 0.92,0.59 1.68,1.34 2.29,2.23 0.66,0.73 1.14,1.57 1.45,2.52 l 0.31,1.36 c 0.22,0.96 0.57,2.08 0.64,3.01 l 0.17,2.67 c 0.11,1.81 0.23,3.63 0.34,5.45 0.12,1.86 -0.69,3.77 -2.24,4.85 -0.83,0.58 -1.73,0.9 -2.72,0.95 -0.47,0.1 -0.94,0.15 -1.41,0.15 m -239.34,814.82 c -2.02,0 -4.03,-0.78 -5.67,-1.93 -1.88,-1.31 -4.37,-4.04 -4.17,-6.58 0.27,-3.3 0.54,-6.29 1.53,-9.43 0.86,-2.77 1.77,-5.52 2.77,-8.24 2.12,-5.75 5.19,-11.37 8.42,-16.59 6.17,-9.96 14.51,-19.16 25,-24.63 1.78,-0.92 3.68,-1.34 5.57,-1.34 6.1,-0.01 12.18,4.36 14.26,10.23 4.17,11.74 -0.26,24.87 -5.33,35.56 -5,10.52 -12.75,20.88 -23.84,25.33 -1.19,0.48 -2.45,0.69 -3.73,0.69 -3.66,0 -7.53,-1.77 -10.66,-4.31 l -2.21,0.98 c -0.64,0.18 -1.29,0.26 -1.94,0.26"
         style="fill:#880202;fill-opacity:1;fill-rule:nonzero;stroke:none"
         id="path28" />
      <path
         d="m 1393.05,1898.33 c -10.02,0 -20.07,0.18 -30.14,0.33 -5.34,0.09 -10.67,0.19 -16.02,0.32 2.2,0.1 4.39,0.2 6.58,0.29 18.24,0.77 36.46,2.08 54.59,4.19 20.1,2.33 40.27,5.61 60.03,10.45 -16.05,-7.16 -33.35,-11.75 -50.73,-15.12 -8.1,-0.34 -16.2,-0.46 -24.31,-0.46"
         style="fill:#4e0101;fill-opacity:1;fill-rule:nonzero;stroke:none"
         id="path30" />
      <path
         d="m 1210.24,2026.32 c -0.06,0 -0.12,0.01 -0.18,0.01 0.06,0 0.12,-0.01 0.18,-0.01"
         style="fill:#5a0403;fill-opacity:1;fill-rule:nonzero;stroke:none"
         id="path32" />
      <path
         d="m 1209.87,2026.34 c -24.06,0.76 -48.08,2.28 -72.02,4.61 0.06,0.03 0.13,0.05 0.19,0.08 23.88,-2.33 47.83,-3.93 71.83,-4.69"
         style="fill:#5a0403;fill-opacity:1;fill-rule:nonzero;stroke:none"
         id="path34" />
      <path
         d="m 1400.93,2036.4 c 0.07,0.01 0.13,0.02 0.2,0.03 -0.07,-0.01 -0.13,-0.02 -0.2,-0.03"
         style="fill:#880202;fill-opacity:1;fill-rule:nonzero;stroke:none"
         id="path36" />
      <path
         d="m 1031.75,2042.82 c -1.88,0.28 -3.76,0.56 -5.64,0.84 0.03,0.01 0.05,0.02 0.08,0.04 1.85,-0.29 3.71,-0.6 5.56,-0.88"
         style="fill:#580403;fill-opacity:1;fill-rule:nonzero;stroke:none"
         id="path38" />
      <path
         d="m 1099.69,1932.21 c -18.96,5.6 -37.69,12.29 -55.29,21.28 -16.03,8.18 -32.85,18.72 -42.47,34.43 -6.86,11.21 -9.914,27.68 -2.375,38.49 5.865,8.41 16.225,13.59 26.555,17.25 1.88,-0.28 3.76,-0.56 5.64,-0.84 0.14,-0.02 0.28,-0.04 0.42,-0.06 19.8,-2.94 39.6,-5.67 59.41,-8.14 v 0 0 0 0 c -4.04,1.24 -8.09,2.43 -12.13,3.67 19.4,-3 38.87,-5.44 58.4,-7.34 -8.76,-3.33 -17.3,-7.11 -25.4,-11.65 -19.44,-10.89 -35.23,-28.2 -19.87,-49.75 3.84,-5.39 8.29,-10.27 13.21,-14.7 -1,0.42 -1.99,0.83 -2.99,1.26 -30.34,12.82 -66.54,21.47 -91.41,43.98 -0.6,0.54 -1.35,0.77 -2.16,0.77 -3.68,0 -8.62,-4.83 -6.01,-7.79 20.03,-22.73 46.66,-36.33 73.29,-49.76 7.64,-3.85 15.37,-7.56 23.18,-11.1"
         style="fill:#850202;fill-opacity:1;fill-rule:nonzero;stroke:none"
         id="path40" />
      <path
         d="m 1319.29,1898.14 c -4.31,0 -8.61,0.1 -12.89,0.33 -15.73,0.85 -31.46,2.46 -47.13,4.14 -49.5,5.31 -99.1,13 -147.19,26.09 -4.13,1.13 -8.27,2.3 -12.39,3.51 -7.81,3.54 -15.54,7.25 -23.18,11.1 -26.63,13.43 -53.26,27.03 -73.29,49.76 -2.61,2.96 2.33,7.79 6.01,7.79 0.81,0 1.56,-0.23 2.16,-0.77 24.87,-22.51 61.07,-31.16 91.41,-43.98 1,-0.43 1.99,-0.84 2.99,-1.26 26.6,-23.94 67.01,-34.76 100.02,-41.76 46.28,-9.82 93.82,-12.97 141.08,-14.11 -9.16,-0.41 -18.41,-0.84 -27.6,-0.84"
         style="fill:#4d0101;fill-opacity:1;fill-rule:nonzero;stroke:none"
         id="path42" />
      <path
         d="m 1212.25,2026.26 c -0.67,0.02 -1.34,0.04 -2.01,0.06 0.67,-0.02 1.34,-0.04 2.01,-0.06 m -2.19,0.07 c -0.07,0 -0.13,0.01 -0.19,0.01 0.06,0 0.12,-0.01 0.19,-0.01"
         style="fill:#850202;fill-opacity:1;fill-rule:nonzero;stroke:none"
         id="path44" />
      <path
         d="m 1400.25,2036.28 c 0.23,0.04 0.45,0.08 0.68,0.12 -0.23,-0.04 -0.45,-0.08 -0.68,-0.12"
         style="fill:#580403;fill-opacity:1;fill-rule:nonzero;stroke:none"
         id="path46" />
      <path
         d="m 1401.13,2036.43 c 0.18,0.03 0.36,0.07 0.54,0.1 -0.18,-0.03 -0.36,-0.07 -0.54,-0.1"
         style="fill:#580403;fill-opacity:1;fill-rule:nonzero;stroke:none"
         id="path48" />
      <path
         d="m 1258.79,2025.54 h -0.01 0.01 v 0 m 0.03,0 c 11.42,0 22.84,0.14 34.25,0.45 v 0 c -11.41,-0.31 -22.83,-0.45 -34.25,-0.45 m 80.55,2.71 v 0 c 4.74,0.34 9.47,0.72 14.19,1.13 -4.72,-0.41 -9.45,-0.79 -14.19,-1.13"
         style="fill:#360000;fill-opacity:1;fill-rule:nonzero;stroke:none"
         id="path50" />
      <path
         d="m 1340.18,1908.31 c -9.05,0 -18.09,0.19 -27.08,0.62 11.41,13.54 14.47,34.89 17.21,51.25 3.76,22.52 6.25,45.38 9.06,68.07 4.74,0.34 9.47,0.72 14.19,1.13 0.76,0.07 1.51,0.14 2.27,0.2 14.85,1.89 29.66,4.13 44.42,6.7 v 0 c 0.23,0.04 0.45,0.08 0.68,0.12 0.07,0.01 0.13,0.02 0.2,0.03 0.18,0.03 0.36,0.07 0.54,0.1 33.88,5.93 67.35,13.67 100.94,20.83 18.04,-3.72 36.08,-8.35 53.01,-15.58 12.93,-5.53 27.6,-13.08 34.93,-25.71 6.88,-11.83 2.9,-24.91 -4.6,-35.99 -16.34,-24.14 -43.96,-39.81 -70.26,-50.75 -15.41,-6.41 -31.36,-11.44 -47.6,-15.42 7.57,3.39 14.87,7.34 21.76,12 2.2,1.49 1.67,4.42 -0.51,4.42 -0.4,0 -0.86,-0.1 -1.36,-0.32 -26.89,-11.83 -56.56,-16.71 -85.69,-19.03 -20.56,-1.64 -41.37,-2.67 -62.11,-2.67 m 124.28,47.77 c -0.87,0 -1.73,-0.08 -2.54,-0.25 -2.42,-0.49 -4.45,-1.76 -6.49,-3.05 -1.96,-1.23 -3.64,-2.76 -5.15,-4.49 -1.41,-1.61 -2.68,-3.61 -2.8,-5.82 -0.1,-1.77 0.66,-3.9 2.25,-4.87 l 0.97,-0.31 0.43,-0.99 c 1.02,-1.35 2.49,-2.45 4.18,-2.8 0.85,-0.18 1.72,-0.28 2.59,-0.28 0.68,0 1.35,0.06 2.03,0.2 2.23,0.46 4.24,1.6 5.95,3.08 l 0.96,0.99 c 1.58,1.03 3.02,2.21 4.21,3.73 l 0.93,1.38 1.38,0.2 c 2.32,0.4 4.55,2.44 5.03,4.73 0.42,2.04 -0.97,3.92 -3.14,3.92 -0.03,0 -0.07,0 -0.11,0 h -1.9 c -0.9,1.95 -2.59,3.37 -4.68,4.02 -1.29,0.4 -2.7,0.61 -4.1,0.61 m -188.05,-44.63 c -25.57,2.3 -50.94,5.91 -76.07,11.83 -32.31,7.63 -63.93,18.77 -94.55,31.57 -4.92,4.43 -9.37,9.31 -13.21,14.7 -15.36,21.55 0.43,38.86 19.87,49.75 8.1,4.54 16.64,8.32 25.4,11.65 23.94,-2.33 47.96,-3.85 72.02,-4.61 0.06,0 0.12,-0.01 0.19,-0.01 0.06,0 0.12,-0.01 0.18,-0.01 0.67,-0.02 1.34,-0.04 2.01,-0.06 v 0 c 15.48,-0.46 31,-0.72 46.53,-0.72 h 0.01 v 0 0 c 0.01,0 0.02,0 0.03,0 11.42,0 22.84,0.14 34.25,0.45 -0.31,-5.6 -0.72,-11.19 -1.26,-16.75 -3.15,-32.93 -12.09,-64.92 -15.4,-97.79"
         style="fill:#5e0000;fill-opacity:1;fill-rule:nonzero;stroke:none"
         id="path52" />
      <path
         d="m 1346.89,1898.98 c -47.26,1.14 -94.8,4.29 -141.08,14.11 -33.01,7 -73.42,17.82 -100.02,41.76 30.62,-12.8 62.24,-23.94 94.55,-31.57 25.13,-5.92 50.5,-9.53 76.07,-11.83 0,-0.01 -0.01,-0.01 -0.01,-0.02 4.2,-0.75 8.42,-1.43 12.65,-1.98 v 0 c 2.75,-0.38 5.51,-0.72 8.27,-0.98 0.01,0.01 0.01,0.03 0.02,0.05 4.78,-0.44 9.57,-0.68 14.35,-0.68 0.15,0 0.3,0 0.45,0 v 0 c 0.33,0.36 0.65,0.72 0.96,1.09 8.99,-0.43 18.03,-0.62 27.08,-0.62 20.74,0 41.55,1.03 62.11,2.67 29.13,2.32 58.8,7.2 85.69,19.03 0.5,0.22 0.96,0.32 1.36,0.32 2.18,0 2.71,-2.93 0.51,-4.42 -6.89,-4.66 -14.19,-8.61 -21.76,-12 -19.76,-4.84 -39.93,-8.12 -60.03,-10.45 -18.13,-2.11 -36.35,-3.42 -54.59,-4.19 -2.19,-0.09 -4.38,-0.19 -6.58,-0.29"
         style="fill:#360000;fill-opacity:1;fill-rule:nonzero;stroke:none"
         id="path54" />
      <path
         d="m 1291.81,2009.24 c -3.16,-32.94 -12.09,-64.93 -15.41,-97.81 11.82,-2.11 23.83,-3.63 35.74,-3.59 12.2,13.45 15.35,35.53 18.17,52.34 4.16,24.91 6.77,50.23 9.97,75.29 10.09,78.9 2.17,159.22 -14.39,236.68 -16.62,77.73 -41.98,153.45 -70.32,227.61 -25.62,67.06 -58.56,130.93 -101.87,188.34 -22.96,30.44 -48.12,59.59 -75.67,85.97 -25.06,23.98 -54.63,48.42 -90.499,51.25 -0.867,0.19 -1.718,0.41 -2.699,0.49 -13.066,1.15 -25.449,-7.38 -34.242,-16.17 -9.59,-9.59 -18.641,-21.17 -25.469,-32.88 -0.891,-1.52 -0.051,-2.39 1.106,-2.58 -3.118,-3.96 -6.157,-8 -9.086,-12.07 -11.539,-16.04 -21.852,-33.12 -29.786,-51.25 -5.742,-13.12 -11.367,-28.43 -9.531,-43 1.516,-12 10.403,-20.43 22.66,-20.84 4.086,-0.13 7.957,0.68 11.657,2.01 20.847,-2.68 41.734,-3.96 62.48,-8.74 26.439,-6.1 51.879,-15.39 74.869,-29.91 50.98,-32.2 92.72,-78.54 125.11,-129.03 33.63,-52.4 57.3,-111.79 76.46,-170.82 20.17,-62.15 33.86,-126.65 39.54,-191.78 3.16,-36.15 4.68,-73.33 1.21,-109.51"
         style="fill:#5a370b;fill-opacity:1;fill-rule:nonzero;stroke:none"
         id="path56" />
      <path
         d="m 890.992,2672.63 c -1.808,11.74 2.871,24.51 7.141,35.21 5.996,15.06 14.047,29.3 22.867,42.86 10.066,15.5 21.32,30.42 34.121,43.76 6.457,6.74 13.938,14.86 22.606,19.77 l 0.113,0.02 c 16.84,0.8 5.515,-29.32 2.75,-37.07 -10.434,-29.26 -23.59,-58.83 -40.113,-85.12 -7.086,-11.27 -17.575,-28.82 -31.602,-32.35 -9.234,-2.33 -16.527,4.13 -17.883,12.92"
         style="fill:#ae6e32;fill-opacity:1;fill-rule:nonzero;stroke:none"
         id="path58" />
      <path
         d="m 1304.19,2102.47 c 2.16,-33.55 3.23,-68.09 -1.08,-101.52 -3.94,-30.55 -12.28,-60.69 -14.06,-91.5 2.75,-0.38 5.51,-0.72 8.27,-0.98 1.04,3.31 4.17,5.73 7.33,6.65 5.16,6.83 7.17,17.97 8.91,25.31 3.33,14.09 5.22,28.54 6.95,42.89 3.77,31.25 8.7,62.41 10.13,93.89 3.49,76.95 -8.38,153.85 -27.23,228.29 -18.36,72.51 -42.35,144.66 -71.4,213.61 -26.91,63.89 -62.3,123.98 -105.76,178.03 -20.28,25.22 -41.96,49.94 -65.52,72.16 -18.34,17.29 -39.16,34.7 -62.257,46.08 3.517,-11 -1.614,-27.86 -4.653,-36.81 -12.039,-35.51 -28.23,-73 -50.867,-102.95 -3.844,-5.09 -8.371,-10.59 -13.508,-15.4 20.938,0.63 43.071,-4.19 62.133,-9.08 29.962,-7.69 57.212,-19.94 82.212,-38.16 102.29,-74.54 158.47,-196.57 194.14,-314.48 19.28,-63.77 31.98,-129.5 36.26,-196.03"
         style="fill:#875414;fill-opacity:1;fill-rule:nonzero;stroke:none"
         id="path60" />
      <path
         d="m 1295.52,2179.25 c -6.45,40.3 -15.77,80.15 -27.59,119.25 -35.67,117.91 -91.85,239.94 -194.14,314.48 -25,18.22 -52.25,30.47 -82.212,38.16 -17.922,4.59 -38.551,9.13 -58.355,9.13 -1.262,0 -2.524,-0.02 -3.778,-0.05 v 0 c 1.254,0.03 2.516,0.05 3.778,0.05 19.804,0 40.433,-4.54 58.355,-9.13 29.962,-7.69 57.212,-19.94 82.212,-38.16 102.29,-74.54 158.47,-196.57 194.14,-314.48 11.74,-38.84 21.05,-78.41 27.49,-118.44 0.04,-0.27 0.07,-0.54 0.1,-0.81 m -349.18,500.97 c 0.008,0.01 0.015,0.03 0.027,0.04 -0.012,-0.01 -0.019,-0.03 -0.027,-0.04 m 0.16,0.23 c 7.41,10.37 14.082,21.56 20.145,33.18 0,-0.03 0,-0.05 0,-0.07 -6.055,-11.6 -12.743,-22.76 -20.145,-33.11"
         style="fill:#b1791e;fill-opacity:1;fill-rule:nonzero;stroke:none"
         id="path62" />
      <path
         d="m 1295.42,2180.06 c -6.44,40.03 -15.75,79.6 -27.49,118.44 -35.67,117.91 -91.85,239.94 -194.14,314.48 -25,18.22 -52.25,30.47 -82.212,38.16 -17.922,4.59 -38.551,9.13 -58.355,9.13 -1.262,0 -2.524,-0.02 -3.778,-0.05 5.137,4.81 9.664,10.31 13.508,15.4 1.145,1.51 2.274,3.05 3.387,4.6 0.008,0.01 0.015,0.03 0.027,0.04 0.043,0.06 0.086,0.12 0.133,0.19 7.402,10.35 14.09,21.51 20.145,33.11 0.085,-6.83 1.25,-13.6 4.32,-19.92 6.832,-14.1 21.969,-21.25 34.695,-29.01 30.71,-18.76 62.14,-36.77 90.28,-59.35 28.19,-22.62 51.21,-49.94 71.96,-79.38 39.52,-56.06 69.49,-118.64 91.14,-183.63 17.54,-52.64 29.69,-107.11 36.38,-162.21"
         style="fill:#c78c26;fill-opacity:1;fill-rule:nonzero;stroke:none"
         id="path64" />
      <path
         d="m 432.566,1948.7 c -7.414,0 -15.113,1.79 -21.019,5.79 -6.68,4.53 -9.57,11.8 -6.813,19.54 0.211,0.58 0.442,1.17 0.688,1.74 18.781,13.28 38.519,25.15 58.973,35.75 1.293,0.13 2.589,0.2 3.882,0.2 1.098,0 2.196,-0.05 3.293,-0.15 11.051,-1.08 21.453,-9.19 21.364,-21.11 -0.094,-11.8 -10.309,-21 -19.254,-27.16 -9.672,-6.65 -21.039,-11.5 -32.555,-13.78 -2.723,-0.54 -5.617,-0.82 -8.559,-0.82"
         style="fill:#ec9392;fill-opacity:1;fill-rule:nonzero;stroke:none"
         id="path66" />
      <path
         d="m 405.422,1975.77 c 3.273,7.5 9.785,13.48 16.238,18.22 6.496,4.75 14.352,8.78 22.582,11.19 6.34,3.1 13.215,5.62 20.153,6.34 -20.454,-10.6 -40.192,-22.47 -58.973,-35.75"
         style="fill:#e18282;fill-opacity:1;fill-rule:nonzero;stroke:none"
         id="path68" />
      <path
         d="m 902.555,1811.26 c -0.602,0 -1.203,0.06 -1.793,0.21 -1.313,0.33 -2.328,1.28 -2.864,2.46 l -0.46,2.27 0.343,1.66 c 2.262,5.41 5.278,10.52 8.754,15.23 1.246,1.69 2.817,3.03 4.934,3.45 h 0.664 l 1.234,0.59 c 0.93,0.38 1.906,0.56 2.922,0.56 0.098,0 0.195,0 0.289,0 1.281,-0.09 2.527,-0.38 3.629,-1.06 l 1.668,-2.09 0.453,-1.75 c 0.141,-1.64 -0.32,-3.36 -1.242,-4.77 l -0.457,-0.66 -0.09,-0.67 c -0.101,-1.15 -0.414,-2.3 -0.668,-3.44 -0.293,-1.34 -0.98,-2.59 -1.82,-3.76 l 0.14,-0.76 c 0.43,-1.92 -1.195,-3.62 -2.793,-4.38 -0.48,-0.23 -1.039,-0.35 -1.585,-0.35 -0.856,0 -1.696,0.29 -2.215,0.95 l -1.77,-0.27 -0.281,-0.26 c -1.551,-1.34 -3.195,-2.66 -5.297,-3.01 -0.559,-0.1 -1.129,-0.15 -1.695,-0.15"
         style="fill:#ec9392;fill-opacity:1;fill-rule:nonzero;stroke:none"
         id="path70" />
      <path
         d="m 1048.88,1688.76 -1.99,0.69 -0.35,0.19 -0.28,0.05 -1.39,0.64 -0.05,0.02 -0.21,0.12 -0.43,0.24 -0.85,0.47 -0.14,0.09 -1.59,0.71 -1.48,1.42 -0.16,0.21 -0.07,0.07 -0.72,1.56 -0.14,1.74 0.37,1.83 0.88,1.83 1.33,1.71 1.77,1.51 2.02,1.14 2.07,0.68 2.05,0.21 -0.02,-0.01 0.27,0.04 c 0.38,0.04 0.66,0.06 0.7,0.06 0.05,0 -0.21,-0.03 -0.98,-0.11 h -0.01 l 1.87,-0.26 0.01,-0.01 0.04,-0.01 0.14,-0.06 0.1,-0.05 0.05,-0.02 1.64,-0.77 0.25,-0.21 0.66,-0.63 0.97,-1.4 0.36,-0.78 0.02,-0.09 0.05,-0.17 0.02,-0.26 0.63,-1.01 0.63,-1.42 0.28,-0.43 c 0.53,-0.79 0.75,-1.66 0.68,-2.6 l -0.3,-1.45 -1.22,-2.12 -1.23,-1.28 -2.29,-1.5 -1.64,-0.53 -2.32,-0.05"
         style="fill:#ec9392;fill-opacity:1;fill-rule:nonzero;stroke:none"
         id="path72" />
      <path
         d="m 1049.52,1705.89 0.25,0.03 -0.25,-0.03"
         style="fill:#ec9392;fill-opacity:1;fill-rule:nonzero;stroke:none"
         id="path74" />
      <path
         d="m 1540.11,1794.06 c -0.64,0 -1.27,0.07 -1.84,0.25 l -2.03,1.23 -0.41,0.66 -0.15,-0.1 -1.03,1.69 c -0.61,1.02 -1.02,2.16 -1.44,3.28 -0.52,1.33 -1,2.69 -1.48,4.05 -0.82,2.33 -1.65,4.69 -2.64,6.96 l -0.45,0.87 c -1.91,3.2 -0.42,6.75 1.86,9.32 1.34,1.51 3.28,2.6 5.18,3.21 1.04,0.34 2.14,0.56 3.24,0.56 0.68,0 1.35,-0.08 2.02,-0.28 2.45,-0.71 5.01,-1.01 7.43,-1.86 1.68,-0.59 3.29,-1.29 4.9,-2.05 1.42,-0.67 2.5,-2.21 3.26,-3.58 0.81,-1.47 1.06,-3.09 0.44,-4.71 -0.46,-1.21 -1.18,-2.29 -2.03,-3.26 -1.15,-1.29 -2.8,-2.21 -4.43,-2.74 l -1.7,-0.31 0.27,-1.05 0.41,-2.32 c 0.47,-1.74 -0.17,-3.49 -1.01,-4.98 -1.04,-1.83 -2.87,-3.16 -4.73,-4.04 -1.04,-0.5 -2.37,-0.8 -3.64,-0.8"
         style="fill:#e18282;fill-opacity:1;fill-rule:nonzero;stroke:none"
         id="path76" />
      <path
         d="m 1611.14,1866.26 c -0.44,0 -0.88,0.05 -1.32,0.15 l -2.47,0.86 -1.55,1.94 -0.49,2.48 0.02,0.92 0.02,0.49 c 0.02,0.77 0.09,1.18 0.38,2.15 l 1.26,2.5 0.46,0.78 c 0.69,1.08 1.57,2 2.63,2.73 1.05,0.74 2.2,1.26 3.46,1.54 0.51,0.11 1.02,0.17 1.53,0.17 0.58,0 1.17,-0.08 1.75,-0.23 0.98,-0.28 1.78,-0.82 2.38,-1.64 l 0.48,-0.58 0.26,-0.3 0.12,-0.14 0.38,-0.8 0.37,-0.82 0.15,-2.08 0.02,-0.46 0.03,-0.9 c -0.12,-1.3 -0.53,-2.5 -1.23,-3.59 l -1.32,-1.69 c -1.07,-1.11 -2.31,-1.98 -3.72,-2.61 l -2.03,-0.66 c -0.53,-0.14 -1.05,-0.21 -1.57,-0.21"
         style="fill:#e18282;fill-opacity:1;fill-rule:nonzero;stroke:none"
         id="path78" />
      <path
         d="m 246.488,1742.52 c -2.156,0 -4.734,1.58 -5.097,3.8 -0.774,4.78 -0.676,9.68 -0.094,14.46 1.164,9.59 3.848,19.89 9.519,27.86 2.895,4.07 6.715,7.73 11.477,9.49 1.562,0.57 2.961,0.81 4.414,0.81 0.922,0 1.867,-0.1 2.891,-0.27 l 0.867,-0.13 1.832,-0.28 c 0.973,-0.19 1.902,-0.48 2.82,-0.85 3.914,-1.51 0.059,-6.15 -3.097,-6.15 -0.032,0 -0.063,0 -0.094,0 0.215,-0.03 0.433,-0.08 0.648,-0.13 1.582,-0.4 3.821,-2.15 3.977,-3.95 0.847,-9.69 -0.133,-19.12 -4.449,-27.94 -4.844,-9.9 -14.457,-15.88 -25.297,-16.71 -0.106,-0.01 -0.211,-0.01 -0.317,-0.01 m 20.926,32.41 -0.105,-0.13 -0.075,-0.16 0.157,0.11 0.023,0.18 m -2.269,15.38 -0.524,-0.32 -0.398,-0.29 -0.176,-0.19 1.836,0.94 c 1.441,0.59 2.937,0.95 4.453,0.95 0.316,0 0.633,-0.01 0.949,-0.05 -0.918,0.22 -1.801,0.37 -2.742,0.39 h -0.582 l -0.957,-0.39 -0.102,-0.04 -0.586,-0.34 -1.613,-0.86 0.442,0.2"
         style="fill:#ec9392;fill-opacity:1;fill-rule:nonzero;stroke:none"
         id="path80" />
      <path
         d="m 267.234,1774.64 0.075,0.16 0.105,0.13 -0.023,-0.18 -0.157,-0.11"
         style="fill:#ec9392;fill-opacity:1;fill-rule:nonzero;stroke:none"
         id="path82" />
      <path
         d="m 1883.62,1784.41 c -0.17,0 -0.33,0 -0.5,0.01 -6.13,0.26 -11.81,2.91 -16.97,6.08 -8.72,5.38 -16.5,12.83 -22.53,21.21 -4.99,2.44 -9.45,6.16 -12.74,10.58 -5.13,6.9 2.98,16.94 9.36,19.23 1.06,0.37 2.12,0.62 3.18,0.91 l 2.38,0.63 c 2.23,0.45 4.48,0.7 6.73,0.7 2.84,0 5.68,-0.39 8.52,-1.27 9.95,-3.04 18.15,-10.49 24.59,-18.39 5.66,-6.94 10.81,-15.49 12.23,-24.46 1.25,-7.81 -6.58,-15.23 -14.25,-15.23"
         style="fill:#e18282;fill-opacity:1;fill-rule:nonzero;stroke:none"
         id="path84" />
      <path
         d="m 1876.46,1925.36 c -0.12,0 -0.23,0 -0.35,0 l -2.19,0.32 -1.89,0.87 -1.45,1.43 -0.84,1.84 -0.18,2.08 0.45,2.17 1.04,2.15 1.58,2.18 c 0.78,1.22 1.76,2.24 2.95,3.07 0.88,0.66 1.85,1.13 2.9,1.41 0.84,0.33 1.72,0.51 2.63,0.51 0.09,0 0.18,0 0.27,-0.01 1.19,0 2.28,-0.32 3.27,-0.95 l 1.39,-1.19 c 0.93,-0.56 1.55,-1.35 1.87,-2.34 l 0.51,-1.95 -0.13,-2.13 -0.74,-2.16 -1.32,-2.1 -1.83,-1.92 -2.25,-1.57 -2.43,-1.08 c -1.04,-0.42 -2.13,-0.63 -3.26,-0.63"
         style="fill:#e18282;fill-opacity:1;fill-rule:nonzero;stroke:none"
         id="path86" />
      <path
         d="m 2130.81,1842.74 c -1.89,0 -3.79,0.42 -5.57,1.34 -10.49,5.47 -18.83,14.67 -25,24.63 -3.23,5.22 -6.3,10.84 -8.42,16.59 -1,2.72 -1.91,5.47 -2.77,8.24 -0.99,3.14 -1.26,6.13 -1.53,9.43 -0.2,2.54 2.29,5.27 4.17,6.58 1.64,1.15 3.65,1.93 5.67,1.93 0.65,0 1.3,-0.08 1.94,-0.26 l 2.21,-0.98 c 3.13,2.54 7,4.31 10.66,4.31 1.28,0 2.54,-0.21 3.73,-0.69 11.09,-4.45 18.84,-14.81 23.84,-25.33 5.07,-10.69 9.5,-23.82 5.33,-35.56 -2.08,-5.87 -8.16,-10.24 -14.26,-10.23"
         style="fill:#cc7e7e;fill-opacity:1;fill-rule:nonzero;stroke:none"
         id="path88" />
      <path
         d="m 1715.68,2010.63 -1.75,0.26 -1.6,1.95 0.41,-0.41 -0.62,0.72 -1.36,0.18 c -1.25,0.15 -2.52,0.18 -3.79,0.18 -0.01,0 -0.03,0 -0.05,0 -1.15,0 -2.34,0.29 -3.48,0.48 -1,0.16 -1.95,0.48 -2.74,1.06 0.5,3.05 0.67,6.08 0.53,9.09 0.49,0.49 1.02,0.94 1.56,1.34 1.24,0.99 2.8,1.58 4.32,1.99 l 0.84,0.23 1.85,0.54 c 1.91,0.4 3.93,0.57 5.86,0.71 h 1.85 c 1.37,-0.11 2.71,-0.33 3.87,-1.15 0.86,-0.53 1.43,-1.25 1.73,-2.17 0.5,-0.84 0.68,-1.76 0.55,-2.77 l 0.02,-0.37 c -0.01,-1.21 -0.62,-2.64 -1.24,-3.65 -0.56,-0.96 -1.29,-1.77 -2.17,-2.42 l -0.93,-0.78 -0.44,-0.3 -0.99,-0.56 0.2,-0.3 c 0.81,-0.93 -0.11,-2.4 -0.84,-3.02 l -1.59,-0.83"
         style="fill:#e18282;fill-opacity:1;fill-rule:nonzero;stroke:none"
         id="path90" />
      <path
         d="m 1700.7,2015.05 c -0.41,0.31 -0.78,0.7 -1.08,1.17 -0.94,1.49 -0.91,3.06 -0.44,4.67 0.35,1.24 1.13,2.32 2.05,3.25 0.14,-3.01 -0.03,-6.04 -0.53,-9.09"
         style="fill:#cc7e7e;fill-opacity:1;fill-rule:nonzero;stroke:none"
         id="path92" />
      <path
         d="m 1457.9,1933.22 c -0.87,0 -1.74,0.1 -2.59,0.28 -1.69,0.35 -3.16,1.45 -4.18,2.8 l -0.43,0.99 -0.97,0.31 c -1.59,0.97 -2.35,3.1 -2.25,4.87 0.12,2.21 1.39,4.21 2.8,5.82 1.51,1.73 3.19,3.26 5.15,4.49 2.04,1.29 4.07,2.56 6.49,3.05 0.81,0.17 1.67,0.25 2.54,0.25 1.4,0 2.81,-0.21 4.1,-0.61 2.09,-0.65 3.78,-2.07 4.68,-4.02 h 1.9 c 0.04,0 0.08,0 0.11,0 2.17,0 3.56,-1.88 3.14,-3.92 -0.48,-2.29 -2.71,-4.33 -5.03,-4.73 l -1.38,-0.2 -0.93,-1.38 c -1.19,-1.52 -2.63,-2.7 -4.21,-3.73 l -0.96,-0.99 c -1.71,-1.48 -3.72,-2.62 -5.95,-3.08 -0.68,-0.14 -1.35,-0.2 -2.03,-0.2"
         style="fill:#bd7e7e;fill-opacity:1;fill-rule:nonzero;stroke:none"
         id="path94" />
      <path
         d="m 230.457,1048.1 c -1.504,0 -2.894,0.37 -3.871,1.32 -8.164,7.86 -12.129,18.03 -13.32,29.21 -0.614,5.69 -0.664,11.35 -0.368,17.07 0.141,2.68 0.219,5.48 0.473,8.25 l -0.293,1.24 c -1.176,7.24 6.227,14.21 13.352,14.21 1.734,0 3.449,-0.41 5.023,-1.33 1.113,-0.65 2.192,-1.37 3.231,-2.14 0.004,-0.02 0.011,-0.04 0.015,-0.06 4.645,-16.29 9.867,-32.45 15.711,-48.38 -2.246,-6.49 -6.363,-12.3 -12.379,-16.86 -1.664,-1.27 -4.808,-2.53 -7.574,-2.53"
         style="fill:#c10d0c;fill-opacity:1;fill-rule:nonzero;stroke:none"
         id="path96" />
      <path
         d="m 283.426,974.051 c -3.086,0 -5.512,1.57 -5.059,5.187 l 0.207,1.684 c 0.422,3.34 3.442,6.859 6.942,8.187 1.047,-1.937 2.105,-3.879 3.179,-5.808 1.047,-1.891 2.106,-3.77 3.18,-5.653 -2.242,-2.277 -5.621,-3.597 -8.449,-3.597"
         style="fill:#c10d0c;fill-opacity:1;fill-rule:nonzero;stroke:none"
         id="path98" />
      <path
         d="m 377.578,660.52 c -0.105,0 -0.211,0.011 -0.316,0.011 -1.524,0.039 -3.535,0.438 -4.778,1.399 -5.757,4.402 -9.726,10.031 -12.625,16.609 -1.25,2.832 -2.132,5.75 -2.5,8.832 -0.593,5.027 -1.14,11.18 3.059,14.918 2.16,1.922 4.691,3.461 7.586,3.461 0.391,0 0.789,-0.02 1.191,-0.078 l 0.914,-0.301 0.008,0.16 1.477,-0.722 c 1.004,0.23 2.019,0.461 3.058,0.461 0.078,0 0.157,0 0.239,0 1.754,-0.051 4.043,-0.52 5.472,-1.61 9.434,-7.129 13.641,-19.211 11.434,-30.781 -0.473,-2.469 -1.137,-4.289 -2.668,-6.27 -1.332,-1.711 -2.895,-3.007 -4.785,-4.078 -2.063,-1.172 -4.367,-2.011 -6.766,-2.011"
         style="fill:#c10d0c;fill-opacity:1;fill-rule:nonzero;stroke:none"
         id="path100" />
      <path
         d="m 930.906,254.699 0.024,0.121 -0.024,-0.121"
         style="fill:#c10d0c;fill-opacity:1;fill-rule:nonzero;stroke:none"
         id="path102" />
      <path
         d="m 932.691,236.07 c -0.722,1.68 -1.324,3.41 -1.726,5.18 -0.61,2.73 -0.844,5.602 -0.707,8.398 -0.067,1.122 0.008,2.243 0.32,3.313 l 0.317,1.609 0.035,0.25 c 0.25,1.66 0.621,3.309 1.129,4.91 0.718,2.258 3.132,3.938 5.429,4.168 l 2.723,-0.668 1.172,0.54 c 1.972,0.769 3.972,1.269 6.012,1.269 0.964,0 1.937,-0.109 2.921,-0.359 2.657,-0.66 4.457,-2.782 5.301,-5.27 1.371,-4.031 2.188,-8.23 2.59,-12.461 0.242,-2.519 0.41,-5.097 0.352,-7.668 -8.661,-0.64 -17.282,-1.75 -25.868,-3.211"
         style="fill:#c10d0c;fill-opacity:1;fill-rule:nonzero;stroke:none"
         id="path104" />
      <path
         d="m 944.84,222.609 c -0.785,0 -1.57,0.102 -2.332,0.332 -1.254,0.379 -2.805,1.278 -3.516,2.43 -1.508,2.418 -3.258,4.668 -4.601,7.18 -0.61,1.148 -1.188,2.32 -1.7,3.519 8.586,1.461 17.207,2.571 25.868,3.211 -0.067,-2.652 -0.375,-5.293 -1.11,-7.832 -1.133,-3.91 -5.109,-6.969 -8.808,-8.179 -1.215,-0.391 -2.512,-0.661 -3.801,-0.661"
         style="fill:#a80303;fill-opacity:1;fill-rule:nonzero;stroke:none"
         id="path106" />
      <path
         d="m 1637.74,348.309 c -0.35,0 -0.71,0.023 -1.08,0.07 -1.4,0.211 -2.76,0.801 -3.61,2.012 -0.58,0.828 -0.95,2.168 -0.83,3.187 l 0.38,1.774 -0.02,-0.012 0.03,0.07 c 0.41,2.418 1.04,4.781 1.88,7.07 -0.5,0.95 -0.87,1.961 -0.97,3.059 -0.46,5.301 3.83,10.07 8.45,12.07 0.95,0.422 1.95,0.61 2.93,0.801 1.08,0.852 2.5,1.43 3.85,1.43 0.6,0 1.2,-0.11 1.74,-0.36 l 1.25,-1.109 c 1.53,-0.371 2.93,-0.98 3.99,-2.312 1.24,-1.559 1.35,-4.52 0.6,-6.289 -1.44,-3.34 -3.07,-6.622 -4.99,-9.719 -1.84,-2.961 -4.03,-5.641 -6.18,-8.391 -1.07,-1.371 -3.03,-2.359 -4.66,-2.89 -0.93,-0.301 -1.82,-0.461 -2.76,-0.461"
         style="fill:#a80303;fill-opacity:1;fill-rule:nonzero;stroke:none"
         id="path108" />
      <path
         d="m 2256.78,927.301 c -2.3,0 -4.47,0.808 -6.05,2.758 -17.28,21.363 -16.09,53.98 -1.51,76.401 1.71,2.63 5.04,4.91 8.34,4.91 0.65,0 1.3,-0.09 1.93,-0.28 3.64,-1.11 3.89,-4.88 2.43,-7.82 0.31,0.02 0.63,0.04 0.96,0.04 2.8,0 5.83,-0.81 7.18,-3.27 11.63,-21.142 9.28,-45.54 -2.12,-66.22 -1.98,-3.57 -6.79,-6.519 -11.16,-6.519"
         style="fill:#760000;fill-opacity:1;fill-rule:nonzero;stroke:none"
         id="path110" />
      <path
         d="m 2332.52,1071.56 c -0.42,0 -0.84,0.05 -1.26,0.14 l -1.61,0.48 -1.89,1.47 -0.68,1.47 -0.34,1.32 c -0.25,0.96 -0.32,1.6 -0.39,2.71 l -0.17,2.6 c -0.12,1.77 -0.23,3.54 -0.35,5.3 0.13,1.42 0.58,2.74 1.36,3.94 l 1.44,1.85 c 1.62,1.84 3.96,3.02 6.31,3.59 0.59,0.15 1.18,0.23 1.76,0.23 0.47,0 0.94,-0.05 1.41,-0.15 0.99,-0.05 1.89,-0.37 2.72,-0.95 1.55,-1.08 2.36,-2.99 2.24,-4.85 -0.11,-1.82 -0.23,-3.64 -0.34,-5.45 l -0.17,-2.67 c -0.07,-0.93 -0.42,-2.05 -0.64,-3.01 l -0.31,-1.36 c -0.31,-0.95 -0.79,-1.79 -1.45,-2.52 -0.61,-0.89 -1.37,-1.64 -2.29,-2.23 -1.18,-0.77 -2.47,-1.37 -3.84,-1.71 -0.51,-0.13 -1.01,-0.2 -1.51,-0.2"
         style="fill:#760000;fill-opacity:1;fill-rule:nonzero;stroke:none"
         id="path112" />
      <path
         d="m 2226.68,665.711 c -10.8,0 -3.18,14.469 4.95,14.469 10.8,0 3.18,-14.469 -4.95,-14.469"
         style="fill:#760000;fill-opacity:1;fill-rule:nonzero;stroke:none"
         id="path114" />
      <path
         d="m 362.852,907.441 c -4.137,0 -8.356,0.809 -12.512,2.528 -14.508,6.031 -25.676,19.172 -34.93,31.41 -8.691,11.5 -16.39,23.75 -23.535,36.269 1.707,1.743 2.754,4.043 2.391,6.75 l -0.192,1.411 -0.027,0.16 c -0.387,2.781 -2.004,3.84 -4.055,3.84 -0.461,0 -0.941,-0.047 -1.433,-0.149 -0.059,0 -0.118,0 -0.176,0 -0.961,0 -1.934,-0.199 -2.867,-0.551 -13.598,25.211 -25.235,51.471 -35.106,78.381 2.231,6.44 2.61,13.56 1.16,20.82 -2.109,10.54 -8.121,21.1 -16.886,27.62 -27.313,95.89 -35.633,197.36 -30.067,296.71 5.039,89.87 20.856,181.42 56.227,264.59 27.187,63.92 63.812,124.29 108.461,177.72 30.144,29.93 62.234,57.81 97.117,82.78 61.016,43.68 128.906,83.82 202.176,102.54 19.554,5 40.238,8.52 60.757,8.52 12.872,0 25.68,-1.39 38.098,-4.66 23.922,-6.33 40.094,-24.47 49.973,-46.43 11.453,-25.48 15.781,-54.02 19.465,-81.49 3.906,-29.16 6.433,-58.54 11.882,-87.47 2.45,-13.02 5.512,-25.99 10.118,-38.43 5.379,-14.54 13.25,-28.13 21.703,-41.07 18.23,-27.9 41.836,-52.42 71.101,-68.76 34.743,-19.39 73.625,-25.6 112.795,-25.6 22.29,0 44.67,2.01 66.44,4.74 33.28,4.18 66.31,10.1 99.48,15.07 29.09,4.35 58.89,8.87 88.38,8.87 0.22,0 0.44,0 0.67,0 19.16,-0.04 38.42,-2.84 57.23,-6.31 24.14,-4.45 48.08,-10.54 71.13,-19 32.17,-11.78 87.93,-36.76 78.99,-80.19 -1.93,-9.42 -6.51,-17.88 -11.97,-25.69 -35.52,23.46 -62.85,59.41 -102.53,76.31 -17.33,7.39 -35.49,9.87 -53.95,9.87 -5.73,0 -11.5,-0.24 -17.28,-0.65 -29.32,-2.06 -58.28,-7.93 -86.76,-15.05 -58.49,-14.64 -115.7,-34.28 -174.67,-47.07 -27.63,-5.99 -56.09,-10.87 -84.466,-10.87 -1.481,0 -2.961,0.02 -4.446,0.04 -22.816,0.41 -41.972,9.2 -60.211,22.27 -16.714,11.98 -33.304,25.19 -53.597,30.52 -8.129,2.13 -16.594,3.24 -25.043,3.24 -5.157,0 -10.313,-0.41 -15.375,-1.26 -25.188,-4.21 -45.969,-20.42 -61.875,-39.67 -38.43,-46.49 -56.879,-106.11 -86.196,-158.12 -12.574,-22.3 -27.57,-45.65 -49.546,-59.76 -10.247,-6.58 -24.848,-11.82 -38.586,-11.82 -10.348,0 -20.207,2.97 -27.344,10.6 -8.242,8.82 -10.606,21.87 -11.356,33.48 -1.007,15.52 0.637,31.21 2.86,46.57 4.687,32.34 13,64.19 16.301,96.73 1.121,11.07 2.093,23.43 -1.528,34.18 -3.98,11.79 -12.594,24.27 -23.801,24.27 -3.601,0 -7.468,-1.28 -11.539,-4.29 -8.289,-6.14 -14.5,-15.06 -20.472,-23.33 -8.047,-11.15 -16.2,-22.31 -23.692,-33.83 -15.269,-23.48 -27.664,-48.69 -38.515,-74.47 -47.016,-111.72 -70.211,-233.42 -75.813,-354.23 -2.687,-57.92 18.578,-114.971 7.278,-172.831 -0.883,-4.519 -2.036,-9.129 -3.571,-13.578 -7.082,-7.633 -16.445,-12.18 -26.265,-12.18 m -4.625,713.539 c -8.45,-0.3 -16.418,-4.48 -21.903,-10.86 -8.613,-10.01 -11.687,-23.25 -13.617,-36 -1.562,-10.33 -2.289,-20.93 -1.219,-31.34 0.282,-2.74 3.039,-5.02 5.278,-6.06 1.812,-0.85 3.562,-1.14 5.386,-1.14 1.168,0 2.364,0.12 3.625,0.29 15.172,2.06 25.985,12.36 32.09,25.38 l 1.699,0.64 c 4.45,1.89 8.407,6.01 9.387,10.79 0.43,2.08 -0.039,4.55 -1.25,6.46 4.457,9.66 6.934,21.45 1.363,30.31 -0.441,2.39 -1.046,4.76 -1.933,7.07 -1.715,4.44 -5.285,6.19 -9.492,6.19 -0.918,0 -1.871,-0.08 -2.84,-0.24 -2.168,-0.36 -4.227,-0.89 -6.215,-1.53 l -0.359,0.04 m 439.3,112.14 c -3.265,0 -6.972,-1.79 -8.968,-3.94 -4.313,-4.62 -7.977,-9.74 -10.653,-15.31 -5.586,-3.04 -9.414,-8.48 -10.613,-15.37 -1.5,-8.63 1.387,-18.16 6.371,-25.21 1.102,-1.55 2.613,-2.15 4.231,-2.15 2.781,0 5.867,1.77 7.668,3.4 7.57,6.87 13.054,15.82 16.378,25.46 3.153,9.15 4.395,19.53 1.489,28.92 -0.946,3.05 -3.282,4.2 -5.903,4.2 m -239.019,181.03 c -6.91,0 -13.879,-1.19 -20.297,-3.09 -16.438,-4.88 -31.918,-13.07 -46.465,-22.94 -41.762,-3.19 -74.027,-56.01 -87.043,-90.94 -1.57,-4.22 -3.156,-9.15 -4.617,-14.55 -3.402,-9.89 -5.445,-20.21 -5.746,-30.84 -3.289,-33.01 3.449,-67.28 40.375,-67.28 0.933,0 1.883,0.02 2.855,0.06 34.934,1.59 67.563,27.23 91.813,50.26 17.254,16.37 32.988,34.58 46.578,54.12 13.32,19.15 25.098,40.71 28.695,64.03 2.914,18.92 -2.738,39.17 -17.672,51.78 -8.015,6.76 -18.183,9.39 -28.476,9.39 M 362.285,1803.4 c -7.18,0 -13.902,-12.77 -4.375,-12.77 7.184,0 13.914,12.77 4.375,12.77 m 337.637,101.83 c -2.695,0 -5.719,-1.12 -7.551,-2.18 -5.703,-3.31 -10.363,-7.9 -13.926,-13.23 -1.035,-0.26 -2.07,-0.47 -3.097,-0.91 -5.809,-2.53 -10.325,-7.5 -13.184,-13.07 -5.613,-10.96 -7.851,-25.12 -4.074,-37.04 0.805,-2.53 2.906,-3.72 5.473,-3.84 0.558,-0.02 1.117,-0.03 1.667,-0.03 31.188,-0.01 45.622,39.99 40.247,66.12 -0.645,3.14 -2.95,4.18 -5.555,4.18 m -163.469,53.46 c -1.258,0 -2.281,-0.14 -3.512,-0.58 l -1.683,-0.81 -1.391,-1.07 -1.726,-2.57 -0.243,-1.38 0.231,-1.36 0.707,-1.19 1.133,-0.94 0.047,-0.02 0.226,-0.09 0.418,-0.28 0.664,-0.51 0.196,-0.14 1.734,-0.79 0.644,-0.21 0.207,-0.08 1.778,-0.28 0.976,0.05 0.977,0.05 0.41,0.06 0.965,0.13 c 1.172,0.19 2.266,0.59 3.281,1.2 l 1.805,1.58 1.125,1.84 0.012,2.58 -0.286,0.64 -0.121,0.27 -0.781,1.32 -0.586,0.48 -0.629,0.53 -0.191,0.09 -2.172,0.96 c -0.07,0.01 -0.094,0.02 -0.094,0.03 0.024,-0.01 0.035,-0.01 0.039,-0.01 0.004,0 0,0 -0.011,0 -0.008,0.01 -0.016,0.01 -0.024,0.01 -0.004,0 -0.004,0 -0.004,0 -0.082,0 -0.297,0.03 -0.832,0.12 l -0.945,0.16 -0.156,0.02 -0.325,0.04 -1.582,0.14 c -0.093,0 -0.187,0.01 -0.281,0.01 m 210.27,17.67 v 0 l -0.434,0.07 c 0.34,-0.04 0.68,-0.06 1.02,-0.06 0.578,0 1.164,0.06 1.746,0.18 1.222,0.24 2.343,0.69 3.375,1.36 1.152,0.56 2.168,1.32 3.039,2.29 1.082,1.12 1.886,2.41 2.414,3.87 l 0.043,0.21 1.816,1.28 c 0.727,0.93 1.055,2.37 -0.058,3.17 l -1.215,1.01 -1.121,1.65 c -0.977,1.04 -2,1.71 -3.395,2.13 l -1.879,0.34 -2.133,-0.31 -1.054,-0.22 c -1.672,-0.44 -2.746,-0.9 -4.215,-1.83 l -0.387,-0.34 h -0.031 l -0.043,-0.05 -2.027,-1.98 -0.579,-0.56 c -0.769,-0.85 -1.324,-1.82 -1.679,-2.92 -0.524,-1.82 -0.731,-3.99 0.527,-5.6 l 0.5,-0.67 0.246,-0.39 0.055,-0.09 1.394,-1.38 1.797,-0.84 1.34,-0.19 c 0.133,-0.02 0.266,-0.04 0.399,-0.05 l 0.402,-0.06 0.137,-0.02"
         style="fill:#fb6562;fill-opacity:1;fill-rule:nonzero;stroke:none"
         id="path116" />
      <path
         d="m 535.883,1946.39 -1.778,0.28 -0.207,0.08 -0.644,0.21 -1.734,0.79 -0.196,0.14 -0.664,0.51 -0.418,0.28 -0.226,0.09 -0.047,0.02 -1.133,0.94 -0.707,1.19 -0.231,1.36 0.243,1.38 1.726,2.57 1.391,1.07 1.683,0.81 c 1.231,0.44 2.254,0.58 3.512,0.58 0.094,0 0.188,-0.01 0.281,-0.01 l 1.582,-0.14 0.325,-0.04 0.156,-0.02 0.945,-0.16 c 0.535,-0.09 0.75,-0.12 0.832,-0.12 0,-0.01 0.024,-0.02 0.094,-0.03 l 2.172,-0.96 0.191,-0.09 0.629,-0.53 0.586,-0.48 0.781,-1.32 0.121,-0.27 0.286,-0.64 -0.012,-2.58 -1.125,-1.84 -1.805,-1.58 c -1.015,-0.61 -2.109,-1.01 -3.281,-1.2 l -0.965,-0.13 -0.41,-0.06 -0.977,-0.05 -0.976,-0.05 m 4.73,11.8 c -0.004,0 -0.015,0 -0.039,0.01 0,0 0,0 0.004,0 0.008,0 0.016,0 0.024,-0.01 0.011,0 0.015,0 0.011,0"
         style="fill:#fdabaa;fill-opacity:1;fill-rule:nonzero;stroke:none"
         id="path118" />
      <path
         d="m 665.23,1834.93 c -0.55,0 -1.109,0.01 -1.667,0.03 -2.567,0.12 -4.668,1.31 -5.473,3.84 -3.777,11.92 -1.539,26.08 4.074,37.04 2.859,5.57 7.375,10.54 13.184,13.07 1.027,0.44 2.062,0.65 3.097,0.91 3.563,5.33 8.223,9.92 13.926,13.23 1.832,1.06 4.856,2.18 7.551,2.18 2.605,0 4.91,-1.04 5.555,-4.18 5.375,-26.13 -9.059,-66.13 -40.247,-66.12"
         style="fill:#fdabaa;fill-opacity:1;fill-rule:nonzero;stroke:none"
         id="path120" />
      <path
         d="m 777.895,1671.14 c -1.618,0 -3.129,0.6 -4.231,2.15 -4.984,7.05 -7.871,16.58 -6.371,25.21 1.199,6.89 5.027,12.33 10.613,15.37 2.676,5.57 6.34,10.69 10.653,15.31 1.996,2.15 5.703,3.94 8.968,3.94 2.621,0 4.957,-1.15 5.903,-4.2 2.906,-9.39 1.664,-19.77 -1.489,-28.92 -3.324,-9.64 -8.808,-18.59 -16.378,-25.46 -1.801,-1.63 -4.887,-3.4 -7.668,-3.4"
         style="fill:#fdabaa;fill-opacity:1;fill-rule:nonzero;stroke:none"
         id="path122" />
      <path
         d="m 357.91,1790.63 c -9.527,0 -2.805,12.77 4.375,12.77 9.539,0 2.809,-12.77 -4.375,-12.77"
         style="fill:#fdabaa;fill-opacity:1;fill-rule:nonzero;stroke:none"
         id="path124" />
      <path
         d="m 746.723,1976.36 -0.137,0.02 -0.402,0.06 c -0.133,0.01 -0.266,0.03 -0.399,0.05 l -1.34,0.19 -1.797,0.84 -1.394,1.38 -0.055,0.09 -0.246,0.39 -0.5,0.67 c -1.258,1.61 -1.051,3.78 -0.527,5.6 0.355,1.1 0.91,2.07 1.679,2.92 l 0.579,0.56 2.027,1.98 0.043,0.05 h 0.031 l 0.387,0.34 c 1.469,0.93 2.543,1.39 4.215,1.83 l 1.054,0.22 2.133,0.31 1.879,-0.34 c 1.395,-0.42 2.418,-1.09 3.395,-2.13 l 1.121,-1.65 1.215,-1.01 c 1.113,-0.8 0.785,-2.24 0.058,-3.17 l -1.816,-1.28 -0.043,-0.21 c -0.528,-1.46 -1.332,-2.75 -2.414,-3.87 -0.871,-0.97 -1.887,-1.73 -3.039,-2.29 -1.032,-0.67 -2.153,-1.12 -3.375,-1.36 -0.582,-0.12 -1.168,-0.18 -1.746,-0.18 -0.34,0 -0.68,0.02 -1.02,0.06 l 0.434,-0.07"
         style="fill:#fdabaa;fill-opacity:1;fill-rule:nonzero;stroke:none"
         id="path126" />
      <path
         d="m 250.41,1067.49 c -5.844,15.93 -11.066,32.09 -15.711,48.38 -0.004,0.02 -0.011,0.04 -0.015,0.06 8.765,-6.52 14.777,-17.08 16.886,-27.62 1.45,-7.26 1.071,-14.38 -1.16,-20.82"
         style="fill:#f74340;fill-opacity:1;fill-rule:nonzero;stroke:none"
         id="path128" />
      <path
         d="m 291.875,977.648 c -1.074,1.883 -2.133,3.762 -3.18,5.653 -1.074,1.929 -2.132,3.871 -3.179,5.808 0.933,0.352 1.906,0.551 2.867,0.551 0.058,0 0.117,0 0.176,0 0.492,0.102 0.972,0.149 1.433,0.149 2.051,0 3.668,-1.059 4.055,-3.84 l 0.027,-0.16 0.192,-1.411 c 0.363,-2.707 -0.684,-5.007 -2.391,-6.75"
         style="fill:#f74340;fill-opacity:1;fill-rule:nonzero;stroke:none"
         id="path130" />
      <path
         d="m 1705.46,1611.23 c -8.41,0 -16.81,0.86 -25.1,2.72 -21.42,4.8 -43.22,19.81 -50.89,41.09 -1.29,3.59 -2.11,7.42 -2.52,11.41 -1.19,1.8 -2.24,3.77 -2.98,5.97 -3.16,9.44 0.15,19.68 4.79,28 3.64,6.55 8.42,12.45 13.77,17.88 5.36,6.92 11.87,12.51 19.18,15.93 6.26,4.36 12.72,8.32 19.03,11.88 17.11,9.63 36.39,18.48 56.25,19.8 1.41,0.09 2.82,0.14 4.25,0.14 23.78,0 50.05,-12.7 66.39,-28.91 21.62,-21.44 22.19,-51.28 4.54,-75.61 -14.29,-19.71 -35.82,-33.65 -58.6,-41.64 -15.43,-5.42 -31.77,-8.66 -48.11,-8.66"
         style="fill:#f74340;fill-opacity:1;fill-rule:nonzero;stroke:none"
         id="path132" />
      <path
         d="m 434.715,1684.51 c -36.926,0 -43.664,34.27 -40.375,67.28 0.301,10.63 2.344,20.95 5.746,30.84 1.461,5.4 3.047,10.33 4.617,14.55 13.016,34.93 45.281,87.75 87.043,90.94 14.547,9.87 30.027,18.06 46.465,22.94 6.418,1.9 13.387,3.09 20.297,3.09 10.293,0 20.461,-2.63 28.476,-9.39 14.934,-12.61 20.586,-32.86 17.672,-51.78 -3.597,-23.32 -15.375,-44.88 -28.695,-64.03 -13.59,-19.54 -29.324,-37.75 -46.578,-54.12 -24.25,-23.03 -56.879,-48.67 -91.813,-50.26 -0.972,-0.04 -1.922,-0.06 -2.855,-0.06"
         style="fill:#fecdcd;fill-opacity:1;fill-rule:nonzero;stroke:none"
         id="path134" />
      <path
         d="m 332.152,1535.58 c -1.824,0 -3.574,0.29 -5.386,1.14 -2.239,1.04 -4.996,3.32 -5.278,6.06 -1.07,10.41 -0.343,21.01 1.219,31.34 1.93,12.75 5.004,25.99 13.617,36 5.485,6.38 13.453,10.56 21.903,10.86 l 0.359,-0.04 c 1.988,0.64 4.047,1.17 6.215,1.53 0.969,0.16 1.922,0.24 2.84,0.24 4.207,0 7.777,-1.75 9.492,-6.19 0.887,-2.31 1.492,-4.68 1.933,-7.07 5.571,-8.86 3.094,-20.65 -1.363,-30.31 1.211,-1.91 1.68,-4.38 1.25,-6.46 -0.98,-4.78 -4.937,-8.9 -9.387,-10.79 l -1.699,-0.64 c -6.105,-13.02 -16.918,-23.32 -32.09,-25.38 -1.261,-0.17 -2.457,-0.29 -3.625,-0.29"
         style="fill:#fecdcd;fill-opacity:1;fill-rule:nonzero;stroke:none"
         id="path136" />
      <path
         d="m 1311.69,1907.84 c -4.77,0 -9.56,0.25 -14.35,0.68 1.05,3.28 4.16,5.69 7.31,6.6 5.16,6.83 7.17,17.97 8.91,25.31 3.33,14.09 5.22,28.54 6.95,42.89 3.77,31.25 8.7,62.41 10.13,93.89 3.49,76.95 -8.38,153.85 -27.23,228.29 -18.36,72.51 -42.35,144.66 -71.4,213.61 -26.91,63.89 -62.3,123.98 -105.76,178.03 -20.28,25.22 -41.96,49.94 -65.52,72.16 -18.34,17.29 -39.16,34.7 -62.257,46.08 3.517,-11 -1.614,-27.86 -4.653,-36.81 -4.656,-13.74 -9.933,-27.77 -15.968,-41.55 -5.172,-6.24 -9.629,-13.13 -13.637,-19.26 -11.402,-17.47 -22.86,-40.17 -42.176,-50.31 7.645,7.07 13.777,17.2 18.438,24.61 16.523,26.29 29.679,55.86 40.113,85.12 2.73,7.65 13.797,37.09 -2.102,37.09 -0.211,0 -0.429,-0.01 -0.648,-0.02 l -0.113,-0.02 c -8.668,-4.91 -16.149,-13.03 -22.606,-19.77 -1.035,-1.08 -2.058,-2.17 -3.074,-3.27 -9.777,-0.62 -20.125,-8.48 -27.117,-14.97 l 0.191,0.54 c 6.828,11.71 15.879,23.29 25.469,32.88 8.254,8.25 19.672,16.28 31.848,16.28 0.792,0 1.593,-0.04 2.394,-0.11 0.981,-0.08 1.832,-0.3 2.699,-0.49 35.869,-2.83 65.439,-27.27 90.499,-51.25 27.55,-26.38 52.71,-55.53 75.67,-85.97 43.31,-57.41 76.25,-121.28 101.87,-188.34 28.34,-74.16 53.7,-149.88 70.32,-227.61 11.52,-53.86 18.85,-109.1 18.86,-164.29 0.01,-24.18 -1.4,-48.35 -4.47,-72.39 -3.2,-25.06 -5.81,-50.38 -9.97,-75.29 -2.82,-16.81 -5.97,-38.89 -18.17,-52.34 v 0 c -0.15,0 -0.3,0 -0.45,0"
         style="fill:#391f05;fill-opacity:1;fill-rule:nonzero;stroke:none"
         id="path138" />
      <path
         d="m 913.676,2664.32 c 13.265,18.21 27.812,35.41 39.738,54.64 7.063,11.38 13.875,23.6 17.227,36.67 2.511,9.76 2.847,20.87 -3.985,29.01 -3.972,4.74 -8.593,6.59 -13.394,6.59 -0.403,0 -0.809,-0.01 -1.215,-0.04 1.016,1.1 2.039,2.19 3.074,3.27 6.457,6.74 13.938,14.86 22.606,19.77 l 0.113,0.02 c 0.219,0.01 0.437,0.02 0.648,0.02 15.899,0 4.832,-29.44 2.102,-37.09 -10.434,-29.26 -23.59,-58.83 -40.113,-85.12 -4.661,-7.41 -10.793,-17.54 -18.438,-24.61 -0.828,-0.43 -1.676,-0.85 -2.535,-1.24 -1.879,-0.85 -3.852,-1.4 -5.828,-1.89"
         style="fill:#6f3e17;fill-opacity:1;fill-rule:nonzero;stroke:none"
         id="path140" />
      <path
         d="m 1297.34,1908.52 c -1.08,0.1 -2.16,0.21 -3.24,0.32 1.82,7.87 3.61,15.75 5.29,23.64 10.21,48.13 16.98,96.92 17.26,146.18 0.28,50.16 -6.02,99.74 -15.32,148.95 -8.99,47.53 -20.34,94.62 -34.08,141 -13.78,46.54 -29.96,92.39 -48.73,137.16 -15.25,36.36 -32.06,71.78 -52.88,105.34 -21.22,34.21 -45.8,66.78 -74.88,94.72 -13.64,13.12 -28.36,25.23 -44.24,35.55 -10.45,6.78 -22.28,14.87 -35.25,14.87 -0.38,0 -0.77,0 -1.15,-0.02 -13.413,-0.5 -23.796,-8.98 -32.268,-19.21 6.035,13.78 11.312,27.81 15.968,41.55 3.039,8.95 8.17,25.81 4.653,36.81 23.097,-11.38 43.917,-28.79 62.257,-46.08 23.56,-22.22 45.24,-46.94 65.52,-72.16 43.46,-54.05 78.85,-114.14 105.76,-178.03 29.05,-68.95 53.04,-141.1 71.4,-213.61 18.85,-74.44 30.72,-151.34 27.23,-228.29 -1.43,-31.48 -6.36,-62.64 -10.13,-93.89 -1.73,-14.35 -3.62,-28.8 -6.95,-42.89 -1.74,-7.34 -3.75,-18.48 -8.91,-25.31 -3.15,-0.91 -6.26,-3.32 -7.31,-6.6"
         style="fill:#562f09;fill-opacity:1;fill-rule:nonzero;stroke:none"
         id="path142" />
    </g>
  </g>
</svg>
