<?xml version="1.0" ?><svg enable-background="new 0 0 504 504" id="Layer_1" version="1.1" viewBox="0 0 504 504" xml:space="preserve" xmlns="http://www.w3.org/2000/svg" xmlns:xlink="http://www.w3.org/1999/xlink"><path d="M452.2,251.6c-9.2,58.5-27.1,75.6-58.8,114.9c-31.7,33.3-77.3,88.9-141.9,85.8  c-58.5-9.2-75.6-27.1-114.9-58.8c-33.3-31.7-88.9-77.3-85.8-141.9c9.2-58.5,27.1-75.6,58.8-114.9c31.7-33.3,77.3-88.9,141.9-85.8  c58.5,9.2,75.6,27.1,114.9,58.8C399.7,141.4,455.3,187,452.2,251.6z" fill="#3765AF"/><g><path d="M96.5,244.9h7.9c4,9.9,9.1,19.9,11.5,29.8c2.4-10.7,9.1-20.7,13.9-30.6h0.8c4.8,9.9,11.1,19.9,13.9,30.6   c2.4-10.3,7.6-20.3,11.5-29.8h7.9l-18.3,43.3h-1.2c-2.4-5.2-4.8-9.9-7.2-15.1c-2.4-5.6-5.6-10.7-7.2-16.7   c-2.8,11.1-9.5,21.5-14.7,31.8h-1.2L96.5,244.9z" fill="#FFFFFF"/><path d="M194.6,282.2c6.8,0,11.1-2.4,13.9-5.6l4.8,4.4c-7.6,8.3-21.9,9.5-31.8,4c-9.5-5.6-13.1-17.5-8.7-27.4   c4.4-9.9,15.9-15.5,26.6-12.7c11.5,2.8,16.7,13.1,16.3,23.8h-37.4C179.2,276.7,184.7,282.2,194.6,282.2z M208.2,263.1   c-1.6-17.5-27.4-16.7-29.8,0H208.2z" fill="#FFFFFF"/><path d="M284.1,252.8c0-14.3,8.3-27.8,22.7-33c13.5-5.2,30.2-2.4,40.5,7.2c11.1,10.3,13.9,27,7.9,40.1   c-5.6,13.1-19.5,21.1-34.2,21.1C300.8,288.2,284.1,273.9,284.1,252.8z M354,252.8c0-17.5-14.3-31.8-32.6-31.8   c-18.3,0-32.6,14.3-32.6,31.8s14.3,31.8,32.6,31.8C339.7,284.6,354,270.3,354,252.8z" fill="#FFFFFF"/><path d="M362.7,274.3l3.6-1.6c2.8,5.6,7.6,9.5,13.5,11.1c7.2,1.6,15.9,0.8,20.7-4.8c4-4.4,4.4-11.5,1.2-16.7   c-3.2-5.2-9.5-7.6-14.7-9.9c-10.7-4.8-23.8-11.5-18.7-25.4c2.4-6.8,9.5-9.9,16.7-9.9c7.9,0,14.3,3.6,18.7,9.9l-3.6,2   c-4-6.4-10.7-9.5-18.7-8.3c-6.8,1.2-10.7,6.8-9.9,13.5c1.2,11.5,18.7,13.9,27,19.5c11.1,7.6,13.5,24.2,0.4,31.4   C386.6,292.6,369.1,287,362.7,274.3z" fill="#FFFFFF"/><path d="M235.6,278.2l0.4,9.1h-7.2v-69.5h7.2v35.8c7.9-14.3,29.4-11.5,36.2,2.4c6.4,13.9-2.4,32.2-19.1,32.2   C244.7,288.2,238.8,284.2,235.6,278.2z M266.6,266.3c0-8.7-6-15.9-15.1-15.9s-15.5,7.2-15.5,15.9s6.4,15.9,15.5,15.9   S266.6,274.7,266.6,266.3z" fill="#FFFFFF"/></g></svg>